<?xml version="1.0" standalone="no"?><!DOCTYPE svg PUBLIC "-//W3C//DTD SVG 1.1//EN" "http://www.w3.org/Graphics/SVG/1.1/DTD/svg11.dtd"><svg class="icon" width="200px" height="200.00px" viewBox="0 0 1024 1024" version="1.1" xmlns="http://www.w3.org/2000/svg"><path fill="#2c2c2c" d="M881.777778 227.555556a56.888889 56.888889 0 0 1 56.888889 56.888888v256a312.888889 312.888889 0 0 1-312.888889 312.888889h-227.555556A312.888889 312.888889 0 0 1 85.333333 540.444444V284.444444a56.888889 56.888889 0 0 1 56.888889-56.888888h739.555556z m0 56.888888H142.222222v256a256 256 0 0 0 243.939556 255.715556L398.222222 796.444444h227.555556a256 256 0 0 0 255.715555-243.939555L881.777778 540.444444V284.444444z"  /><path fill="#2c2c2c" d="M910.222222 113.777778a85.333333 85.333333 0 0 1 0 170.666666h-796.444444a85.333333 85.333333 0 0 1 0-170.666666h796.444444z m0 56.888889h-796.444444a28.444444 28.444444 0 0 0-5.12 56.433777L113.777778 227.555556h796.444444a28.444444 28.444444 0 0 0 5.12-56.433778L910.222222 170.666667zM512 796.444444a28.444444 28.444444 0 0 1 28.444444 28.444445v170.666667a28.444444 28.444444 0 1 1-56.888888 0v-170.666667a28.444444 28.444444 0 0 1 28.444444-28.444445z"  /><path fill="#2c2c2c" d="M284.444444 0a28.444444 28.444444 0 0 1 28.444445 28.444444v113.777778a28.444444 28.444444 0 0 1-56.888889 0v-113.777778a28.444444 28.444444 0 0 1 28.444444-28.444444zM739.555556 0a28.444444 28.444444 0 0 1 28.444444 28.444444v113.777778a28.444444 28.444444 0 1 1-56.888889 0v-113.777778a28.444444 28.444444 0 0 1 28.444445-28.444444zM547.043556 323.128889a28.444444 28.444444 0 0 1 46.648888 32.199111l-2.958222 4.209778L487.367111 483.555556H597.333333a28.444444 28.444444 0 0 1 24.576 42.837333l-2.730666 3.811555-142.222223 170.666667a28.444444 28.444444 0 0 1-46.648888-32.199111l2.958222-4.209778L536.462222 540.444444H426.666667a28.444444 28.444444 0 0 1-24.576-42.837333l2.730666-3.811555 142.222223-170.666667z"  /></svg>