<?xml version="1.0" standalone="no"?><!DOCTYPE svg PUBLIC "-//W3C//DTD SVG 1.1//EN" "http://www.w3.org/Graphics/SVG/1.1/DTD/svg11.dtd"><svg class="icon" width="200px" height="188.93px" viewBox="0 0 1084 1024" version="1.1" xmlns="http://www.w3.org/2000/svg"><path fill="#2c2c2c" d="M903.529412 60.235294v180.705882h120.470588a60.235294 60.235294 0 0 0 60.235294-60.235294V120.470588a60.235294 60.235294 0 0 0-60.235294-60.235294h-120.470588z m60.235294 120.470588V120.470588h60.235294v60.235294h-60.235294z"  /><path fill="#2c2c2c" d="M843.294118 0a120.470588 120.470588 0 0 0-120.470589 120.470588v60.235294a120.470588 120.470588 0 0 0 120.470589 120.470589h90.352941a30.117647 30.117647 0 0 0 30.117647-30.117647v-240.941177a30.117647 30.117647 0 0 0-30.117647-30.117647H843.294118z m60.235294 240.941176h-60.235294a60.235294 60.235294 0 0 1-59.813647-53.187764L783.058824 180.705882V120.470588a60.235294 60.235294 0 0 1 53.187764-59.813647L843.294118 60.235294h60.235294v180.705882zM180.705882 783.058824v180.705882H60.235294a60.235294 60.235294 0 0 1-60.235294-60.235294v-60.235294a60.235294 60.235294 0 0 1 60.235294-60.235294h120.470588z m-60.235294 120.470588v-60.235294H60.235294v60.235294h60.235294z"  /><path fill="#2c2c2c" d="M240.941176 722.823529a120.470588 120.470588 0 0 1 120.470589 120.470589v60.235294a120.470588 120.470588 0 0 1-120.470589 120.470588H150.588235a30.117647 30.117647 0 0 1-30.117647-30.117647v-240.941177a30.117647 30.117647 0 0 1 30.117647-30.117647H240.941176z m-60.235294 240.941177h60.235294a60.235294 60.235294 0 0 0 59.813648-53.187765L301.176471 903.529412v-60.235294a60.235294 60.235294 0 0 0-53.187765-59.813647L240.941176 783.058824H180.705882v180.705882z"  /><path fill="#2c2c2c" d="M722.823529 120.470588v60.235294H180.705882a60.235294 60.235294 0 0 0-7.047529 120.048942L180.705882 301.176471h391.529412a120.470588 120.470588 0 0 1 9.035294 240.64L572.235294 542.117647H361.411765a60.235294 60.235294 0 0 0-7.04753 120.048941L361.411765 662.588235h542.117647a120.470588 120.470588 0 0 1 9.035294 240.64L903.529412 903.529412H361.411765v-60.235294h542.117647a60.235294 60.235294 0 0 0 7.047529-120.048942L903.529412 722.823529H361.411765a120.470588 120.470588 0 0 1-9.035294-240.64L361.411765 481.882353h210.823529a60.235294 60.235294 0 0 0 7.04753-120.048941L572.235294 361.411765H180.705882a120.470588 120.470588 0 0 1-9.035294-240.64L180.705882 120.470588h542.117647z"  /></svg>