<?xml version="1.0" standalone="no"?><!DOCTYPE svg PUBLIC "-//W3C//DTD SVG 1.1//EN" "http://www.w3.org/Graphics/SVG/1.1/DTD/svg11.dtd"><svg class="icon" width="200px" height="155.62px" viewBox="0 0 1316 1024" version="1.1" xmlns="http://www.w3.org/2000/svg"><path fill="#2c2c2c" d="M1243.428571 0a73.142857 73.142857 0 0 1 73.142858 73.142857v877.714286a73.142857 73.142857 0 0 1-73.142858 73.142857H73.142857a73.142857 73.142857 0 0 1-73.142857-73.142857V73.142857a73.142857 73.142857 0 0 1 73.142857-73.142857h1170.285714z m0 73.142857H73.142857v877.714286h1170.285714V73.142857z"  /><path fill="#2c2c2c" d="M924.964571 339.821714a36.571429 36.571429 0 0 1 46.665143-4.169143l5.12 4.169143 146.285715 146.285715a36.571429 36.571429 0 0 1 4.169142 46.665142l-4.169142 5.12-146.285715 146.285715a36.571429 36.571429 0 0 1-55.954285-46.665143l4.169142-5.12L1045.430857 512l-120.466286-120.393143a36.571429 36.571429 0 0 1-4.169142-46.665143l4.169142-5.12zM1280 146.285714a36.571429 36.571429 0 1 1 0 73.142857H36.571429a36.571429 36.571429 0 0 1 0-73.142857h1243.428571zM1280 804.571429a36.571429 36.571429 0 1 1 0 73.142857H36.571429a36.571429 36.571429 0 1 1 0-73.142857h1243.428571z"  /><path fill="#2c2c2c" d="M705.536 339.821714a36.571429 36.571429 0 0 1 46.665143-4.169143l5.12 4.169143 146.285714 146.285715a36.571429 36.571429 0 0 1 4.169143 46.665142l-4.169143 5.12-146.285714 146.285715a36.571429 36.571429 0 0 1-55.954286-46.665143l4.169143-5.12L826.002286 512 705.536 391.606857a36.571429 36.571429 0 0 1-4.169143-46.665143l4.169143-5.12z"  /><path fill="#2c2c2c" d="M486.107429 339.821714a36.571429 36.571429 0 0 1 46.665142-4.169143l5.12 4.169143 146.285715 146.285715a36.571429 36.571429 0 0 1 4.169143 46.665142l-4.169143 5.12-146.285715 146.285715a36.571429 36.571429 0 0 1-55.954285-46.665143l4.169143-5.12L606.573714 512 486.107429 391.606857a36.571429 36.571429 0 0 1-4.169143-46.665143l4.169143-5.12z"  /><path fill="#2c2c2c" d="M266.678857 339.821714a36.571429 36.571429 0 0 1 46.665143-4.169143l5.12 4.169143 146.285714 146.285715a36.571429 36.571429 0 0 1 4.169143 46.665142l-4.169143 5.12-146.285714 146.285715a36.571429 36.571429 0 0 1-55.954286-46.665143l4.169143-5.12L387.145143 512 266.678857 391.606857a36.571429 36.571429 0 0 1-4.169143-46.665143l4.169143-5.12z"  /></svg>