<?xml version="1.0" standalone="no"?><!DOCTYPE svg PUBLIC "-//W3C//DTD SVG 1.1//EN" "http://www.w3.org/Graphics/SVG/1.1/DTD/svg11.dtd"><svg class="icon" width="200px" height="200.00px" viewBox="0 0 1024 1024" version="1.1" xmlns="http://www.w3.org/2000/svg"><path fill="#2c2c2c" d="M739.555556 0a56.888889 56.888889 0 0 1 56.888888 56.888889v398.222222a56.888889 56.888889 0 0 1-56.888888 56.888889H170.666667a56.888889 56.888889 0 0 1-56.888889-56.888889V56.888889a56.888889 56.888889 0 0 1 56.888889-56.888889h568.888889z m0 56.888889H170.666667v398.222222h568.888889V56.888889z"  /><path fill="#2c2c2c" d="M378.652444 455.111111a56.888889 56.888889 0 0 1 54.499556 73.216L369.777778 739.555556l222.208 98.759111a56.888889 56.888889 0 0 1 33.792 51.996444V967.111111a56.888889 56.888889 0 0 1-56.888889 56.888889H113.777778a56.888889 56.888889 0 0 1-56.888889-56.888889v-90.225778a56.888889 56.888889 0 0 1 16.668444-40.220444L113.777778 796.444444l48.924444-293.774222A56.888889 56.888889 0 0 1 218.908444 455.111111h159.800889z m0 56.888889H218.851556l-48.924445 293.774222a56.888889 56.888889 0 0 1-11.264 25.6l-4.664889 5.290667-40.220444 40.220444V967.111111h455.111111v-76.8l-222.208-98.759111a56.888889 56.888889 0 0 1-32.938667-62.008889l1.536-6.314667L378.652444 512zM56.888889 56.888889a56.888889 56.888889 0 0 0-56.888889 56.888889v284.444444a56.888889 56.888889 0 0 0 56.888889 56.888889h56.888889a56.888889 56.888889 0 0 0 56.888889-56.888889V113.777778a56.888889 56.888889 0 0 0-56.888889-56.888889H56.888889z m0 56.888889h56.888889v284.444444H56.888889V113.777778zM739.555556 113.777778v284.444444h85.333333A85.333333 85.333333 0 0 0 910.222222 312.888889v-113.777778A85.333333 85.333333 0 0 0 824.888889 113.777778H739.555556z m56.888888 227.555555V170.666667h28.444445a28.444444 28.444444 0 0 1 27.989333 23.324444L853.333333 199.111111v113.777778a28.444444 28.444444 0 0 1-23.324444 27.989333L824.888889 341.333333H796.444444z"  /><path fill="#2c2c2c" d="M995.555556 227.555556a28.444444 28.444444 0 1 1 0 56.888888h-113.777778a28.444444 28.444444 0 1 1 0-56.888888h113.777778zM625.777778 455.111111l-35.328 141.368889A113.777778 113.777778 0 0 1 480.085333 682.666667H341.333333l56.888889-227.555556h227.555556zM552.846222 512H442.652444l-28.444444 113.777778h65.820444a56.888889 56.888889 0 0 0 53.304889-36.920889l1.934223-6.144L552.846222 512zM654.222222 113.777778a28.444444 28.444444 0 1 1 0 56.888889h-170.666666a28.444444 28.444444 0 0 1 0-56.888889h170.666666zM654.222222 227.555556a28.444444 28.444444 0 1 1 0 56.888888h-113.777778a28.444444 28.444444 0 0 1 0-56.888888h113.777778z"  /></svg>