<?xml version="1.0" standalone="no"?><!DOCTYPE svg PUBLIC "-//W3C//DTD SVG 1.1//EN" "http://www.w3.org/Graphics/SVG/1.1/DTD/svg11.dtd"><svg class="icon" width="200px" height="177.78px" viewBox="0 0 1152 1024" version="1.1" xmlns="http://www.w3.org/2000/svg"><path fill="#2c2c2c" d="M960 384a64 64 0 0 1 64 64v512a64 64 0 0 1-64 64H192a64 64 0 0 1-64-64V448a64 64 0 0 1 64-64h768z m0 64H192v512h768V448z"  /><path fill="#2c2c2c" d="M1088 384a64 64 0 0 1 64 64v512a64 64 0 0 1-64 64H64a64 64 0 0 1-64-64V448a64 64 0 0 1 64-64h1024z m0 64H64v512h1024V448z"  /><path fill="#2c2c2c" d="M768 256a64 64 0 0 1 64 64v64a64 64 0 0 1-64 64H384a64 64 0 0 1-64-64V320a64 64 0 0 1 64-64h384z m0 64H384v64h384V320z"  /><path fill="#2c2c2c" d="M640 128a64 64 0 0 1 64 64v64a64 64 0 0 1-64 64H512a64 64 0 0 1-64-64V192a64 64 0 0 1 64-64h128z m0 64H512v64h128V192z"  /><path fill="#2c2c2c" d="M832 0a64 64 0 0 1 64 64v64a64 64 0 0 1-64 64H320a64 64 0 0 1-64-64V64a64 64 0 0 1 64-64h512z m0 64H320v64h512V64z"  /></svg>