<?xml version="1.0" standalone="no"?><!DOCTYPE svg PUBLIC "-//W3C//DTD SVG 1.1//EN" "http://www.w3.org/Graphics/SVG/1.1/DTD/svg11.dtd"><svg class="icon" width="200px" height="188.93px" viewBox="0 0 1084 1024" version="1.1" xmlns="http://www.w3.org/2000/svg"><path fill="#2c2c2c" d="M754.145882 15.661176l288.948706 144.444236a60.235294 60.235294 0 0 1 32.105412 65.716706l-35.719529 178.718117a60.235294 60.235294 0 0 1-86.016 42.044236L903.529412 421.647059l53.609412 536.094117a60.235294 60.235294 0 0 1-53.910589 65.957648l-6.023529 0.301176H187.030588a60.235294 60.235294 0 0 1-60.235294-60.235294l0.301177-6.02353L180.705882 421.647059l-49.935058 24.937412a60.235294 60.235294 0 0 1-86.016-42.044236L9.035294 225.882353a60.235294 60.235294 0 0 1 32.105412-65.656471l289.008941-144.564706a60.235294 60.235294 0 0 1 60.355765 3.794824L508.687059 98.183529a60.235294 60.235294 0 0 0 66.861176 0L693.729882 19.395765A60.235294 60.235294 0 0 1 754.145882 15.661176z m-26.985411 53.850353l-118.241883 78.787765a120.470588 120.470588 0 0 1-124.747294 5.421177l-8.854588-5.421177-118.241882-78.787765L68.065882 214.016l35.779765 178.718118 49.935059-24.937412A60.235294 60.235294 0 0 1 240.941176 420.984471l-0.301176 6.625882L187.030588 963.764706h710.174118l-53.609412-536.094118a60.235294 60.235294 0 0 1 80.715294-62.58447l6.144 2.710588 49.995294 24.937412 35.71953-178.718118-289.008941-144.504471z"  /><path fill="#2c2c2c" d="M390.505412 19.395765L542.117647 120.470588h60.235294L397.552941 274.070588a60.235294 60.235294 0 0 1-72.282353 0L198.415059 178.898824a60.235294 60.235294 0 0 1 9.216-102.038589L330.149647 15.661176a60.235294 60.235294 0 0 1 60.355765 3.734589zM469.775059 144.564706l-112.64-75.113412-122.578824 61.259294L361.411765 225.882353l108.363294-81.257412z"  /><path fill="#2c2c2c" d="M693.729882 19.154824L542.117647 120.229647H481.882353l204.8 153.6a60.235294 60.235294 0 0 0 72.282353 0l126.855529-95.171765a60.235294 60.235294 0 0 0-9.216-102.038588L754.085647 15.420235a60.235294 60.235294 0 0 0-60.355765 3.734589z m-79.269647 125.229176l112.64-75.113412 122.578824 61.259294L722.823529 225.641412l-108.363294-81.257412zM542.117647 361.411765a60.235294 60.235294 0 1 1 0 120.470588 60.235294 60.235294 0 0 1 0-120.470588zM542.117647 542.117647a60.235294 60.235294 0 1 1 0 120.470588 60.235294 60.235294 0 0 1 0-120.470588z"  /></svg>