<?xml version="1.0" standalone="no"?><!DOCTYPE svg PUBLIC "-//W3C//DTD SVG 1.1//EN" "http://www.w3.org/Graphics/SVG/1.1/DTD/svg11.dtd"><svg class="icon" width="200px" height="200.00px" viewBox="0 0 1024 1024" version="1.1" xmlns="http://www.w3.org/2000/svg"><path fill="#2c2c2c" d="M113.891556 104.106667c19.512889-19.569778 48.924444-24.177778 73.216-12.117334l6.485333 3.697778L328.817778 184.718222c14.904889 9.784889 24.917333 25.429333 27.875555 42.894222l0.853334 7.566223 2.673777 54.784 58.823112 62.976a28.444444 28.444444 0 0 1 1.991111 36.408889l-3.413334 3.811555a28.444444 28.444444 0 0 1-36.408889 2.048l-3.811555-3.413333L313.457778 323.128889a32.654222 32.654222 0 0 1-9.045334-16.782222l-0.568888-4.778667-3.072-63.544889a7.736889 7.736889 0 0 0-1.592889-4.323555l-1.649778-1.479112-135.054222-88.917333a6.542222 6.542222 0 0 0-6.314667-0.455111l-1.820444 1.251556-66.844445 67.925333a7.907556 7.907556 0 0 0-1.991111 7.111111l0.967111 2.389333 87.608889 137.329778a6.940444 6.940444 0 0 0 3.185778 2.730667l1.991111 0.455111 62.691555 3.128889a33.166222 33.166222 0 0 1 17.066667 5.859555l71.395556 62.748445a28.444444 28.444444 0 0 1-33.450667 45.738666l-4.152889-3.072-62.236444-54.840888-54.272-2.730667a63.488 63.488 0 0 1-45.681778-23.153778l-4.551111-6.257778L38.513778 252.017778a64.853333 64.853333 0 0 1 3.527111-74.183111l4.835555-5.575111 67.128889-68.209778zM623.957333 605.809778a28.444444 28.444444 0 0 1 36.238223-3.527111l3.982222 3.242666 14.506666 14.392889 1.422223-1.251555a61.155556 61.155556 0 0 1 79.928889-4.949334l5.745777 4.949334 155.022223 153.201777c22.129778 21.959111 23.665778 56.604444 4.721777 80.384l-4.778666 5.290667-121.628445 120.206222a60.871111 60.871111 0 0 1-79.644444 5.290667l-6.144-5.233778-154.965334-153.201778a60.131556 60.131556 0 0 1-4.551111-80.554666l5.347556-5.916445-6.656-6.599111a28.444444 28.444444 0 0 1-3.527111-36.295111l3.299555-3.982222a28.444444 28.444444 0 0 1 36.238223-3.470222l3.982222 3.242666 27.136 26.851556a28.444444 28.444444 0 0 1 3.356444 36.522667l-3.356444 3.982222-21.276445 21.048889a3.128889 3.128889 0 0 0-1.024 2.332444l0.227556 1.308445 0.796444 1.137777 154.965334 153.088c0.739556 0.739556 1.706667 1.137778 2.958222 1.137778l1.536-0.284444 1.308444-0.853334 121.628445-120.206222a3.413333 3.413333 0 0 0 0.910222-3.242667l-0.910222-1.536-154.908445-153.144888a4.266667 4.266667 0 0 0-3.982222-1.024l-1.820444 1.024-21.276445 21.048888a28.444444 28.444444 0 0 1-36.067555 3.185778l-3.982223-3.242666-34.531555-34.133334a28.444444 28.444444 0 0 1-0.227556-40.220444z"  /><path fill="#2c2c2c" d="M736.142222 28.444444a257.877333 257.877333 0 0 0-183.011555 75.776l-9.102223 9.614223a259.185778 259.185778 0 0 0-46.705777 273.464889l1.422222 3.299555-437.418667 402.659556c-43.292444 37.774222-44.032 105.472-1.422222 148.081777l22.755556 22.755556c19.342222 19.911111 46.193778 31.288889 74.24 31.459556l9.500444-0.455112c25.031111-2.275556 48.071111-13.824 64.853333-32.995555l402.147556-436.963556 8.988444 3.811556a259.242667 259.242667 0 0 0 277.447111-58.197333 258.901333 258.901333 0 0 0 54.784-285.127112 48.810667 48.810667 0 0 0-45.340444-29.525333l-6.314667 0.455111a49.208889 49.208889 0 0 0-28.216889 13.994667l-100.408888 100.408889-41.244445-41.244445 100.352-100.352a49.265778 49.265778 0 0 0-15.132444-79.985777A259.982222 259.982222 0 0 0 736.142222 28.444444z m0 56.888889l13.653334 0.455111c18.204444 1.251556 36.181333 4.892444 53.418666 10.922667l1.706667 0.682667-105.870222 105.927111a37.319111 37.319111 0 0 0 0 52.792889l68.892444 68.949333a37.319111 37.319111 0 0 0 26.339556 10.979556l5.916444-0.512a36.977778 36.977778 0 0 0 20.48-10.524445L926.72 219.022222l3.982222 12.060445a201.955556 201.955556 0 0 1-193.991111 258.673777 202.410667 202.410667 0 0 1-96.426667-24.348444l-19.456-10.524444-431.957333 469.276444a41.301333 41.301333 0 0 1-31.687111 14.506667 48.355556 48.355556 0 0 1-34.076444-14.563556l-22.926223-22.983111c-19.740444-19.740444-19.399111-49.265778-0.853333-65.422222l469.902222-432.469334-10.581333-19.512888a202.296889 202.296889 0 0 1 34.816-239.274667 201.045333 201.045333 0 0 1 130.332444-58.766222l12.344889-0.341334z"  /></svg>