<?xml version="1.0" standalone="no"?><!DOCTYPE svg PUBLIC "-//W3C//DTD SVG 1.1//EN" "http://www.w3.org/Graphics/SVG/1.1/DTD/svg11.dtd"><svg class="icon" width="200px" height="200.00px" viewBox="0 0 1024 1024" version="1.1" xmlns="http://www.w3.org/2000/svg"><path fill="#2c2c2c" d="M903.529412 240.941176v662.588236a120.470588 120.470588 0 0 1-120.470588 120.470588H240.941176a120.470588 120.470588 0 0 1-120.470588-120.470588V240.941176h783.058824z m-60.235294 60.235295H180.705882v602.352941a60.235294 60.235294 0 0 0 53.187765 59.813647L240.941176 963.764706h542.117648a60.235294 60.235294 0 0 0 59.813647-53.187765L843.294118 903.529412V301.176471z"  /><path fill="#2c2c2c" d="M843.294118 120.470588a180.705882 180.705882 0 0 1 180.404706 170.104471L1024 301.176471H0a180.705882 180.705882 0 0 1 180.705882-180.705883h662.588236z m0 60.235294H180.705882c-42.345412 0-79.570824 21.865412-101.074823 54.874353L76.378353 240.941176h871.183059l-2.590118-4.457411a120.530824 120.530824 0 0 0-92.641882-55.416471L843.294118 180.705882z"  /><path fill="#2c2c2c" d="M602.352941 0a180.705882 180.705882 0 0 1 180.404706 170.104471L783.058824 180.705882H240.941176a180.705882 180.705882 0 0 1 180.705883-180.705882h180.705882z m0 60.235294H421.647059c-42.345412 0-79.570824 21.865412-101.074824 54.874353L317.319529 120.470588h389.300706l-2.590117-4.457412a120.530824 120.530824 0 0 0-92.641883-55.41647L602.352941 60.235294zM331.294118 421.647059a30.117647 30.117647 0 0 1 30.117647 30.117647v361.411765a30.117647 30.117647 0 1 1-60.235294 0v-361.411765a30.117647 30.117647 0 0 1 30.117647-30.117647zM512 421.647059a30.117647 30.117647 0 0 1 30.117647 30.117647v361.411765a30.117647 30.117647 0 1 1-60.235294 0v-361.411765a30.117647 30.117647 0 0 1 30.117647-30.117647zM692.705882 421.647059a30.117647 30.117647 0 0 1 30.117647 30.117647v361.411765a30.117647 30.117647 0 1 1-60.235294 0v-361.411765a30.117647 30.117647 0 0 1 30.117647-30.117647z"  /></svg>