<?xml version="1.0" standalone="no"?><!DOCTYPE svg PUBLIC "-//W3C//DTD SVG 1.1//EN" "http://www.w3.org/Graphics/SVG/1.1/DTD/svg11.dtd"><svg class="icon" width="200px" height="200.00px" viewBox="0 0 1024 1024" version="1.1" xmlns="http://www.w3.org/2000/svg"><path fill="#2c2c2c" d="M512.056889 284.444444a284.444444 284.444444 0 1 1 0 568.888889 284.444444 284.444444 0 0 1 0-568.888889z m0 56.888889a227.555556 227.555556 0 1 0 0 455.111111 227.555556 227.555556 0 0 0 0-455.111111z"  /><path fill="#2c2c2c" d="M284.501333 455.111111v170.666667h-199.111111a85.333333 85.333333 0 0 1 0-170.666667h199.111111z m-56.888889 113.777778V512h-142.222222a28.444444 28.444444 0 0 0-27.989333 23.324444l-0.455111 5.12a28.444444 28.444444 0 0 0 23.324444 27.989334l5.12 0.455111h142.222222zM455.168 113.777778v113.777778l-147.342222-58.936889A28.444444 28.444444 0 0 1 318.464 113.777778h136.760889zM568.888889 113.777778v113.777778l147.342222-58.936889A28.444444 28.444444 0 0 0 705.592889 113.777778H568.888889z"  /><path fill="#2c2c2c" d="M625.777778 311.580444H398.222222l58.595556-234.382222a56.888889 56.888889 0 0 1 110.364444 0L625.777778 311.637333z m-72.874667-56.888888L512 91.136l-40.846222 163.555556h81.749333zM739.612444 455.111111v170.666667h199.111112a85.333333 85.333333 0 0 0 0-170.666667h-199.111112z m56.888889 113.777778V512h142.222223a28.444444 28.444444 0 0 1 27.989333 23.324444l0.455111 5.12a28.444444 28.444444 0 0 1-23.324444 27.989334l-5.12 0.455111h-142.222223zM626.801778 455.111111a56.888889 56.888889 0 0 1 51.996444 33.792l25.258667 56.888889A56.888889 56.888889 0 0 1 652.060444 625.777778H372.053333a56.888889 56.888889 0 0 1-51.996444-79.985778l25.258667-56.888889A56.888889 56.888889 0 0 1 397.312 455.111111h229.489778z m0 56.888889H397.312l-25.258667 56.888889h280.007111l-25.258666-56.888889z"  /><path fill="#2c2c2c" d="M455.168 455.111111a28.444444 28.444444 0 0 1 28.444444 28.444445v113.777777a28.444444 28.444444 0 1 1-56.888888 0v-113.777777a28.444444 28.444444 0 0 1 28.444444-28.444445zM568.945778 455.111111a28.444444 28.444444 0 0 1 28.444444 28.444445v113.777777a28.444444 28.444444 0 1 1-56.888889 0v-113.777777a28.444444 28.444444 0 0 1 28.444445-28.444445zM85.390222 739.555556c89.144889 0 167.708444 45.568 213.504 114.688a113.777778 113.777778 0 0 1 84.138667 169.813333L0 1024v-269.880889C26.737778 744.675556 55.466667 739.555556 85.333333 739.555556z m0 56.888888c-9.159111 0-18.204444 0.568889-27.192889 1.820445L56.888889 798.492444 56.945778 967.111111l284.444444 0.056889a56.888889 56.888889 0 0 0-43.235555-55.296l-6.371556-1.137778-25.884444-3.299555-14.392889-21.731556A198.826667 198.826667 0 0 0 85.333333 796.444444zM938.780444 739.555556a255.772444 255.772444 0 0 0-213.504 114.688 113.777778 113.777778 0 0 0-84.195555 169.813333L1024.170667 1024v-269.880889a255.601778 255.601778 0 0 0-85.333334-14.563555z m0 56.888888c9.159111 0 18.204444 0.568889 27.192889 1.820445l1.308445 0.227555L967.224889 967.111111l-284.444445 0.056889a56.888889 56.888889 0 0 1 43.235556-55.296l6.371556-1.137778 25.884444-3.299555 14.392889-21.731556A198.826667 198.826667 0 0 1 938.780444 796.444444z"  /></svg>