<?xml version="1.0" standalone="no"?><!DOCTYPE svg PUBLIC "-//W3C//DTD SVG 1.1//EN" "http://www.w3.org/Graphics/SVG/1.1/DTD/svg11.dtd"><svg class="icon" width="200px" height="187.55px" viewBox="0 0 1092 1024" version="1.1" xmlns="http://www.w3.org/2000/svg"><path fill="#2c2c2c" d="M1024 273.066667a68.266667 68.266667 0 0 1 68.266667 68.266666v614.4a68.266667 68.266667 0 0 1-68.266667 68.266667H68.266667a68.266667 68.266667 0 0 1-68.266667-68.266667V341.333333a68.266667 68.266667 0 0 1 68.266667-68.266666h955.733333z m0 68.266666H68.266667v614.4h955.733333V341.333333z"  /><path fill="#2c2c2c" d="M909.5168 0a68.266667 68.266667 0 0 1 63.351467 42.939733l100.693333 251.562667A34.133333 34.133333 0 0 1 1041.749333 341.333333H50.517333a34.133333 34.133333 0 0 1-31.744-46.830933l109.226667-273.066667A34.133333 34.133333 0 0 1 159.744 0h749.841067z m-0.068267 68.266667H182.6816l-81.92 204.8h890.6752l-81.988267-204.8zM819.2 409.6a68.266667 68.266667 0 0 1 68.266667 68.266667v68.266666a68.266667 68.266667 0 0 1-68.266667 68.266667H273.066667a68.266667 68.266667 0 0 1-68.266667-68.266667V477.866667a68.266667 68.266667 0 0 1 68.266667-68.266667h546.133333z m0 68.266667H273.066667v68.266666h546.133333V477.866667z"  /></svg>