<?xml version="1.0" standalone="no"?><!DOCTYPE svg PUBLIC "-//W3C//DTD SVG 1.1//EN" "http://www.w3.org/Graphics/SVG/1.1/DTD/svg11.dtd"><svg class="icon" width="200px" height="188.93px" viewBox="0 0 1084 1024" version="1.1" xmlns="http://www.w3.org/2000/svg"><path fill="#2c2c2c" d="M722.823529 0v240.941176l341.775059 569.645177a60.235294 60.235294 0 0 1-1.505882 64.451765l-81.438118 122.157176a60.235294 60.235294 0 0 1-50.115764 26.804706H152.696471a60.235294 60.235294 0 0 1-50.115765-26.804706L21.142588 875.038118a60.235294 60.235294 0 0 1-1.505882-64.451765L361.411765 240.941176V0h361.411764z m-60.235294 60.235294H421.647059v197.391059l-350.388706 583.981176L152.696471 963.764706h778.842353l81.438117-122.157177L662.588235 257.626353V60.235294z"  /><path fill="#2c2c2c" d="M813.176471 0a30.117647 30.117647 0 1 1 0 60.235294h-542.117647a30.117647 30.117647 0 0 1 0-60.235294h542.117647zM331.294118 722.823529a90.352941 90.352941 0 1 1 0 180.705883 90.352941 90.352941 0 0 1 0-180.705883z m0 60.235295a30.117647 30.117647 0 1 0 0 60.235294 30.117647 30.117647 0 0 0 0-60.235294zM692.705882 602.352941a150.588235 150.588235 0 1 1 0 301.176471 150.588235 150.588235 0 0 1 0-301.176471z m0 60.235294a90.352941 90.352941 0 1 0 0 180.705883 90.352941 90.352941 0 0 0 0-180.705883z"  /><path fill="#2c2c2c" d="M391.529412 632.470588m-60.235294 0a60.235294 60.235294 0 1 0 120.470588 0 60.235294 60.235294 0 1 0-120.470588 0Z"  /><path fill="#2c2c2c" d="M722.823529 331.294118a30.117647 30.117647 0 1 1 0 60.235294c-49.272471 0-87.461647 15.420235-133.541647 49.091764l-12.830117 9.637648c-6.264471 4.879059-32.647529 26.081882-39.574589 31.382588a255.578353 255.578353 0 0 1-41.562352 27.166117c-47.826824 23.973647-114.808471 23.973647-201.426824 2.288942a30.117647 30.117647 0 1 1 14.576941-58.428236c74.029176 18.492235 127.518118 18.492235 159.924706 2.288941 7.107765-3.553882 14.817882-8.432941 24.274824-15.420235l7.469176-5.601882c6.264471-4.818824 32.527059-25.901176 39.454118-31.262118C601.148235 354.906353 653.251765 331.294118 722.823529 331.294118z"  /></svg>