<?xml version="1.0" standalone="no"?><!DOCTYPE svg PUBLIC "-//W3C//DTD SVG 1.1//EN" "http://www.w3.org/Graphics/SVG/1.1/DTD/svg11.dtd"><svg class="icon" width="200px" height="177.78px" viewBox="0 0 1152 1024" version="1.1" xmlns="http://www.w3.org/2000/svg"><path fill="#2c2c2c" d="M832 896a64 64 0 0 1 0 128H320a64 64 0 0 1 0-128h512z"  /><path fill="#2c2c2c" d="M320 256v192a64 64 0 0 0 56.512 63.552L384 512h384a64 64 0 0 0 63.552-56.512L832 448V256h256a64 64 0 0 1 64 64v576a64 64 0 0 1-64 64H64a64 64 0 0 1-64-64V320a64 64 0 0 1 64-64h256z m575.872 195.712l-0.704 11.136a128 128 0 0 1-116.992 112.768L768 576l-387.712-0.128-11.136-0.704a128 128 0 0 1-112.768-116.992L256 448V320H64v576h1024V320h-192.064v131.712z"  /><path fill="#2c2c2c" d="M869.312 0c46.336 0 85.76 32.064 90.24 75.008L960 83.2v204.8h-64V83.2c0-8.32-8.448-16.768-21.056-18.752L869.312 64H282.688c-13.696 0-23.872 7.36-26.24 15.616L256 83.2v204.8H192V83.2C192 38.976 228.736 4.288 274.048 0.384L282.688 0h586.624z"  /></svg>