<?xml version="1.0" standalone="no"?><!DOCTYPE svg PUBLIC "-//W3C//DTD SVG 1.1//EN" "http://www.w3.org/Graphics/SVG/1.1/DTD/svg11.dtd"><svg class="icon" width="200px" height="200.00px" viewBox="0 0 1024 1024" version="1.1" xmlns="http://www.w3.org/2000/svg"><path fill="#2c2c2c" d="M910.222222 398.222222a113.777778 113.777778 0 0 1 113.777778 113.777778v398.222222a113.777778 113.777778 0 0 1-113.777778 113.777778H113.777778a113.777778 113.777778 0 0 1-113.777778-113.777778V512a113.777778 113.777778 0 0 1 113.777778-113.777778h796.444444z m0 56.888889H113.777778a56.888889 56.888889 0 0 0-56.490667 50.232889L56.888889 512v398.222222a56.888889 56.888889 0 0 0 50.232889 56.490667L113.777778 967.111111h796.444444a56.888889 56.888889 0 0 0 56.490667-50.232889L967.111111 910.222222V512a56.888889 56.888889 0 0 0-50.232889-56.490667L910.222222 455.111111z"  /><path fill="#2c2c2c" d="M995.555556 512a28.444444 28.444444 0 1 1 0 56.888889H28.444444a28.444444 28.444444 0 1 1 0-56.888889h967.111112zM995.555556 853.333333a28.444444 28.444444 0 1 1 0 56.888889H28.444444a28.444444 28.444444 0 1 1 0-56.888889h967.111112zM455.111111 85.333333c56.888889 56.888889 113.777778 28.444444 199.111111 0l19.683556-6.428444C706.104889 68.664889 749.909333 56.888889 796.444444 56.888889c102.798222 0 112.526222 64.910222 113.208889 103.537778 0.455111 30.947556-28.615111 80.896-46.08 108.316444L853.333333 284.444444c-56.888889 85.333333-64 135.338667-85.333333 170.666667H226.986667C113.777778 284.444444 102.798222 146.090667 113.777778 113.777778 124.814222 81.464889 172.942222 42.097778 227.555556 28.444444c104.277333-26.055111 160.768-4.323556 213.333333 43.235556L455.111111 85.333333z m-48.241778 32.426667c-47.388444-44.544-86.357333-53.930667-165.546666-34.133333-35.100444 8.760889-69.063111 34.986667-73.728 48.526222-10.126222 29.696 15.928889 137.728 81.521777 250.709333l9.102223 15.36h473.713777l16.725334-40.334222 5.404444-12.344889a653.653333 653.653333 0 0 1 51.939556-92.672c9.614222-14.392889 16.725333-25.656889 24.632889-39.708444 5.12-9.102222 9.557333-17.749333 13.198222-25.713778l4.380444-10.524445c3.072-7.964444 4.551111-13.653333 4.551111-15.530666C852.081778 124.131556 844.515556 113.777778 796.444444 113.777778c-24.405333 0-49.720889 3.925333-77.539555 11.207111l-22.186667 6.371555-67.811555 22.129778c-111.900444 35.555556-146.204444 35.157333-200.533334-14.961778l-21.504-20.707555z"  /><path fill="#2c2c2c" d="M340.593778 289.564444a28.444444 28.444444 0 0 1 36.408889 17.066667l38.968889 106.894222a28.444444 28.444444 0 0 1-53.475556 19.456l-38.912-106.951111a28.444444 28.444444 0 0 1 17.009778-36.408889zM560.184889 229.262222a28.444444 28.444444 0 0 1 23.096889 32.995556l-29.639111 168.049778a28.444444 28.444444 0 0 1-56.035556-9.898667l29.639111-168.049778a28.444444 28.444444 0 0 1 32.995556-23.096889zM696.888889 295.879111a28.444444 28.444444 0 0 1 10.410667 38.855111l-56.888889 98.531556a28.444444 28.444444 0 1 1-49.265778-28.444445l56.888889-98.531555a28.444444 28.444444 0 0 1 38.855111-10.410667z"  /></svg>