<?xml version="1.0" standalone="no"?><!DOCTYPE svg PUBLIC "-//W3C//DTD SVG 1.1//EN" "http://www.w3.org/Graphics/SVG/1.1/DTD/svg11.dtd"><svg class="icon" width="200px" height="177.78px" viewBox="0 0 1152 1024" version="1.1" xmlns="http://www.w3.org/2000/svg"><path fill="#2c2c2c" d="M704 128a448 448 0 1 1 0 896 448 448 0 0 1 0-896z m0 64a384 384 0 1 0 0 768 384 384 0 0 0 0-768z"  /><path fill="#2c2c2c" d="M416 0a160 160 0 0 1 159.488 146.752A448 448 0 1 1 256.256 591.36L256 576V256H0C0 70.016 60.032 4.096 151.04 0.192L160 0h256zM161.344 64l-7.488 0.128c-48.32 2.112-77.568 33.344-86.72 122.112L66.56 192H320v382.912l0.192 14.336a384 384 0 1 0 295.04-386.944l-21.376 5.76-75.712 22.784-6.464-78.848a96 96 0 0 0-86.912-87.616L416 64H161.344z"  /><path fill="#2c2c2c" d="M160 0c92.992 0 155.968 60.032 159.808 238.4L320 256H0c0-192 64-256 160-256z m0 64c-52.864 0-83.648 30.464-92.992 122.752L66.56 192h186.816l-0.384-5.248c-8.96-88.256-37.504-120-86.208-122.56L160 64zM704 384a192 192 0 1 1 0 384 192 192 0 0 1 0-384z m0 64a128 128 0 1 0 0 256 128 128 0 0 0 0-256z"  /></svg>