<?xml version="1.0" standalone="no"?><!DOCTYPE svg PUBLIC "-//W3C//DTD SVG 1.1//EN" "http://www.w3.org/Graphics/SVG/1.1/DTD/svg11.dtd"><svg class="icon" width="200px" height="200.00px" viewBox="0 0 1024 1024" version="1.1" xmlns="http://www.w3.org/2000/svg"><path fill="#2c2c2c" d="M910.222222 0a56.888889 56.888889 0 0 1 56.888889 56.888889v910.222222a56.888889 56.888889 0 0 1-56.888889 56.888889H113.777778a56.888889 56.888889 0 0 1-56.888889-56.888889V56.888889a56.888889 56.888889 0 0 1 56.888889-56.888889h796.444444z m0 56.888889H113.777778v910.222222h796.444444V56.888889z"  /><path fill="#2c2c2c" d="M967.111111 227.555556v56.888888H56.888889V227.555556zM512 341.333333a284.444444 284.444444 0 1 1 0 568.888889A284.444444 284.444444 0 0 1 512 341.333333z m0 56.888889a227.555556 227.555556 0 1 0 0 455.111111 227.555556 227.555556 0 0 0 0-455.111111z"  /><path fill="#2c2c2c" d="M264.305778 605.639111c83.968-83.911111 174.364444-86.812444 258.787555-8.647111l9.045334 8.647111c64.739556 64.796444 122.538667 64.796444 187.278222 0a28.444444 28.444444 0 0 1 40.277333 40.277333c-83.968 83.911111-174.364444 86.812444-258.787555 8.647112l-9.045334-8.647112c-64.739556-64.796444-122.538667-64.796444-187.278222 0a28.444444 28.444444 0 0 1-40.277333-40.277333zM426.666667 113.777778a28.444444 28.444444 0 0 1 0 56.888889h-227.555556a28.444444 28.444444 0 0 1 0-56.888889h227.555556z"  /><path fill="#2c2c2c" d="M711.111111 113.777778a28.444444 28.444444 0 1 1 0 56.888889 28.444444 28.444444 0 0 1 0-56.888889z m113.777778 0a28.444444 28.444444 0 1 1 0 56.888889 28.444444 28.444444 0 0 1 0-56.888889z"  /></svg>