<?xml version="1.0" standalone="no"?><!DOCTYPE svg PUBLIC "-//W3C//DTD SVG 1.1//EN" "http://www.w3.org/Graphics/SVG/1.1/DTD/svg11.dtd"><svg class="icon" width="200px" height="200.00px" viewBox="0 0 1024 1024" version="1.1" xmlns="http://www.w3.org/2000/svg"><path fill="#2c2c2c" d="M274.123093 835.242667a56.888889 56.888889 0 0 1 0 80.440889l-40.220444 40.220444a113.777778 113.777778 0 0 1-160.938667 0l-40.220444-40.220444a113.777778 113.777778 0 0 1 0-160.881778l40.220444-40.220445a56.888889 56.888889 0 0 1 80.497778 0l120.661333 120.661334z m-40.220444 40.220444L113.241316 754.801778l-40.277334 40.220444a56.888889 56.888889 0 0 0-4.380444 75.491556l4.380444 4.949333 40.277334 40.220445a56.888889 56.888889 0 0 0 75.491555 4.437333l4.949333-4.437333 40.220445-40.220445zM998.204871 513.422222a56.888889 56.888889 0 0 1 0 80.440889l-201.159111 201.159111a56.888889 56.888889 0 0 1-80.440889 0L233.902649 312.32a56.888889 56.888889 0 0 1 0-80.497778L435.004871 30.72a56.888889 56.888889 0 0 1 80.497778 0l482.702222 482.702222z m-40.220444 40.220445L475.282204 70.940444 274.123093 272.042667l482.702223 482.759111 201.159111-201.159111z"  /><path fill="#2c2c2c" d="M937.84576 694.442667a85.333333 85.333333 0 0 1 5.575111 114.574222l-5.575111 6.087111-160.881778 160.938667a85.333333 85.333333 0 0 1-114.574222 5.518222l-6.087111-5.518222-281.6-281.6a28.444444 28.444444 0 0 0-36.295111-3.299556l-3.982222 3.299556-100.522667 100.579555-40.220445-40.220444L294.26176 654.222222a85.333333 85.333333 0 0 1 114.574222-5.518222l6.087111 5.518222 281.6 281.6a28.444444 28.444444 0 0 0 36.238223 3.299556l3.982222-3.299556 160.881778-160.938666a28.444444 28.444444 0 0 0 3.299555-36.295112l-3.299555-3.925333-60.302223-60.302222 40.220445-40.277333 60.302222 60.359111z"  /></svg>