<?xml version="1.0" standalone="no"?><!DOCTYPE svg PUBLIC "-//W3C//DTD SVG 1.1//EN" "http://www.w3.org/Graphics/SVG/1.1/DTD/svg11.dtd"><svg class="icon" width="200px" height="188.93px" viewBox="0 0 1084 1024" version="1.1" xmlns="http://www.w3.org/2000/svg"><path fill="#2c2c2c" d="M203.535059 302.08a30.117647 30.117647 0 0 1 19.757176 56.621176l-5.180235 1.807059-68.848941 17.227294 312.801882 312.801883 165.466353-27.52753a30.117647 30.117647 0 0 1 30.238118 13.312l2.409412 4.517647 90.352941 210.82353a30.117647 30.117647 0 0 1-16.865883 39.996235l-4.939294 1.385412-301.17647 60.235294a30.117647 30.117647 0 0 1-22.588236-4.457412l-4.638117-3.734588-391.529412-391.529412a30.117647 30.117647 0 0 1-8.673882-24.274823l1.024-5.300706 60.235294-210.82353a30.117647 30.117647 0 0 1 16.624941-19.275294l5.059765-1.686588 120.470588-30.117647zM105.231059 418.876235l-41.321412 144.564706 367.616 367.616 248.952471-49.814588-66.379294-154.925177-157.394824 26.202353a30.117647 30.117647 0 0 1-21.805176-4.758588l-4.457412-3.614117-325.210353-325.270589zM475.979294 0.602353a30.117647 30.117647 0 0 1 20.540235 3.192471l4.457412 3.011764 331.294118 271.058824 2.048 1.807059 1.807059 1.987764 3.011764 4.336941 0.361412 0.783059 0.602353 0.90353 90.352941 180.705882a30.117647 30.117647 0 0 1-12.468706 39.936l-4.939294 2.108235-271.058823 90.352942a30.117647 30.117647 0 0 1-24.696471-2.529883l-4.276706-3.011765-391.529412-331.294117a30.117647 30.117647 0 0 1-9.396705-31.683765l1.927529-4.818823 90.352941-180.705883a30.117647 30.117647 0 0 1 15.721412-14.45647L325.391059 30.72l150.588235-30.117647zM339.546353 110.953412l-61.138824 122.277647 360.508236 305.031529 222.087529-74.029176-64.512-129.024-128 25.6a30.117647 30.117647 0 0 1-20.299294-3.072l-4.397176-2.95153-301.176471-240.941176-3.072-2.891294z m134.324706-48.549647L394.541176 78.305882l275.877648 220.641883 74.330352-14.878118-270.878117-221.665882zM958.825412 572.656941l-180.705883 30.117647a30.117647 30.117647 0 0 0-25.178353 29.696V843.294118a30.117647 30.117647 0 0 0 36.623059 29.394823l271.058824-60.235294a30.117647 30.117647 0 0 0 20.48-42.887529l-90.352941-180.705883a30.117647 30.117647 0 0 0-31.924706-16.263529z m-12.107294 63.066353l63.186823 126.253177-196.72847 43.730823v-147.757176l133.541647-22.226824z"  /><path fill="#2c2c2c" d="M660.901647 301.176471l5.421177 0.240941a30.117647 30.117647 0 0 1 26.322823 28.190117l-0.180706 5.421177-30.117647 240.941176a30.117647 30.117647 0 0 1-59.934118-2.048l0.180706-5.421176 30.117647-240.941177a30.117647 30.117647 0 0 1 28.190118-26.322823zM455.499294 692.946824a30.117647 30.117647 0 0 1 26.322824 28.190117l-0.180706 5.421177-30.117647 240.941176a30.117647 30.117647 0 0 1-59.934118-2.048l0.180706-5.421176 30.117647-240.941177a30.117647 30.117647 0 0 1 28.190118-26.322823l5.421176 0.180706z"  /></svg>