<?xml version="1.0" standalone="no"?><!DOCTYPE svg PUBLIC "-//W3C//DTD SVG 1.1//EN" "http://www.w3.org/Graphics/SVG/1.1/DTD/svg11.dtd"><svg class="icon" width="200px" height="177.78px" viewBox="0 0 1152 1024" version="1.1" xmlns="http://www.w3.org/2000/svg"><path fill="#2c2c2c" d="M576 0c318.08 0 576 157.568 576 352S894.08 704 576 704 0 546.432 0 352 257.92 0 576 0z m0 64C288.64 64 64 201.28 64 352S288.64 640 576 640s512-137.28 512-288S863.36 64 576 64z"  /><path fill="#2c2c2c" d="M1152 320v384c0 176.704-257.92 320-576 320-311.744 0-565.632-137.6-575.68-309.44L0 704V320c106.688 213.312 298.688 320 576 320 269.44 0 458.24-100.672 566.656-301.952L1152 320z m-64 198.848l-5.312 5.376C959.68 643.84 789.568 704 576 704c-213.504 0-383.68-60.16-506.688-179.776L64 518.912V704c0 128.32 214.656 250.432 492.928 255.808L576 960c281.088 0 502.016-119.232 511.68-247.232L1088 704V518.848z"  /><path fill="#2c2c2c" d="M576 155.456c212.096 0 384 85.952 384 192 0 105.984-171.904 192-384 192s-384-86.016-384-192c0-106.048 171.904-192 384-192z m0 64c-181.248 0-320 69.312-320 128 0 58.624 138.752 128 320 128s320-69.376 320-128c0-58.688-138.752-128-320-128z"  /></svg>