<?xml version="1.0" standalone="no"?><!DOCTYPE svg PUBLIC "-//W3C//DTD SVG 1.1//EN" "http://www.w3.org/Graphics/SVG/1.1/DTD/svg11.dtd"><svg class="icon" width="200px" height="200.00px" viewBox="0 0 1024 1024" version="1.1" xmlns="http://www.w3.org/2000/svg"><path fill="#2c2c2c" d="M796.444444 227.555556v113.777777a227.555556 227.555556 0 0 1 227.555556 227.555556v398.222222a56.888889 56.888889 0 0 1-56.888889 56.888889H56.888889a56.888889 56.888889 0 0 1-56.888889-56.888889v-398.222222a227.555556 227.555556 0 0 1 216.177778-227.271111L227.555556 341.333333V227.555556h568.888888z m-56.888888 56.888888H284.444444v56.888889a56.888889 56.888889 0 0 1-48.981333 56.32L228.977778 398.222222l-10.012445 0.227556a170.666667 170.666667 0 0 0-161.792 160.426666L56.888889 568.888889v398.222222h910.222222v-398.222222a170.666667 170.666667 0 0 0-170.666667-170.666667 56.888889 56.888889 0 0 1-56.490666-50.232889L739.555556 341.333333V284.444444z"  /><path fill="#2c2c2c" d="M796.444444 0a56.888889 56.888889 0 0 1 56.888889 56.888889v170.666667a56.888889 56.888889 0 0 1-56.888889 56.888888H227.555556a56.888889 56.888889 0 0 1-56.888889-56.888888V56.888889a56.888889 56.888889 0 0 1 56.888889-56.888889h568.888888z m0 56.888889H227.555556v170.666667h568.888888V56.888889zM796.444444 512a56.888889 56.888889 0 0 1 56.888889 56.888889v227.555555a56.888889 56.888889 0 0 1-56.888889 56.888889H227.555556a56.888889 56.888889 0 0 1-56.888889-56.888889v-227.555555a56.888889 56.888889 0 0 1 56.888889-56.888889h568.888888z m0 56.888889H227.555556v227.555555h568.888888v-227.555555z"  /></svg>