<?xml version="1.0" standalone="no"?><!DOCTYPE svg PUBLIC "-//W3C//DTD SVG 1.1//EN" "http://www.w3.org/Graphics/SVG/1.1/DTD/svg11.dtd"><svg class="icon" width="200px" height="200.00px" viewBox="0 0 1024 1024" version="1.1" xmlns="http://www.w3.org/2000/svg"><path fill="#2c2c2c" d="M827.850238 605.43647a56.848495 56.848495 0 0 1 0 80.326924L506.315151 1007.355329a56.848495 56.848495 0 0 1-80.383772 0l-401.918859-401.918859a56.848495 56.848495 0 0 1 0-80.44062L345.43391 203.403915a56.848495 56.848495 0 0 1 80.383772 0l401.975707 401.975707z m-40.191886 40.135038l-401.918859-401.918859L64.03386 565.130888l401.975708 401.975707 321.591935-321.591936z"  /><path fill="#2c2c2c" d="M928.358376 545.120217a85.272742 85.272742 0 0 1-120.575657 120.518809L365.615126 223.58513a85.272742 85.272742 0 0 1 120.518809-120.632506l442.28129 442.224442z m-40.191885 40.191886L445.998897 143.14451a28.424247 28.424247 0 0 0-43.489098 36.212491l3.297213 3.979395 442.167593 442.167593a28.424247 28.424247 0 0 0 43.489098-36.26934l-3.297212-3.979394zM445.998897 464.679597a28.424247 28.424247 0 1 1-40.191885 40.191886L244.98262 344.103939a28.424247 28.424247 0 1 1 40.191885-40.191885L446.055746 464.679597zM325.42324 585.312103a28.424247 28.424247 0 1 1-40.248735 40.191886L124.406962 464.679597a28.424247 28.424247 0 1 1 40.191886-40.191886l160.824392 160.824392z"  /><path fill="#2c2c2c" d="M988.67463 42.636371a113.69699 113.69699 0 0 1 0 160.767544l-13.700488 13.757335a341.261515 341.261515 0 0 1-56.848495 377.928794l-9.834789 10.289578-482.416328-482.359479a341.204666 341.204666 0 0 1 388.27522-66.683285l13.700488-13.700487a113.69699 113.69699 0 0 1 160.824392 0z m-40.191886 40.191886a56.848495 56.848495 0 0 0-75.437953-4.434183l-4.945819 4.377335-42.124735 42.238431-36.326188-17.338791a284.469868 284.469868 0 0 0-273.725503 15.747033l-5.571152 3.638304 393.789524 393.846373 3.297212-4.888971a284.640414 284.640414 0 0 0 21.431883-262.696895l-5.230062-11.653941-17.281942-36.212492 42.067886-42.238431a56.848495 56.848495 0 0 0 0-80.383772z"  /></svg>