<?xml version="1.0" standalone="no"?><!DOCTYPE svg PUBLIC "-//W3C//DTD SVG 1.1//EN" "http://www.w3.org/Graphics/SVG/1.1/DTD/svg11.dtd"><svg class="icon" width="200px" height="177.78px" viewBox="0 0 1152 1024" version="1.1" xmlns="http://www.w3.org/2000/svg"><path fill="#2c2c2c" d="M896 0a64 64 0 0 1 64 64v128l192 192v576a64 64 0 0 1-64 64H64a64 64 0 0 1-64-64V384l192-192V64a64 64 0 0 1 64-64h640z m0 64H256v154.496l-192 192V960h1024V410.56l-192-192V64z"  /><path fill="#2c2c2c" d="M928 192a32 32 0 0 1 27.648 48.192l-3.072 4.288-160 192a32 32 0 0 1-18.944 11.008L768 448H64a32 32 0 0 1-5.76-63.488L64 384h688.896l106.688-128H224a32 32 0 0 1-31.488-26.24L192 224a32 32 0 0 1 26.24-31.488L224 192h704zM287.744 896v-251.904h2.048L397.312 896h51.712l107.52-251.904h2.048V896h59.904V530.432H548.352l-123.904 286.72H422.4l-124.416-286.72H227.84V896z"  /><path fill="#2c2c2c" d="M832 384v608h-64V384z"  /></svg>