<?xml version="1.0" standalone="no"?><!DOCTYPE svg PUBLIC "-//W3C//DTD SVG 1.1//EN" "http://www.w3.org/Graphics/SVG/1.1/DTD/svg11.dtd"><svg class="icon" width="200px" height="200.00px" viewBox="0 0 1024 1024" version="1.1" xmlns="http://www.w3.org/2000/svg"><path fill="#2c2c2c" d="M692.705882 180.705882a240.941176 240.941176 0 0 1 240.941177 240.941177v481.882353a120.470588 120.470588 0 0 1-120.470588 120.470588H210.823529a120.470588 120.470588 0 0 1-120.470588-120.470588V421.647059a240.941176 240.941176 0 0 1 240.941177-240.941177h361.411764z m0 60.235294H331.294118a180.705882 180.705882 0 0 0-180.404706 170.104471L150.588235 421.647059v481.882353a60.235294 60.235294 0 0 0 53.187765 59.813647L210.823529 963.764706h602.352942a60.235294 60.235294 0 0 0 59.813647-53.187765L873.411765 903.529412V421.647059a180.705882 180.705882 0 0 0-170.104471-180.404706L692.705882 240.941176z"  /><path fill="#2c2c2c" d="M451.764706 421.647059a60.235294 60.235294 0 0 1 60.235294 60.235294v180.705882a60.235294 60.235294 0 0 1-60.235294 60.235294H150.588235a60.235294 60.235294 0 0 1-60.235294-60.235294V481.882353a60.235294 60.235294 0 0 1 60.235294-60.235294h301.176471z m0 60.235294H150.588235v180.705882h301.176471V481.882353zM632.470588 0a120.470588 120.470588 0 0 1 120.470588 120.470588v60.235294a60.235294 60.235294 0 0 1-60.235294 60.235294H331.294118a60.235294 60.235294 0 0 1-60.235294-60.235294V120.470588a120.470588 120.470588 0 0 1 120.470588-120.470588h240.941176z m0 60.235294H391.529412a60.235294 60.235294 0 0 0-59.813647 53.187765L331.294118 120.470588v60.235294h361.411764V120.470588a60.235294 60.235294 0 0 0-53.187764-59.813647L632.470588 60.235294z"  /></svg>