<?xml version="1.0" standalone="no"?><!DOCTYPE svg PUBLIC "-//W3C//DTD SVG 1.1//EN" "http://www.w3.org/Graphics/SVG/1.1/DTD/svg11.dtd"><svg class="icon" width="200px" height="200.00px" viewBox="0 0 1024 1024" version="1.1" xmlns="http://www.w3.org/2000/svg"><path fill="#2c2c2c" d="M512 0a512 512 0 1 1 0 1024A512 512 0 0 1 512 0z m0 56.888889a455.111111 455.111111 0 1 0 0 910.222222A455.111111 455.111111 0 0 0 512 56.888889z"  /><path fill="#2c2c2c" d="M512 113.777778a398.222222 398.222222 0 1 1 0 796.444444A398.222222 398.222222 0 0 1 512 113.777778z m0 56.888889a341.333333 341.333333 0 1 0 0 682.666666A341.333333 341.333333 0 0 0 512 170.666667z"  /><path fill="#2c2c2c" d="M512 398.222222a113.777778 113.777778 0 1 1 0 227.555556 113.777778 113.777778 0 0 1 0-227.555556z m0 56.888889a56.888889 56.888889 0 1 0 0 113.777778 56.888889 56.888889 0 0 0 0-113.777778zM512 199.111111a28.444444 28.444444 0 0 1 27.989333 23.324445L540.444444 227.555556v113.777777a28.444444 28.444444 0 0 1-56.433777 5.12L483.555556 341.333333V227.555556a28.444444 28.444444 0 0 1 28.444444-28.444445zM512 654.222222a28.444444 28.444444 0 0 1 27.989333 23.324445L540.444444 682.666667v113.777777a28.444444 28.444444 0 0 1-56.433777 5.12L483.555556 796.444444v-113.777777a28.444444 28.444444 0 0 1 28.444444-28.444445zM199.111111 512a28.444444 28.444444 0 0 1 23.324445-27.989333L227.555556 483.555556h113.777777a28.444444 28.444444 0 0 1 5.12 56.433777L341.333333 540.444444H227.555556a28.444444 28.444444 0 0 1-28.444445-28.444444zM654.222222 512a28.444444 28.444444 0 0 1 23.324445-27.989333L682.666667 483.555556h113.777777a28.444444 28.444444 0 0 1 5.12 56.433777L796.444444 540.444444h-113.777777a28.444444 28.444444 0 0 1-28.444445-28.444444zM281.031111 281.031111a28.444444 28.444444 0 0 1 36.238222-3.356444l3.982223 3.299555L401.635556 361.472a28.444444 28.444444 0 0 1-36.295112 43.52l-3.982222-3.299556L281.031111 321.194667a28.444444 28.444444 0 0 1 0-40.220445zM622.364444 622.364444a28.444444 28.444444 0 0 1 36.238223-3.356444l3.982222 3.299556 80.440889 80.497777a28.444444 28.444444 0 0 1-36.295111 43.52l-3.982223-3.299555-80.440888-80.497778a28.444444 28.444444 0 0 1 0-40.220444zM281.031111 742.968889a28.444444 28.444444 0 0 1-3.356444-36.238222l3.299555-3.982223 80.497778-80.440888a28.444444 28.444444 0 0 1 43.52 36.295111l-3.299556 3.982222-80.497777 80.440889a28.444444 28.444444 0 0 1-40.220445 0zM622.364444 401.635556a28.444444 28.444444 0 0 1-3.356444-36.238223l3.299556-3.982222 80.497777-80.440889a28.444444 28.444444 0 0 1 43.52 36.295111l-3.299555 3.982223-80.497778 80.440888a28.444444 28.444444 0 0 1-40.220444 0z"  /></svg>