<?xml version="1.0" standalone="no"?><!DOCTYPE svg PUBLIC "-//W3C//DTD SVG 1.1//EN" "http://www.w3.org/Graphics/SVG/1.1/DTD/svg11.dtd"><svg class="icon" width="200px" height="188.93px" viewBox="0 0 1084 1024" version="1.1" xmlns="http://www.w3.org/2000/svg"><path fill="#2c2c2c" d="M662.588235 0a60.235294 60.235294 0 0 1 60.235294 60.235294v60.235294h60.235295a60.235294 60.235294 0 0 1 60.235294 60.235294v240.941177a60.235294 60.235294 0 0 1-60.235294 60.235294h-60.235295v60.235294a60.235294 60.235294 0 0 1-60.235294 60.235294H60.235294a60.235294 60.235294 0 0 1-60.235294-60.235294V60.235294a60.235294 60.235294 0 0 1 60.235294-60.235294h602.352941z m0 60.235294H60.235294v481.882353h602.352941V481.882353a60.235294 60.235294 0 0 1 53.187765-59.813647L722.823529 421.647059h60.235295V180.705882h-60.235295a60.235294 60.235294 0 0 1-59.813647-53.187764L662.588235 120.470588V60.235294z"  /><path fill="#2c2c2c" d="M1054.117647 240.941176a30.117647 30.117647 0 1 1 0 60.235295h-240.941176a30.117647 30.117647 0 1 1 0-60.235295h240.941176zM1054.117647 843.294118a30.117647 30.117647 0 1 1 0 60.235294h-542.117647a30.117647 30.117647 0 1 1 0-60.235294h542.117647z"  /><path fill="#2c2c2c" d="M1054.117647 240.941176a30.117647 30.117647 0 0 1 30.117647 30.117648v602.352941a30.117647 30.117647 0 1 1-60.235294 0v-602.352941a30.117647 30.117647 0 0 1 30.117647-30.117648zM361.411765 120.470588a180.705882 180.705882 0 1 1 0 361.411765 180.705882 180.705882 0 0 1 0-361.411765z m0 60.235294a120.470588 120.470588 0 1 0 0 240.941177 120.470588 120.470588 0 0 0 0-240.941177z"  /><path fill="#2c2c2c" d="M455.378824 207.209412a30.117647 30.117647 0 0 1 0 42.526117L370.266353 334.968471a30.117647 30.117647 0 0 1-42.586353-42.586353l85.232941-85.232942a30.117647 30.117647 0 0 1 42.586353 0zM271.058824 662.588235C371.471059 763.000471 421.647059 843.294118 421.647059 903.529412c0 90.352941-67.463529 120.470588-150.588235 120.470588S120.470588 993.882353 120.470588 903.529412c0-60.235294 50.176-140.528941 150.588236-240.941177z m0 87.521883l-3.734589 4.096C208.896 820.284235 180.705882 871.484235 180.705882 903.529412c0 43.068235 24.816941 60.235294 90.352942 60.235294S361.411765 946.597647 361.411765 903.529412c0-30.057412-24.756706-76.920471-76.016941-137.09553l-14.336-16.323764zM481.882353 632.470588l17.106823 21.263059c28.732235 37.104941 43.128471 64.150588 43.128471 81.136941 0 30.117647-26.985412 48.188235-60.235294 48.188236s-60.235294-18.070588-60.235294-48.188236c0-20.058353 20.058353-54.211765 60.235294-102.4z"  /></svg>