<?xml version="1.0" standalone="no"?><!DOCTYPE svg PUBLIC "-//W3C//DTD SVG 1.1//EN" "http://www.w3.org/Graphics/SVG/1.1/DTD/svg11.dtd"><svg class="icon" width="200px" height="177.78px" viewBox="0 0 1152 1024" version="1.1" xmlns="http://www.w3.org/2000/svg"><path fill="#2c2c2c" d="M415.99298 479.9919v63.99892c-72.062784 0-127.99784 44.799244-127.99784 95.99838 0 48.639179 50.495148 91.518456 117.31002 95.678386l10.68782 0.319994v63.99892c-104.638234 0-191.99676-69.886821-191.99676-159.9973 0-86.782536 80.958634-154.813388 180.476955-159.741304L415.99298 479.9919z"  /><path fill="#2c2c2c" d="M767.98704 0c27.391538 0 55.295067 6.591889 83.006599 19.519671 24.063594 11.199811 48.191187 27.327539 71.550793 47.871192 41.407301 36.351387 81.726621 87.614522 116.542033 148.221499 34.36742 60.350982 61.63096 124.861893 81.150631 192.124757 21.119644 72.31878 31.743464 142.589594 31.743464 208.764478 0 67.710857-9.919833 128.637829-29.503502 181.244941a340.090261 340.090261 0 0 1-85.758553 131.261785 334.586354 334.586354 0 0 1-125.181887 73.342762A457.080287 457.080287 0 0 1 767.98704 1023.98272c-51.839125 0-100.15831-7.295877-143.549577-21.631635A335.482339 335.482339 0 0 1 499.191576 929.008323a340.922247 340.922247 0 0 1-85.758553-131.261785C394.041351 745.139426 383.99352 684.148455 383.99352 616.501597c0-66.046885 10.623821-136.3177 31.743464-208.764478a892.144945 892.144945 0 0 1 81.086632-192.124757c34.751414-60.542978 75.070733-111.934111 116.478035-148.285498a306.170833 306.170833 0 0 1 71.614791-47.807193c27.711532-12.927782 55.67906-19.519671 83.006599-19.519671z m0 63.99892c-17.7917 0-36.479384 4.415925-56.063054 13.439773a242.875901 242.875901 0 0 0-56.319049 38.015359c-35.839395 31.359471-71.870787 77.246696-103.166259 131.773776-31.807463 55.999055-57.151036 115.838045-75.26273 178.36499C457.784275 492.343692 447.99244 556.598607 447.99244 616.501597c0 60.158985 8.767852 113.726081 25.47157 158.845319 15.99973 42.879276 39.359336 78.718672 69.566826 107.006194 27.967528 26.239557 62.014953 46.143221 101.502288 59.263A393.593358 393.593358 0 0 0 767.98704 959.9838c45.247236 0 86.782536-6.271894 123.453917-18.36769a270.84343 270.84343 0 0 0 101.566286-59.326999c30.079492-28.159525 53.439098-63.99892 69.438828-106.878196 16.831716-45.119239 25.535569-98.558337 25.535569-158.909318 0-59.902989-9.791835-124.157905-29.183507-190.908779a827.698033 827.698033 0 0 0-75.198731-178.108994c-31.42347-54.783076-67.454862-100.542303-103.294257-132.029772a240.507941 240.507941 0 0 0-56.383049-37.95136A132.029772 132.029772 0 0 0 767.923041 63.99892z"  /><path fill="#2c2c2c" d="M400.377244 255.99568c35.647398 0 70.718807 4.479924 104.446237 13.247777l20.15966 5.759902-19.199676 61.05497A351.674066 351.674066 0 0 0 400.377244 319.9946C214.268384 319.9946 63.99892 463.608177 63.99892 639.9892s150.269464 319.9946 336.378324 319.9946c50.239152 0 98.814333-10.495823 143.165584-30.335488l16.383723-7.935866 29.247507 56.959039c-57.599028 29.6315-122.04594 45.311235-188.796814 45.311235C179.58097 1023.98272 0 852.401616 0 639.9892s179.58097-383.99352 400.377244-383.99352zM991.98326 671.98866a31.99946 31.99946 0 0 1 31.99946 31.99946 191.99676 191.99676 0 0 1-191.99676 191.99676 31.99946 31.99946 0 1 1 0-63.99892 127.99784 127.99784 0 0 0 127.99784-127.99784 31.99946 31.99946 0 0 1 31.99946-31.99946z"  /></svg>