<?xml version="1.0" standalone="no"?><!DOCTYPE svg PUBLIC "-//W3C//DTD SVG 1.1//EN" "http://www.w3.org/Graphics/SVG/1.1/DTD/svg11.dtd"><svg class="icon" width="200px" height="200.00px" viewBox="0 0 1024 1024" version="1.1" xmlns="http://www.w3.org/2000/svg"><path fill="#2c2c2c" d="M581.461333 284.444444a56.888889 56.888889 0 0 1 44.373334 21.219556c121.912889 151.665778 199.793778 277.333333 233.642666 377.002667 31.061333 91.591111 34.816 190.520889 11.377778 296.732444a56.888889 56.888889 0 0 1-55.580444 44.600889H153.372444a56.888889 56.888889 0 0 1-56.206222-48.241778C84.423111 893.098667 87.608889 795.420444 106.837333 682.666667a1543.168 1543.168 0 0 1 110.023111-364.259556A56.888889 56.888889 0 0 1 268.913778 284.444444H581.404444zM268.913778 341.333333l-14.677334 34.531556a1477.233778 1477.233778 0 0 0-91.363555 316.302222c-16.782222 98.929778-20.650667 184.661333-11.946667 257.137778l2.446222 17.806222h661.902223c21.333333-96.369778 17.92-184.718222-9.671111-266.183111-29.809778-87.779556-98.986667-201.272889-207.530667-338.773333L581.404444 341.333333H268.913778z"  /><path fill="#2c2c2c" d="M455.111111 455.111111a199.111111 199.111111 0 1 1 0 398.222222 199.111111 199.111111 0 0 1 0-398.222222z m0 56.888889a142.222222 142.222222 0 1 0 0 284.444444 142.222222 142.222222 0 0 0 0-284.444444zM540.444444 170.666667a56.888889 56.888889 0 0 1 56.888889 56.888889v56.888888a56.888889 56.888889 0 0 1-56.888889 56.888889H312.888889a56.888889 56.888889 0 0 1-56.888889-56.888889V227.555556a56.888889 56.888889 0 0 1 56.888889-56.888889h227.555555z m0 56.888889H312.888889v56.888888h227.555555V227.555556z"  /><path fill="#2c2c2c" d="M590.620444 0a28.444444 28.444444 0 0 1 12.743112 3.015111l92.046222 46.023111a28.444444 28.444444 0 0 1 15.701333 25.429334V142.222222a28.444444 28.444444 0 0 1-28.444444 28.444445H597.333333L540.444444 227.555556H256V142.222222H184.263111a28.444444 28.444444 0 0 1-26.453333-39.025778l34.133333-85.333333A28.444444 28.444444 0 0 1 218.453333 0h372.224z m-6.712888 56.888889H237.568l-11.377778 28.444444H256a56.888889 56.888889 0 0 1 56.490667 50.232889L312.888889 142.222222V170.666667h203.889778l40.334222-40.220445a56.888889 56.888889 0 0 1 32.768-16.156444L597.333333 113.777778h56.888889v-21.731556L583.850667 56.888889z"  /><path fill="#2c2c2c" d="M686.08 219.249778a28.444444 28.444444 0 1 1-40.163556 40.220444L565.418667 178.972444a28.444444 28.444444 0 1 1 40.220444-40.220444l80.497778 80.497778z"  /></svg>