<?xml version="1.0" standalone="no"?><!DOCTYPE svg PUBLIC "-//W3C//DTD SVG 1.1//EN" "http://www.w3.org/Graphics/SVG/1.1/DTD/svg11.dtd"><svg class="icon" width="200px" height="200.00px" viewBox="0 0 1024 1024" version="1.1" xmlns="http://www.w3.org/2000/svg"><path fill="#2c2c2c" d="M654.222222 284.444444a56.888889 56.888889 0 0 1 56.888889 56.888889v625.777778a56.888889 56.888889 0 0 1-56.888889 56.888889H85.333333a56.888889 56.888889 0 0 1-56.888889-56.888889V341.333333a56.888889 56.888889 0 0 1 56.888889-56.888889h568.888889z m0 56.888889H85.333333v625.777778h568.888889V341.333333z"  /><path fill="#2c2c2c" d="M483.555556 113.777778a56.888889 56.888889 0 0 1 56.888888 56.888889v113.777777a56.888889 56.888889 0 0 1-56.888888 56.888889H256a56.888889 56.888889 0 0 1-56.888889-56.888889V170.666667a56.888889 56.888889 0 0 1 56.888889-56.888889h227.555556z m0 56.888889H256v113.777777h227.555556V170.666667z"  /><path fill="#2c2c2c" d="M426.666667 0a56.888889 56.888889 0 0 1 56.888889 56.888889v56.888889a56.888889 56.888889 0 0 1-56.888889 56.888889H312.888889a56.888889 56.888889 0 0 1-56.888889-56.888889V56.888889a56.888889 56.888889 0 0 1 56.888889-56.888889h113.777778z m0 56.888889H312.888889v56.888889h113.777778V56.888889zM369.777778 398.222222c94.264889 0 170.666667 114.631111 170.666666 256S464.042667 910.222222 369.777778 910.222222s-170.666667-114.631111-170.666667-256S275.512889 398.222222 369.777778 398.222222z m0 56.888889c-56.832 0-113.777778 85.447111-113.777778 199.111111S312.945778 853.333333 369.777778 853.333333c56.832 0 113.777778-85.447111 113.777778-199.111111S426.609778 455.111111 369.777778 455.111111z"  /><path fill="#2c2c2c" d="M540.444444 0a28.444444 28.444444 0 0 1 16.725334 5.404444l3.413333 2.901334 56.888889 56.888889a28.444444 28.444444 0 0 1-36.295111 43.52l-3.982222-3.242667L528.668444 56.888889H170.666667a28.444444 28.444444 0 0 1-27.989334-23.324445L142.222222 28.444444a28.444444 28.444444 0 0 1 23.324445-27.989333L170.666667 0H540.444444zM739.555556 113.777778a85.333333 85.333333 0 1 1 0 170.666666 85.333333 85.333333 0 0 1 0-170.666666z m0 56.888889a28.444444 28.444444 0 1 0 0 56.888889 28.444444 28.444444 0 0 0 0-56.888889zM881.777778 284.444444a113.777778 113.777778 0 1 1 0 227.555556 113.777778 113.777778 0 0 1 0-227.555556z m0 56.888889a56.888889 56.888889 0 1 0 0 113.777778 56.888889 56.888889 0 0 0 0-113.777778z"  /></svg>