<?xml version="1.0" standalone="no"?><!DOCTYPE svg PUBLIC "-//W3C//DTD SVG 1.1//EN" "http://www.w3.org/Graphics/SVG/1.1/DTD/svg11.dtd"><svg class="icon" width="200px" height="200.00px" viewBox="0 0 1024 1024" version="1.1" xmlns="http://www.w3.org/2000/svg"><path fill="#2c2c2c" d="M910.222222 0a56.888889 56.888889 0 0 1 56.888889 56.888889v910.222222a56.888889 56.888889 0 0 1-56.888889 56.888889H113.777778a56.888889 56.888889 0 0 1-56.888889-56.888889V540.444444A28.444444 28.444444 0 0 1 85.333333 512h290.076445a28.444444 28.444444 0 0 0 27.761778-22.300444L507.050667 22.300444A28.444444 28.444444 0 0 1 534.812444 0H910.222222zM458.695111 502.044444a85.333333 85.333333 0 0 1-75.377778 66.503112l-7.964444 0.341333H113.777778v398.222222h796.444444V56.888889H557.624889L458.695111 502.044444z"  /><path fill="#2c2c2c" d="M796.444444 284.444444a56.888889 56.888889 0 0 1 56.888889 56.888889v398.222223a56.888889 56.888889 0 0 1-56.888889 56.888888h-56.888888a56.888889 56.888889 0 0 1-56.888889-56.888888V341.333333a56.888889 56.888889 0 0 1 56.888889-56.888889h56.888888z m0 56.888889h-56.888888v398.222223h56.888888V341.333333zM312.888889 398.222222A85.333333 85.333333 0 0 1 398.222222 483.555556V568.888889H56.888889V483.555556A85.333333 85.333333 0 0 1 142.222222 398.222222h170.666667z m0 56.888889h-170.666667a28.444444 28.444444 0 0 0-27.989333 23.324445L113.777778 483.555556V512h227.555555v-28.444444a28.444444 28.444444 0 0 0-23.324444-27.989334L312.888889 455.111111zM227.555556 0c113.777778 97.336889 170.666667 182.670222 170.666666 256C398.222222 365.966222 321.820444 398.222222 227.555556 398.222222s-170.666667-32.256-170.666667-142.222222C56.888889 182.670222 113.777778 97.336889 227.555556 0z m0 76.401778l-1.877334 1.820444C149.902222 150.186667 113.777778 210.602667 113.777778 256 113.777778 318.577778 145.976889 341.333333 227.555556 341.333333c81.578667 0 113.777778-22.755556 113.777777-85.333333 0-42.894222-32.199111-99.100444-99.612444-165.888L227.555556 76.401778z"  /></svg>