<?xml version="1.0" standalone="no"?><!DOCTYPE svg PUBLIC "-//W3C//DTD SVG 1.1//EN" "http://www.w3.org/Graphics/SVG/1.1/DTD/svg11.dtd"><svg class="icon" width="200px" height="199.80px" viewBox="0 0 1025 1024" version="1.1" xmlns="http://www.w3.org/2000/svg"><path fill="#2c2c2c" d="M117.636518 141.131294C282.319812-23.491765 558.799812-13.974588 735.228988 162.454588c176.429176 176.429176 185.946353 452.969412 21.323294 617.592471-164.683294 164.623059-441.223529 155.105882-617.652706-21.323294C-37.469365 582.294588-47.046776 305.754353 117.696753 141.131294z m42.586353 42.586353C19.754165 324.186353 28.0064 562.597647 181.546165 716.197647c153.479529 153.479529 391.951059 161.671529 532.359529 21.263059 140.468706-140.468706 132.276706-378.88-21.263059-532.48C539.102871 51.561412 300.691576 43.309176 160.222871 183.717647z"  /><path fill="#2c2c2c" d="M568.256753 102.038588l59.211294-10.962823c25.298824 137.095529-30.358588 294.671059-147.817412 412.129882-109.628235 109.628235-254.313412 165.466353-384.903529 151.672471l-15.540706-1.987765 8.914824-59.572706c114.808471 17.227294 247.988706-31.744 348.943058-132.758588C536.9344 360.809412 585.724988 229.677176 570.485459 116.133647l-2.288941-14.095059zM808.475106 642.891294a60.235294 60.235294 0 0 1 73.547294-9.035294l86.558118 51.922824a60.235294 60.235294 0 0 1 0 103.303529l-126.85553 76.137412-76.137412 126.855529a60.235294 60.235294 0 0 1-103.303529 0l-51.922823-86.558118a60.235294 60.235294 0 0 1 9.035294-73.547294l189.078588-189.078588z m42.586353 42.646588l-189.078588 189.018353 51.922823 86.558118 83.907765-139.745882 139.745882-83.907765-86.497882-51.922824z"  /><path fill="#2c2c2c" d="M202.809224 226.304a120.470588 120.470588 0 1 1 170.405647 170.405647 120.470588 120.470588 0 0 1-170.405647-170.405647z m42.586352 42.586353A60.235294 60.235294 0 1 0 330.568282 354.183529 60.235294 60.235294 0 0 0 245.395576 268.890353zM814.619106 130.831059a90.352941 90.352941 0 0 1 89.931294 81.618823l0.421647 8.734118v180.705882a30.117647 30.117647 0 0 1-59.753412 5.421177L844.736753 401.829647v-180.705882a30.117647 30.117647 0 0 0-24.696471-29.635765l-5.421176-0.481882h-120.470588a30.117647 30.117647 0 0 1-5.421177-59.753412l5.421177-0.481882h120.470588z"  /></svg>