<?xml version="1.0" standalone="no"?><!DOCTYPE svg PUBLIC "-//W3C//DTD SVG 1.1//EN" "http://www.w3.org/Graphics/SVG/1.1/DTD/svg11.dtd"><svg class="icon" width="200px" height="200.00px" viewBox="0 0 1024 1024" version="1.1" xmlns="http://www.w3.org/2000/svg"><path fill="#2c2c2c" d="M963.764706 421.647059a60.235294 60.235294 0 0 1 60.235294 60.235294v210.823529a271.058824 271.058824 0 0 1-271.058824 271.058824h-13.372235a60.235294 60.235294 0 0 1-60.235294 60.235294H344.666353a60.235294 60.235294 0 0 1-59.813647-53.187765L284.431059 963.764706H271.058824A271.058824 271.058824 0 0 1 0 692.705882V481.882353a60.235294 60.235294 0 0 1 60.235294-60.235294h903.529412zM344.545882 960.271059l0.120471 3.493647h334.667294l0.421647-7.04753a60.235294 60.235294 0 0 1 52.766118-52.766117l7.047529-0.421647h13.372235a210.823529 210.823529 0 0 0 210.522353-199.258353L963.764706 692.705882V481.882353H60.235294v210.823529a210.823529 210.823529 0 0 0 199.258353 210.522353L271.058824 903.529412h13.372235a60.235294 60.235294 0 0 1 59.392 49.995294l0.783059 6.746353zM993.882353 120.470588a30.117647 30.117647 0 1 1 0 60.235294h-361.411765a30.117647 30.117647 0 1 1 0-60.235294h361.411765zM993.882353 240.941176a30.117647 30.117647 0 1 1 0 60.235295h-361.411765a30.117647 30.117647 0 1 1 0-60.235295h361.411765z"  /><path fill="#2c2c2c" d="M1024 602.352941v60.235294H0v-60.235294zM566.573176 1.505882a25.780706 25.780706 0 0 1 26.864942 6.144c7.228235 7.168 10.420706 18.010353 8.252235 28.310589a28.672 28.672 0 0 1-18.793412 21.684705c-29.515294 10.059294-42.526118 26.322824-43.730823 53.187765l-0.060236 4.035765v191.969882C539.105882 378.699294 507.422118 421.647059 448.933647 421.647059 433.874824 421.647059 421.647059 408.455529 421.647059 392.131765c0-16.263529 12.227765-29.394824 27.286588-29.394824 24.335059 0 34.816-12.950588 35.538824-51.2l0.12047-4.698353V114.928941c0-56.018824 29.033412-95.533176 81.92-113.423059z m-180.705882 0a25.780706 25.780706 0 0 1 26.864941 6.144c7.228235 7.168 10.420706 18.010353 8.252236 28.310589a28.672 28.672 0 0 1-18.793412 21.684705c-29.515294 10.059294-42.526118 26.322824-43.730824 53.187765l-0.060235 4.035765v191.969882C358.4 378.699294 326.716235 421.647059 268.227765 421.647059 253.168941 421.647059 240.941176 408.455529 240.941176 392.131765c0-16.263529 12.227765-29.394824 27.286589-29.394824 24.335059 0 34.816-12.950588 35.538823-51.2l0.120471-4.698353V114.928941c0-56.018824 29.033412-95.533176 81.92-113.423059zM232.026353 7.649882c7.228235 7.168 10.420706 18.010353 8.252235 28.310589a28.672 28.672 0 0 1-18.793412 21.684705c-29.515294 10.059294-42.526118 26.322824-43.730823 53.187765l-0.060235 4.035765v191.969882C177.694118 378.699294 146.010353 421.647059 87.521882 421.647059 72.463059 421.647059 60.235294 408.455529 60.235294 392.131765c0-16.263529 12.227765-29.394824 27.286588-29.394824 24.335059 0 34.816-12.950588 35.538824-51.2l0.12047-4.698353V114.928941c0-56.018824 29.033412-95.533176 81.92-113.423059a25.780706 25.780706 0 0 1 26.925177 6.144zM30.117647 240.941176a30.117647 30.117647 0 1 1 0 60.235295 30.117647 30.117647 0 0 1 0-60.235295z m0-120.470588a30.117647 30.117647 0 1 1 0 60.235294 30.117647 30.117647 0 0 1 0-60.235294z"  /></svg>