<?xml version="1.0" standalone="no"?><!DOCTYPE svg PUBLIC "-//W3C//DTD SVG 1.1//EN" "http://www.w3.org/Graphics/SVG/1.1/DTD/svg11.dtd"><svg class="icon" width="200px" height="188.41px" viewBox="0 0 1087 1024" version="1.1" xmlns="http://www.w3.org/2000/svg"><path fill="#2c2c2c" d="M645.590844 19.392044c62.58801 42.557287 119.672371 90.874207 174.132899 147.574592 195.891512 204.338973 296.557094 454.051054 261.231346 638.551292-10.879306 53.884565-35.389744 102.137489-68.027663 136.183319-51.708704 56.764381-122.424195 82.298753-206.770818 82.298753-119.736367 0-266.671-53.948561-405.414155-158.90187h-2.751825l-2.687829-2.879816A1611.737252 1611.737252 0 0 1 267.438951 748.817543C85.114574 552.926031-20.990662 311.661412 3.519776 130.104986 8.959429 87.547699 33.40587 53.437873 71.483443 36.414959a112.63282 112.63282 0 0 1 102.393472 2.81582l9.215413 5.759633C287.341682 112.890083 384.167509 113.082071 478.241512 50.622053l12.287217-8.511458c5.439653-2.81582 10.879306-8.511457 16.318959-14.207094a114.808681 114.808681 0 0 1 138.743156-8.511457z m-41.789336 49.788826a49.916818 49.916818 0 0 0-49.468847 3.1358l-4.927686 3.583771-2.559836 2.751825c-5.759633 5.759633-10.239347 9.791376-15.359021 13.439143l-6.975556 4.287727-9.4074 6.59158c-112.63282 75.515186-232.689166 77.115084-354.537398 3.391783l-14.079103-8.895433a49.148867 49.148867 0 0 0-48.828887-2.559836c-17.342894 7.67951-28.030213 22.398572-30.718041 43.709213-21.310641 157.877935 74.747235 381.159701 245.104374 564.252029 31.741976 30.846034 61.436083 58.108296 89.594289 81.978774l19.518755 16.190968h1.087931l17.086911 12.991172C564.060041 908.423368 697.939506 960.00408 806.156608 960.00408c69.755553 0 122.04022-20.286707 160.629759-62.58801 24.254454-25.342384 42.941262-62.716002 51.324728-103.993371 31.102017-162.229658-62.716002-392.486979-244.592407-582.170886a1020.734928 1020.734928 0 0 0-138.871147-121.336265l-24.446441-17.150907-6.399592-3.583771z"  /><path fill="#2c2c2c" d="M200.691206 235.890242a31.99796 31.99796 0 0 1 45.245116-1.151927c33.72585 31.99796 98.105746 53.308602 170.03716 53.308602 69.755553 0 132.471555-19.966727 167.093347-50.620773a31.99796 31.99796 0 0 1 42.429296 47.932944C578.139144 327.276416 500.256109 352.042837 415.973482 352.042837c-87.162443 0-167.349331-26.494311-214.130349-70.907479a31.99796 31.99796 0 0 1-1.151927-45.245116z"  /></svg>