<?xml version="1.0" standalone="no"?><!DOCTYPE svg PUBLIC "-//W3C//DTD SVG 1.1//EN" "http://www.w3.org/Graphics/SVG/1.1/DTD/svg11.dtd"><svg class="icon" width="200px" height="200.00px" viewBox="0 0 1024 1024" version="1.1" xmlns="http://www.w3.org/2000/svg"><path fill="#2c2c2c" d="M38.513778 2.161778L943.388444 52.337778A85.333333 85.333333 0 0 1 1024 137.671111V625.777778a56.888889 56.888889 0 0 1-56.888889 56.888889h-56.888889a56.888889 56.888889 0 0 1-56.888889-56.888889V227.555556l-51.2 717.198222A85.333333 85.333333 0 0 1 716.970667 1024h-466.488889a85.333333 85.333333 0 0 1-85.105778-79.644444L113.777778 170.666667 46.762667 125.952a56.888889 56.888889 0 0 1-23.665778-33.564444L9.386667 37.489778a28.444444 28.444444 0 0 1 29.127111-35.271111z m901.688889 107.064889L73.955556 61.098667l4.380444 17.521777 67.072 44.714667a56.888889 56.888889 0 0 1 24.348444 36.977778l0.853334 6.542222 51.541333 773.688889a28.444444 28.444444 0 0 0 23.495111 26.168889l4.892445 0.398222h466.488889a28.444444 28.444444 0 0 0 27.648-21.617778l0.739555-4.778666 51.2-717.198223c5.063111-70.542222 106.325333-69.347556 113.265778-3.299555L910.222222 227.555556v398.222222h56.888889V137.614222a28.444444 28.444444 0 0 0-21.959111-27.704889l-4.892444-0.682666z"  /><path fill="#2c2c2c" d="M768 568.888889a28.444444 28.444444 0 1 1 0 56.888889h-113.777778a28.444444 28.444444 0 1 1 0-56.888889h113.777778zM881.777778 227.555556a28.444444 28.444444 0 1 1 0 56.888888h-227.555556a28.444444 28.444444 0 1 1 0-56.888888h227.555556zM768 341.333333a28.444444 28.444444 0 1 1 0 56.888889h-56.888889a28.444444 28.444444 0 1 1 0-56.888889h56.888889zM768 455.111111a28.444444 28.444444 0 1 1 0 56.888889h-56.888889a28.444444 28.444444 0 1 1 0-56.888889h56.888889zM768 682.666667a28.444444 28.444444 0 1 1 0 56.888889h-56.888889a28.444444 28.444444 0 1 1 0-56.888889h56.888889zM768 796.444444a28.444444 28.444444 0 1 1 0 56.888889h-56.888889a28.444444 28.444444 0 1 1 0-56.888889h56.888889zM253.44 199.224889a28.444444 28.444444 0 0 1 29.980444 20.707555l0.910223 5.063112 28.444444 312.888888a28.444444 28.444444 0 0 1-55.751111 10.183112l-0.910222-5.063112-28.444445-312.888888a28.444444 28.444444 0 0 1 25.770667-30.890667z"  /></svg>