<?xml version="1.0" standalone="no"?><!DOCTYPE svg PUBLIC "-//W3C//DTD SVG 1.1//EN" "http://www.w3.org/Graphics/SVG/1.1/DTD/svg11.dtd"><svg class="icon" width="200px" height="188.93px" viewBox="0 0 1084 1024" version="1.1" xmlns="http://www.w3.org/2000/svg"><path fill="#2c2c2c" d="M1054.117647 963.764706a30.117647 30.117647 0 1 1 0 60.235294H30.117647a30.117647 30.117647 0 1 1 0-60.235294h1024zM512 120.470588a30.117647 30.117647 0 0 1 0 60.235294h-421.647059a30.117647 30.117647 0 0 1 0-60.235294h421.647059z"  /><path fill="#2c2c2c" d="M150.588235 0a30.117647 30.117647 0 0 1 30.117647 30.117647v963.764706a30.117647 30.117647 0 1 1-60.235294 0V30.117647a30.117647 30.117647 0 0 1 30.117647-30.117647zM481.882353 0h240.941176l0.481883 186.006588c0.301176 43.730824 0.783059 69.089882 1.445647 76.197647A361.532235 361.532235 0 0 1 602.352941 963.764706a361.411765 361.411765 0 0 1-361.411765-361.411765c0-153.6 92.340706-284.912941 227.328-337.197176L481.882353 260.216471V0z m180.705882 60.175059H542.117647v243.109647l-40.779294 13.914353C381.711059 357.978353 301.176471 471.160471 301.176471 602.352941a301.176471 301.176471 0 1 0 415.683764-278.64847l-12.528941-4.818824-36.141176-13.010823-3.433412-38.309648c-1.204706-13.071059-1.807059-65.897412-2.048-164.261647L662.588235 60.175059z"  /><path fill="#2c2c2c" d="M752.941176 0a30.117647 30.117647 0 1 1 0 60.235294h-301.17647a30.117647 30.117647 0 0 1 0-60.235294h301.17647zM481.882353 421.647059a120.470588 120.470588 0 1 1 0 240.941176 120.470588 120.470588 0 0 1 0-240.941176z m0 60.235294a60.235294 60.235294 0 1 0 0 120.470588 60.235294 60.235294 0 0 0 0-120.470588zM692.705882 662.588235a90.352941 90.352941 0 1 1 0 180.705883 90.352941 90.352941 0 0 1 0-180.705883z m0 60.235294a30.117647 30.117647 0 1 0 0 60.235295 30.117647 30.117647 0 0 0 0-60.235295z"  /><path fill="#2c2c2c" d="M391.529412 481.882353a30.117647 30.117647 0 0 1 0 60.235294H301.176471V481.882353h90.352941zM903.529412 481.882353v60.235294H572.235294a30.117647 30.117647 0 0 1 0-60.235294H903.529412z"  /></svg>