<?xml version="1.0" standalone="no"?><!DOCTYPE svg PUBLIC "-//W3C//DTD SVG 1.1//EN" "http://www.w3.org/Graphics/SVG/1.1/DTD/svg11.dtd"><svg class="icon" width="200px" height="200.00px" viewBox="0 0 1024 1024" version="1.1" xmlns="http://www.w3.org/2000/svg"><path fill="#2c2c2c" d="M227.555556 568.888889a227.555556 227.555556 0 1 1 0 455.111111 227.555556 227.555556 0 0 1 0-455.111111z m0 56.888889a170.666667 170.666667 0 1 0 0 341.333333 170.666667 170.666667 0 0 0 0-341.333333z"  /><path fill="#2c2c2c" d="M227.555556 682.666667a113.777778 113.777778 0 1 1 0 227.555555 113.777778 113.777778 0 0 1 0-227.555555z m0 56.888889a56.888889 56.888889 0 1 0 0 113.777777 56.888889 56.888889 0 0 0 0-113.777777zM796.444444 568.888889a227.555556 227.555556 0 1 1 0 455.111111 227.555556 227.555556 0 0 1 0-455.111111z m0 56.888889a170.666667 170.666667 0 1 0 0 341.333333 170.666667 170.666667 0 0 0 0-341.333333z"  /><path fill="#2c2c2c" d="M796.444444 682.666667a113.777778 113.777778 0 1 1 0 227.555555 113.777778 113.777778 0 0 1 0-227.555555z m0 56.888889a56.888889 56.888889 0 1 0 0 113.777777 56.888889 56.888889 0 0 0 0-113.777777zM205.368889 56.32a227.555556 227.555556 0 0 0 0 321.763556l402.318222 402.318222c16.497778-50.631111 41.472-92.672 74.979556-126.179556 33.564444-33.564444 75.548444-58.538667 126.179555-74.979555l-563.2-563.2-40.220444 40.277333z m505.173333 505.059556l-8.931555 5.404444a342.471111 342.471111 0 0 0-106.382223 106.382222l-5.347555 8.874667-344.234667-344.177778a170.666667 170.666667 0 0 1-6.883555-234.040889l6.883555-7.281778 464.952889 464.839112z"  /><path fill="#2c2c2c" d="M818.631111 56.32a227.555556 227.555556 0 0 1 0 321.763556l-402.318222 402.318222c-16.497778-50.631111-41.472-92.672-74.979556-126.179556-33.564444-33.564444-75.548444-58.538667-126.179555-74.979555l563.2-563.2 40.220444 40.277333zM313.457778 561.436444l8.931555 5.347556a342.471111 342.471111 0 0 1 106.382223 106.382222l5.347555 8.931556 344.234667-344.177778a170.666667 170.666667 0 0 0 6.883555-234.097778l-6.883555-7.281778L313.457778 561.436444z"  /><path fill="#2c2c2c" d="M512 455.111111a56.888889 56.888889 0 1 1 0 113.777778 56.888889 56.888889 0 0 1 0-113.777778z"  /></svg>