<?xml version="1.0" standalone="no"?><!DOCTYPE svg PUBLIC "-//W3C//DTD SVG 1.1//EN" "http://www.w3.org/Graphics/SVG/1.1/DTD/svg11.dtd"><svg class="icon" width="200px" height="177.78px" viewBox="0 0 1152 1024" version="1.1" xmlns="http://www.w3.org/2000/svg"><path fill="#2c2c2c" d="M992 256a32 32 0 1 1 0 64h-128a32 32 0 1 1 0-64h128z"  /><path fill="#2c2c2c" d="M1088 128a64 64 0 0 1 64 64v768a64 64 0 0 1-64 64H64a64 64 0 0 1-64-64V192a64 64 0 0 1 64-64h1024z m0 64H64v768h1024V192z"  /><path fill="#2c2c2c" d="M800 0A96 96 0 0 1 896 96V128a64 64 0 0 1-64 64H320a64 64 0 0 1-64-64v-32A96 96 0 0 1 352 0h448z m0 64h-448a32 32 0 0 0-31.488 26.24L320 96V128h512v-32a32 32 0 0 0-26.24-31.488L800 64zM576 256a320 320 0 1 1 0 640A320 320 0 0 1 576 256z m0 64a256 256 0 1 0 0 512 256 256 0 0 0 0-512z"  /><path fill="#2c2c2c" d="M576 352a32 32 0 0 1 0 64A160 160 0 0 0 416 576a32 32 0 0 1-64 0A224 224 0 0 1 576 352z"  /></svg>