<?xml version="1.0" standalone="no"?><!DOCTYPE svg PUBLIC "-//W3C//DTD SVG 1.1//EN" "http://www.w3.org/Graphics/SVG/1.1/DTD/svg11.dtd"><svg class="icon" width="200px" height="200.00px" viewBox="0 0 1024 1024" version="1.1" xmlns="http://www.w3.org/2000/svg"><path fill="#2c2c2c" d="M914.773333 341.333333a56.888889 56.888889 0 0 1 56.661334 52.167111l47.445333 568.888889a56.888889 56.888889 0 0 1-51.996444 61.44l-4.721778 0.170667h-331.434667a56.888889 56.888889 0 0 1-56.888889-56.888889l0.170667-4.721778 47.445333-568.888889A56.888889 56.888889 0 0 1 678.115556 341.333333h236.657777z m47.388445 625.777778L914.773333 398.222222H678.115556l-47.388445 568.888889h331.434667zM359.708444 227.555556a56.888889 56.888889 0 0 1 52.792889 35.783111L512 512v455.111111a56.888889 56.888889 0 0 1-56.888889 56.888889H56.888889a56.888889 56.888889 0 0 1-56.888889-56.888889V512l99.498667-248.661333A56.888889 56.888889 0 0 1 152.291556 227.555556h207.416888z m0 56.888888H152.291556L56.888889 522.865778V967.111111h398.222222V523.036444L359.708444 284.444444z"  /><path fill="#2c2c2c" d="M398.222222 455.111111a113.777778 113.777778 0 0 1 113.493334 105.244445L512 568.888889v227.555555a56.888889 56.888889 0 0 1-56.888889 56.888889H341.333333a56.888889 56.888889 0 0 1-56.888889-56.888889v-227.555555l0.284445-8.533333A113.777778 113.777778 0 0 1 398.222222 455.111111z m0 56.888889c-27.534222 0-50.744889 19.626667-55.751111 44.259556l-0.853333 6.257777L341.333333 568.888889v227.555555h113.777778v-225.450666l-0.170667-6.428445A56.888889 56.888889 0 0 0 398.222222 512zM341.333333 0a56.888889 56.888889 0 0 1 56.888889 56.888889v56.888889a56.888889 56.888889 0 0 1-56.888889 56.888889H170.666667a56.888889 56.888889 0 0 1-56.888889-56.888889V56.888889a56.888889 56.888889 0 0 1 56.888889-56.888889h170.666666z m0 56.888889H170.666667v56.888889h170.666666V56.888889zM881.777778 113.777778A85.333333 85.333333 0 0 1 967.111111 199.111111V227.555556a56.888889 56.888889 0 0 1-56.888889 56.888888h-227.555555a56.888889 56.888889 0 0 1-56.888889-56.888888v-28.444445A85.333333 85.333333 0 0 1 711.111111 113.777778h170.666667z m0 56.888889h-170.666667a28.444444 28.444444 0 0 0-27.989333 23.324444L682.666667 199.111111V227.555556h227.555555v-28.444445a28.444444 28.444444 0 0 0-23.324444-27.989333L881.777778 170.666667zM954.368 657.237333a28.444444 28.444444 0 0 1 29.809778 48.184889l-4.323556 2.673778-62.919111 31.459556a142.222222 142.222222 0 0 1-117.077333 4.551111l-10.126222-4.551111-12.003556-6.030223a85.333333 85.333333 0 0 0-68.152889-3.527111l-8.192 3.527111-62.862222 31.459556a28.444444 28.444444 0 0 1-29.809778-48.184889l4.323556-2.673778L675.953778 682.666667a142.222222 142.222222 0 0 1 117.077333-4.551111l10.126222 4.551111 12.003556 6.030222a85.333333 85.333333 0 0 0 68.152889 3.527111l8.192-3.527111 62.862222-31.459556z"  /><path fill="#2c2c2c" d="M768 768m-56.888889 0a56.888889 56.888889 0 1 0 113.777778 0 56.888889 56.888889 0 1 0-113.777778 0Z"  /><path fill="#2c2c2c" d="M768 881.777778m-56.888889 0a56.888889 56.888889 0 1 0 113.777778 0 56.888889 56.888889 0 1 0-113.777778 0Z"  /><path fill="#2c2c2c" d="M881.777778 824.888889m-56.888889 0a56.888889 56.888889 0 1 0 113.777778 0 56.888889 56.888889 0 1 0-113.777778 0Z"  /></svg>