<?xml version="1.0" standalone="no"?><!DOCTYPE svg PUBLIC "-//W3C//DTD SVG 1.1//EN" "http://www.w3.org/Graphics/SVG/1.1/DTD/svg11.dtd"><svg class="icon" width="200px" height="200.00px" viewBox="0 0 1024 1024" version="1.1" xmlns="http://www.w3.org/2000/svg"><path fill="#2c2c2c" d="M1002.927158 277.881263a53.894737 53.894737 0 0 1 2.694737 76.153263l-404.372211 433.583158a53.894737 53.894737 0 0 1-76.153263 2.694737L249.155368 533.018947a53.894737 53.894737 0 0 1-2.640842-76.207158L650.832842 23.228632a53.894737 53.894737 0 0 1 76.153263-2.640843l275.941053 257.293474z m-36.756211 39.397053l-275.941052-257.293474-404.318316 433.583158 275.941053 257.293474 404.318315-433.583158z"  /><path fill="#2c2c2c" d="M384.053895 879.831579a53.894737 53.894737 0 0 0 66.074947 5.820632l151.120842-98.034527-354.735158-330.805895-87.255579 157.642106a53.894737 53.894737 0 0 0 10.401685 65.482105l214.393263 199.949474z m36.75621-39.397053l-214.393263-199.949473 53.786947-97.172211 253.844211 236.597895-93.237895 60.523789z"  /><path fill="#2c2c2c" d="M68.069053 806.265263a53.894737 53.894737 0 0 0 5.928421 4.796632l223.339789 155.594105a53.894737 53.894737 0 0 0 70.224842-7.437474l78.362948-84.075789-275.887158-257.293474-104.663579 112.208842a53.894737 53.894737 0 0 0 2.694737 76.207158z m36.75621-39.450947l67.907369-72.757895 197.039157 183.781053-41.606736 44.624842-223.33979-155.648zM657.785263 197.901474a26.947368 26.947368 0 0 1 1.347369 38.049684L512.107789 393.647158a26.947368 26.947368 0 0 1-39.450947-36.756211l147.024842-157.696a26.947368 26.947368 0 0 1 38.103579-1.293473z"  /></svg>