<?xml version="1.0" standalone="no"?><!DOCTYPE svg PUBLIC "-//W3C//DTD SVG 1.1//EN" "http://www.w3.org/Graphics/SVG/1.1/DTD/svg11.dtd"><svg class="icon" width="200px" height="200.00px" viewBox="0 0 1024 1024" version="1.1" xmlns="http://www.w3.org/2000/svg"><path fill="#2c2c2c" d="M796.444444 0a227.555556 227.555556 0 0 1 146.204445 401.976889c15.815111 43.349333 24.462222 89.941333 24.462222 138.467555 0 235.633778-203.776 426.666667-455.111111 426.666667s-455.111111-191.032889-455.111111-426.666667c0-48.526222 8.647111-95.118222 24.519111-138.524444a227.555556 227.555556 0 1 1 347.192889-280.974222 485.091556 485.091556 0 0 1 166.855111 0A227.271111 227.271111 0 0 1 796.444444 0z m0 56.888889c-60.074667 0-114.574222 31.288889-145.237333 81.123555l-5.518222 9.557334-19.342222 36.465778-40.618667-7.054223a430.421333 430.421333 0 0 0-129.194667-2.730666l-18.090666 2.730666-40.675556 7.111111-19.342222-36.408888a170.666667 170.666667 0 1 0-269.084445 202.922666l8.590223 7.68 30.663111 25.6-13.767111 37.546667A345.144889 345.144889 0 0 0 113.777778 540.444444C113.777778 743.822222 291.271111 910.222222 512 910.222222s398.222222-166.4 398.222222-369.777778c0-35.157333-5.290667-69.575111-15.530666-102.570666l-5.518223-16.327111-13.710222-37.546667 30.606222-25.6A170.666667 170.666667 0 0 0 796.444444 56.888889z"  /><path fill="#2c2c2c" d="M512 113.777778c251.335111 0 455.111111 191.032889 455.111111 426.666666 0 235.633778-203.776 426.666667-455.111111 426.666667s-455.111111-191.032889-455.111111-426.666667C56.888889 304.810667 260.664889 113.777778 512 113.777778z m0 56.888889C291.271111 170.666667 113.777778 337.066667 113.777778 540.444444S291.271111 910.222222 512 910.222222s398.222222-166.4 398.222222-369.777778S732.728889 170.666667 512 170.666667zM113.777778 796.444444a113.777778 113.777778 0 1 1 0 227.555556 113.777778 113.777778 0 0 1 0-227.555556z m0 56.888889a56.888889 56.888889 0 1 0 0 113.777778 56.888889 56.888889 0 0 0 0-113.777778z"  /><path fill="#2c2c2c" d="M910.222222 796.444444a113.777778 113.777778 0 1 1 0 227.555556 113.777778 113.777778 0 0 1 0-227.555556z m0 56.888889a56.888889 56.888889 0 1 0 0 113.777778 56.888889 56.888889 0 0 0 0-113.777778zM341.333333 398.222222a56.888889 56.888889 0 1 1 0 113.777778 56.888889 56.888889 0 0 1 0-113.777778zM682.666667 398.222222a56.888889 56.888889 0 1 1 0 113.777778 56.888889 56.888889 0 0 1 0-113.777778z"  /><path fill="#2c2c2c" d="M512 455.111111c157.070222 0 284.444444 89.144889 284.444444 199.111111S669.070222 853.333333 512 853.333333s-284.444444-89.144889-284.444444-199.111111S354.929778 455.111111 512 455.111111z m0 56.888889c-129.137778 0-227.555556 68.892444-227.555556 142.222222S382.862222 796.444444 512 796.444444s227.555556-68.892444 227.555556-142.222222S641.137778 512 512 512z"  /><path fill="#2c2c2c" d="M512 568.888889a56.888889 56.888889 0 1 1 0 113.777778 56.888889 56.888889 0 0 1 0-113.777778z"  /><path fill="#2c2c2c" d="M628.792889 641.479111a28.444444 28.444444 0 0 1 50.858667 25.486222C646.826667 732.558222 586.695111 768 512 768c-74.695111 0-134.826667-35.441778-167.651556-101.034667a28.444444 28.444444 0 1 1 50.858667-25.486222C418.190222 687.445333 458.353778 711.111111 512 711.111111c53.589333 0 93.866667-23.665778 116.792889-69.632z"  /><path fill="#2c2c2c" d="M512 625.777778a28.444444 28.444444 0 0 1 28.444444 28.444444v56.888889a28.444444 28.444444 0 1 1-56.888888 0v-56.888889A28.444444 28.444444 0 0 1 512 625.777778z"  /></svg>