<?xml version="1.0" standalone="no"?><!DOCTYPE svg PUBLIC "-//W3C//DTD SVG 1.1//EN" "http://www.w3.org/Graphics/SVG/1.1/DTD/svg11.dtd"><svg class="icon" width="200px" height="200.00px" viewBox="0 0 1024 1024" version="1.1" xmlns="http://www.w3.org/2000/svg"><path fill="#2c2c2c" d="M762.481778 124.131556a28.444444 28.444444 0 0 1 3.299555 36.295111l-3.299555 3.982222a28.444444 28.444444 0 0 0 0 40.163555l40.220444 40.220445a28.444444 28.444444 0 0 0 36.295111 3.299555l3.925334-3.299555a28.444444 28.444444 0 0 1 40.220444 0l80.440889 80.497778a142.222222 142.222222 0 0 1 0 201.102222l-60.302222 60.302222a56.888889 56.888889 0 0 1-80.497778 0l-402.204444-402.204444a56.888889 56.888889 0 0 1 0-80.497778l60.302222-60.302222a142.222222 142.222222 0 0 1 201.159111 0l80.440889 80.440889z m94.264889 178.915555a85.390222 85.390222 0 0 1-88.177778-12.515555l-6.087111-5.518223-40.220445-40.220444a85.333333 85.333333 0 0 1-18.033777-94.264889l1.365333-2.844444-63.829333-63.772445a85.333333 85.333333 0 0 0-114.574223-5.518222l-6.087111 5.518222-60.302222 60.302222 402.204444 402.318223 60.359112-60.359112a85.333333 85.333333 0 0 0 5.575111-114.574222l-5.575111-6.087111-63.829334-63.886222-2.844444 1.422222z"  /><path fill="#2c2c2c" d="M782.563556 466.033778a56.888889 56.888889 0 0 1 0 80.497778l-402.204445 402.204444a113.777778 113.777778 0 0 1-160.995555 0L58.538667 787.911111a113.777778 113.777778 0 0 1 0-160.881778L460.8 224.711111a56.888889 56.888889 0 0 1 80.497778 0l241.322666 241.322667z m-40.220445 40.220444L501.020444 264.931556l-402.261333 402.204444a56.888889 56.888889 0 0 0-4.437333 75.548444l4.437333 4.949334 160.881778 160.938666a56.888889 56.888889 0 0 0 75.491555 4.380445l4.949334-4.380445 402.261333-402.318222z"  /><path fill="#2c2c2c" d="M540.444444 398.222222a28.444444 28.444444 0 1 1 0 56.888889h-227.555555a28.444444 28.444444 0 1 1 0-56.888889h227.555555zM483.555556 739.555556a28.444444 28.444444 0 1 1 0 56.888888h-227.555556a28.444444 28.444444 0 0 1 0-56.888888h227.555556zM682.666667 568.888889v56.888889H113.777778v-56.888889z"  /></svg>