<?xml version="1.0" standalone="no"?><!DOCTYPE svg PUBLIC "-//W3C//DTD SVG 1.1//EN" "http://www.w3.org/Graphics/SVG/1.1/DTD/svg11.dtd"><svg class="icon" width="200px" height="188.93px" viewBox="0 0 1084 1024" version="1.1" xmlns="http://www.w3.org/2000/svg"><path fill="#2c2c2c" d="M1024 0a60.235294 60.235294 0 0 1 60.235294 60.235294v903.529412a60.235294 60.235294 0 0 1-60.235294 60.235294H60.235294a60.235294 60.235294 0 0 1-60.235294-60.235294v-180.705882a250.578824 250.578824 0 0 1 228.653176-249.675295C408.274824 517.601882 512.783059 480.376471 542.117647 421.647059c36.141176-72.222118 56.018824-193.114353 59.632941-362.676706a60.235294 60.235294 0 0 1 60.235294-58.970353H1024z m-362.014118 60.235294c-3.855059 177.754353-24.997647 306.296471-66.017882 388.336941-42.164706 84.449882-162.394353 127.277176-362.014118 144.865883a190.343529 190.343529 0 0 0-173.417411 178.718117L60.235294 783.058824v180.705882h963.764706V60.235294h-362.014118z"  /><path fill="#2c2c2c" d="M1054.117647 843.294118a30.117647 30.117647 0 1 1 0 60.235294H30.117647a30.117647 30.117647 0 1 1 0-60.235294h1024z"  /><path fill="#2c2c2c" d="M441.223529 853.413647a30.117647 30.117647 0 0 1-56.621176 20.600471l-103.002353-282.985412a30.117647 30.117647 0 1 1 56.621176-20.600471l103.002353 282.985412zM488.869647 552.056471a30.117647 30.117647 0 1 1-52.163765 30.117647l-60.235294-104.32753a30.117647 30.117647 0 0 1 52.163765-30.117647l60.235294 104.32753zM594.703059 476.762353a30.117647 30.117647 0 0 1-46.140235 38.731294L471.100235 423.213176a30.117647 30.117647 0 1 1 46.140236-38.731294l77.462588 92.280471zM674.093176 352.677647a30.117647 30.117647 0 1 1-20.60047 56.621177L540.310588 368.037647a30.117647 30.117647 0 0 1 20.660706-56.621176l113.242353 41.200941zM700.897882 206.848a30.117647 30.117647 0 1 1-10.480941 59.331765l-118.663529-20.901647a30.117647 30.117647 0 1 1 10.480941-59.331765l118.663529 20.901647zM873.411765 120.470588a90.352941 90.352941 0 1 1 0 180.705883 90.352941 90.352941 0 0 1 0-180.705883z m0 60.235294a30.117647 30.117647 0 1 0 0 60.235294 30.117647 30.117647 0 0 0 0-60.235294z"  /></svg>