<?xml version="1.0" standalone="no"?><!DOCTYPE svg PUBLIC "-//W3C//DTD SVG 1.1//EN" "http://www.w3.org/Graphics/SVG/1.1/DTD/svg11.dtd"><svg class="icon" width="200px" height="200.00px" viewBox="0 0 1024 1024" version="1.1" xmlns="http://www.w3.org/2000/svg"><path fill="#2c2c2c" d="M881.777778 0a56.888889 56.888889 0 0 1 56.888889 56.888889v910.222222a56.888889 56.888889 0 0 1-56.888889 56.888889H142.222222a56.888889 56.888889 0 0 1-56.888889-56.888889V56.888889a56.888889 56.888889 0 0 1 56.888889-56.888889h739.555556z m0 56.888889H142.222222v910.222222h739.555556V56.888889z"  /><path fill="#2c2c2c" d="M768 113.777778a56.888889 56.888889 0 0 1 56.888889 56.888889v341.333333a56.888889 56.888889 0 0 1-56.888889 56.888889H256a56.888889 56.888889 0 0 1-56.888889-56.888889V170.666667a56.888889 56.888889 0 0 1 56.888889-56.888889h512z m0 56.888889H256v341.333333h512V170.666667zM512 625.777778a142.222222 142.222222 0 1 1 0 284.444444 142.222222 142.222222 0 0 1 0-284.444444z m0 56.888889a85.333333 85.333333 0 1 0 0 170.666666 85.333333 85.333333 0 0 0 0-170.666666z"  /><path fill="#2c2c2c" d="M352.711111 261.688889a28.444444 28.444444 0 0 1 36.408889 1.877333l3.413333 3.811556 170.666667 227.555555a28.444444 28.444444 0 0 1-42.097778 37.944889L517.688889 529.066667l-170.666667-227.555556a28.444444 28.444444 0 0 1 5.688889-39.822222z"  /><path fill="#2c2c2c" d="M284.444444 711.111111m-56.888888 0a56.888889 56.888889 0 1 0 113.777777 0 56.888889 56.888889 0 1 0-113.777777 0Z"  /><path fill="#2c2c2c" d="M739.555556 711.111111m-56.888889 0a56.888889 56.888889 0 1 0 113.777777 0 56.888889 56.888889 0 1 0-113.777777 0Z"  /><path fill="#2c2c2c" d="M597.333333 540.444444a85.333333 85.333333 0 0 0-170.666666 0h170.666666z"  /></svg>