<?xml version="1.0" standalone="no"?><!DOCTYPE svg PUBLIC "-//W3C//DTD SVG 1.1//EN" "http://www.w3.org/Graphics/SVG/1.1/DTD/svg11.dtd"><svg class="icon" width="200px" height="200.00px" viewBox="0 0 1024 1024" version="1.1" xmlns="http://www.w3.org/2000/svg"><path fill="#2c2c2c" d="M874.037975 149.958611A511.998293 511.998293 0 1 1 149.958611 874.037975 511.998293 511.998293 0 0 1 874.037975 149.958611z m-40.22031 40.220311A455.109594 455.109594 0 1 0 190.178922 833.817665 455.109594 455.109594 0 0 0 833.817665 190.178922z"  /><path fill="#2c2c2c" d="M874.037975 149.958611a28.44435 28.44435 0 0 1 0 40.220311L190.23581 874.037975a28.44435 28.44435 0 1 1-40.277199-40.22031l683.802165-683.859054a28.44435 28.44435 0 0 1 40.277199 0z"  /><path fill="#2c2c2c" d="M874.037975 874.037975a28.44435 28.44435 0 0 1-40.22031 0L149.958611 190.23581a28.44435 28.44435 0 1 1 40.220311-40.277199l683.859053 683.802165a28.44435 28.44435 0 0 1 0 40.277199z"  /><path fill="#2c2c2c" d="M527.813352 31.800783a538.337761 538.337761 0 0 1-156.614589 339.39798A538.280872 538.280872 0 0 1 44.031853 526.789355l-19.455935 1.592884-3.697765-56.774922a481.505951 481.505951 0 0 0 310.100299-140.571976A481.278396 481.278396 0 0 0 469.217991 46.250512L471.095319 27.306576l56.718033 4.494207zM997.258898 501.18944a538.337761 538.337761 0 0 0-339.454868 156.61459 538.280872 538.280872 0 0 0-155.533704 327.11002l-1.592884 19.455935 56.718033 3.754655a481.505951 481.505951 0 0 1 140.628865-310.1003 481.278396 481.278396 0 0 1 284.72794-138.239539l18.943937-1.877327-4.494208-56.718034z"  /></svg>