<?xml version="1.0" standalone="no"?><!DOCTYPE svg PUBLIC "-//W3C//DTD SVG 1.1//EN" "http://www.w3.org/Graphics/SVG/1.1/DTD/svg11.dtd"><svg class="icon" width="200px" height="200.00px" viewBox="0 0 1024 1024" version="1.1" xmlns="http://www.w3.org/2000/svg"><path fill="#2c2c2c" d="M515.413333 446.805333a28.444444 28.444444 0 0 1-36.238222 43.52l-3.982222-3.299555L394.808889 406.528a28.444444 28.444444 0 0 1 36.295111-43.52l3.982222 3.299556L515.413333 446.805333z"  /><path fill="#2c2c2c" d="M589.027556 366.364444a28.444444 28.444444 0 0 1 43.52 36.238223l-3.299556 3.982222L548.750222 486.968889a28.444444 28.444444 0 0 1-43.52-36.295111l3.299556-3.982222L589.027556 366.364444z"  /><path fill="#2c2c2c" d="M512 0a455.111111 455.111111 0 0 1 227.612444 849.351111L739.555556 910.222222a113.777778 113.777778 0 0 1-113.777778 113.777778H398.222222a113.777778 113.777778 0 0 1-113.777778-113.777778v-60.871111A455.111111 455.111111 0 0 1 512 0z m0 56.888889a398.222222 398.222222 0 0 0-212.024889 735.402667l12.970667 7.793777 28.387555 16.440889V910.222222a56.888889 56.888889 0 0 0 50.232889 56.490667L398.222222 967.111111h227.555556a56.888889 56.888889 0 0 0 56.490666-50.289778l0.398223-6.656 0.113777-93.696 28.330667-16.384A398.222222 398.222222 0 0 0 512 56.888889z"  /><path fill="#2c2c2c" d="M568.888889 853.333333a28.444444 28.444444 0 0 1 5.12 56.433778L568.888889 910.222222H455.111111a28.444444 28.444444 0 0 1-5.12-56.433778L455.111111 853.333333h113.777778zM568.888889 739.555556a28.444444 28.444444 0 0 1 5.12 56.433777L568.888889 796.444444H455.111111a28.444444 28.444444 0 0 1-5.12-56.433777L455.111111 739.555556h113.777778z"  /><path fill="#2c2c2c" d="M512 455.111111a28.444444 28.444444 0 0 1 27.989333 23.324445l0.455111 5.12v284.444444a28.444444 28.444444 0 0 1-56.433777 5.12L483.555556 768v-284.444444A28.444444 28.444444 0 0 1 512 455.111111z"  /></svg>