<?xml version="1.0" standalone="no"?><!DOCTYPE svg PUBLIC "-//W3C//DTD SVG 1.1//EN" "http://www.w3.org/Graphics/SVG/1.1/DTD/svg11.dtd"><svg class="icon" width="200px" height="200.00px" viewBox="0 0 1024 1024" version="1.1" xmlns="http://www.w3.org/2000/svg"><path fill="#2c2c2c" d="M910.222222 0a56.888889 56.888889 0 0 1 56.888889 56.888889v56.888889a56.888889 56.888889 0 0 1-56.888889 56.888889H113.777778a56.888889 56.888889 0 0 1-56.888889-56.888889V56.888889a56.888889 56.888889 0 0 1 56.888889-56.888889h796.444444z m0 56.888889H113.777778v56.888889h796.444444V56.888889z"  /><path fill="#2c2c2c" d="M625.777778 113.777778a56.888889 56.888889 0 0 1 56.888889 56.888889v56.888889a113.777778 113.777778 0 0 1-113.777778 113.777777H455.111111a113.777778 113.777778 0 0 1-113.777778-113.777777V170.666667a56.888889 56.888889 0 0 1 56.888889-56.888889h227.555556z m0 56.888889H398.222222v56.888889a56.888889 56.888889 0 0 0 50.232889 56.490666L455.111111 284.444444h113.777778a56.888889 56.888889 0 0 0 56.490667-50.232888L625.777778 227.555556V170.666667zM662.528 625.777778a113.777778 113.777778 0 0 1 105.642667 71.509333L796.444444 768a103.708444 103.708444 0 0 1-96.312888 142.222222H323.868444A103.708444 103.708444 0 0 1 227.555556 768l28.273777-70.712889A113.777778 113.777778 0 0 1 361.472 625.777778h301.056z m0 56.888889H361.472a56.888889 56.888889 0 0 0-49.891556 29.525333l-2.901333 6.257778-28.330667 70.656a46.819556 46.819556 0 0 0 37.603556 63.886222l5.916444 0.341333h376.263112a46.819556 46.819556 0 0 0 45.454222-58.140444l-1.934222-6.087111-28.330667-70.656a56.888889 56.888889 0 0 0-45.909333-35.384889L662.528 682.666667z"  /><path fill="#2c2c2c" d="M796.444444 113.777778a56.888889 56.888889 0 0 1 56.888889 56.888889v113.777777a170.666667 170.666667 0 0 1-170.666666 170.666667H341.333333a170.666667 170.666667 0 0 1-170.666666-170.666667V170.666667a56.888889 56.888889 0 0 1 56.888889-56.888889h568.888888z m0 56.888889H227.555556v113.777777a113.777778 113.777778 0 0 0 105.244444 113.493334L341.333333 398.222222h341.333334a113.777778 113.777778 0 0 0 113.493333-105.244444L796.444444 284.444444V170.666667zM761.287111 512a56.888889 56.888889 0 0 1 50.858667 31.459556l100.977778 201.955555A167.424 167.424 0 0 1 881.777778 938.666667l-68.664889 68.664889a56.888889 56.888889 0 0 1-40.220445 16.668444H251.107556a56.888889 56.888889 0 0 1-40.220445-16.668444L142.222222 938.666667a167.424 167.424 0 0 1-31.345778-193.251556l100.977778-201.955555A56.888889 56.888889 0 0 1 262.712889 512h498.574222z m0 56.888889H262.712889l-100.977778 201.955555a110.535111 110.535111 0 0 0 14.336 120.604445l6.371556 6.997333L251.107556 967.111111h521.784888l68.664889-68.664889a110.535111 110.535111 0 0 0 24.576-119.011555l-3.868444-8.590223L761.287111 568.888889z"  /><path fill="#2c2c2c" d="M796.444444 398.222222v113.777778a56.888889 56.888889 0 0 1-56.888888 56.888889H284.444444a56.888889 56.888889 0 0 1-56.888888-56.888889V398.222222h568.888888z m-56.888888 56.888889H284.444444v56.888889h455.111112V455.111111z"  /></svg>