<?xml version="1.0" standalone="no"?><!DOCTYPE svg PUBLIC "-//W3C//DTD SVG 1.1//EN" "http://www.w3.org/Graphics/SVG/1.1/DTD/svg11.dtd"><svg class="icon" width="200px" height="177.78px" viewBox="0 0 1152 1024" version="1.1" xmlns="http://www.w3.org/2000/svg"><path fill="#2c2c2c" d="M1088 0a64 64 0 0 1 64 64v896a64 64 0 0 1-64 64H64a64 64 0 0 1-64-64V64a64 64 0 0 1 64-64h1024z m0 64H64v896h1024V64z"  /><path fill="#2c2c2c" d="M576 128a384 384 0 1 1 0 768A384 384 0 0 1 576 128z m0 64a320 320 0 1 0 0 640A320 320 0 0 0 576 192z"  /><path fill="#2c2c2c" d="M576 384a128 128 0 1 1 0 256 128 128 0 0 1 0-256z m0 64a64 64 0 1 0 0 128 64 64 0 0 0 0-128zM336 236.864a32 32 0 0 1 40.384 7.04l3.328 4.672 64 110.848a32 32 0 0 1-52.096 36.736l-3.328-4.736-64-110.848a32 32 0 0 1 11.712-43.712zM720 620.864a32 32 0 0 1 40.384 7.04l3.328 4.672 64 110.848a32 32 0 0 1-52.096 36.736l-3.328-4.736-64-110.848a32 32 0 0 1 11.712-43.712zM300.864 752a32 32 0 0 1 7.04-40.384l4.672-3.328 110.848-64a32 32 0 0 1 36.736 52.096l-4.736 3.328-110.848 64a32 32 0 0 1-43.712-11.712zM684.864 368a32 32 0 0 1 7.04-40.384l4.672-3.328 110.848-64a32 32 0 0 1 36.736 52.096l-4.736 3.328-110.848 64a32 32 0 0 1-43.712-11.712zM600.832 675.264a32 32 0 0 1 23.68 33.536l-1.024 5.632-33.152 123.648a32 32 0 0 1-62.784-10.88l0.96-5.632 33.152-123.648a32 32 0 0 1 39.168-22.656zM600.832 163.264a32 32 0 0 1 23.68 33.536l-1.024 5.632-33.152 123.648a32 32 0 0 1-62.784-10.88l0.96-5.632 33.152-123.648a32 32 0 0 1 39.168-22.656zM739.264 487.168a32 32 0 0 1 33.536-23.68l5.632 1.024 123.648 33.152a32 32 0 0 1-10.88 62.784l-5.632-0.96-123.648-33.152a32 32 0 0 1-22.656-39.168zM227.264 487.168a32 32 0 0 1 33.536-23.68l5.632 1.024 123.648 33.152a32 32 0 0 1-10.88 62.784l-5.632-0.96-123.648-33.152a32 32 0 0 1-22.656-39.168z"  /><path fill="#2c2c2c" d="M992 160m-64 0a64 64 0 1 0 128 0 64 64 0 1 0-128 0Z"  /><path fill="#2c2c2c" d="M992 864m-64 0a64 64 0 1 0 128 0 64 64 0 1 0-128 0Z"  /><path fill="#2c2c2c" d="M160 864m-64 0a64 64 0 1 0 128 0 64 64 0 1 0-128 0Z"  /><path fill="#2c2c2c" d="M160 160m-64 0a64 64 0 1 0 128 0 64 64 0 1 0-128 0Z"  /></svg>