<?xml version="1.0" standalone="no"?><!DOCTYPE svg PUBLIC "-//W3C//DTD SVG 1.1//EN" "http://www.w3.org/Graphics/SVG/1.1/DTD/svg11.dtd"><svg class="icon" width="200px" height="200.00px" viewBox="0 0 1024 1024" version="1.1" xmlns="http://www.w3.org/2000/svg"><path fill="#2c2c2c" d="M654.222222 0c198.826667 0 361.016889 72.419556 369.436445 163.271111L1024 170.666667v682.666666c0 94.264889-165.546667 170.666667-369.777778 170.666667-198.826667 0-361.016889-72.419556-369.436444-163.271111L284.444444 853.333333V170.666667l0.341334-7.395556C293.205333 72.419556 455.395556 0 654.222222 0z m0 56.888889c-166.855111 0-299.52 56.490667-311.751111 104.391111l-0.853333 4.608L341.333333 170.666667l-0.056889 680.049777 0.170667 4.778667C346.168889 906.865778 481.962667 967.111111 654.222222 967.111111c171.178667 0 304.583111-59.164444 312.490667-109.112889L967.111111 853.333333l0.056889-680.049777-0.170667-4.778667C962.275556 117.134222 826.481778 56.888889 654.222222 56.888889z"  /><path fill="#2c2c2c" d="M341.333333 227.555556v682.666666H42.040889a28.444444 28.444444 0 0 1-26.453333-39.025778l94.094222-235.235555A56.888889 56.888889 0 0 0 113.777778 614.798222V522.979556a56.888889 56.888889 0 0 0-4.096-21.162667L15.587556 266.581333A28.444444 28.444444 0 0 1 42.097778 227.555556H341.333333zM284.444444 284.444444H83.968l78.563556 196.266667a113.777778 113.777778 0 0 1 7.623111 31.402667l0.512 10.808889v91.875555a113.777778 113.777778 0 0 1-4.551111 32.028445l-3.584 10.24L83.968 853.333333H284.444444V284.444444z"  /><path fill="#2c2c2c" d="M654.222222 0C858.453333 0 1024 89.144889 1024 199.111111S858.453333 398.222222 654.222222 398.222222 284.444444 309.077333 284.444444 199.111111 449.991111 0 654.222222 0z m0 56.888889C477.297778 56.888889 341.333333 130.048 341.333333 199.111111S477.297778 341.333333 654.222222 341.333333 967.111111 268.174222 967.111111 199.111111 831.146667 56.888889 654.222222 56.888889z"  /><path fill="#2c2c2c" d="M654.222222 113.777778c-92.956444 0-170.666667 31.061333-170.666666 85.333333S561.265778 284.444444 654.222222 284.444444s170.666667-31.061333 170.666667-85.333333-77.710222-85.333333-170.666667-85.333333z m0 56.888889c34.816 0 67.128889 5.461333 89.998222 14.620444 16.896 6.769778 23.779556 13.255111 23.779556 13.824l-1.365333 1.422222a82.318222 82.318222 0 0 1-22.414223 12.401778c-22.926222 9.159111-55.182222 14.620444-89.998222 14.620445-34.816 0-67.128889-5.461333-89.998222-14.620445C547.271111 206.165333 540.444444 199.68 540.444444 199.111111c0-0.568889 6.883556-7.054222 23.779556-13.824 22.926222-9.159111 55.182222-14.620444 89.998222-14.620444z"  /></svg>