<?xml version="1.0" standalone="no"?><!DOCTYPE svg PUBLIC "-//W3C//DTD SVG 1.1//EN" "http://www.w3.org/Graphics/SVG/1.1/DTD/svg11.dtd"><svg class="icon" width="200px" height="200.00px" viewBox="0 0 1024 1024" version="1.1" xmlns="http://www.w3.org/2000/svg"><path fill="#2c2c2c" d="M512 0a512 512 0 1 1 0 1024A512 512 0 0 1 512 0z m0 56.888889a455.111111 455.111111 0 1 0 0 910.222222A455.111111 455.111111 0 0 0 512 56.888889z"  /><path fill="#2c2c2c" d="M512 113.777778a398.222222 398.222222 0 1 1 0 796.444444A398.222222 398.222222 0 0 1 512 113.777778z m0 56.888889a341.333333 341.333333 0 1 0 0 682.666666A341.333333 341.333333 0 0 0 512 170.666667z"  /><path fill="#2c2c2c" d="M512 199.111111a28.444444 28.444444 0 0 1 28.444444 28.444445v284.444444a28.444444 28.444444 0 0 1-56.888888 0V227.555556a28.444444 28.444444 0 0 1 28.444444-28.444445z"  /><path fill="#2c2c2c" d="M711.111111 512a28.444444 28.444444 0 0 1-28.444444 28.444444H512a28.444444 28.444444 0 1 1 0-56.888888h170.666667a28.444444 28.444444 0 0 1 28.444444 28.444444zM142.222222 512a28.444444 28.444444 0 0 1-28.444444 28.444444H56.888889a28.444444 28.444444 0 0 1 0-56.888888h56.888889a28.444444 28.444444 0 0 1 28.444444 28.444444zM512 28.444444a28.444444 28.444444 0 0 1 28.444444 28.444445v56.888889a28.444444 28.444444 0 0 1-56.888888 0V56.888889A28.444444 28.444444 0 0 1 512 28.444444zM512 881.777778a28.444444 28.444444 0 0 1 28.444444 28.444444v56.888889a28.444444 28.444444 0 1 1-56.888888 0v-56.888889a28.444444 28.444444 0 0 1 28.444444-28.444444zM995.555556 512a28.444444 28.444444 0 0 1-28.444445 28.444444h-56.888889a28.444444 28.444444 0 1 1 0-56.888888h56.888889a28.444444 28.444444 0 0 1 28.444445 28.444444z"  /></svg>