<?xml version="1.0" standalone="no"?><!DOCTYPE svg PUBLIC "-//W3C//DTD SVG 1.1//EN" "http://www.w3.org/Graphics/SVG/1.1/DTD/svg11.dtd"><svg class="icon" width="200px" height="188.93px" viewBox="0 0 1084 1024" version="1.1" xmlns="http://www.w3.org/2000/svg"><path fill="#2c2c2c" d="M548.743529 421.647059c110.712471 0 228.592941 95.171765 353.641412 285.515294a189.319529 189.319529 0 0 1-28.370823 242.085647l-8.673883 7.710118-30.72 25.901176a160.587294 160.587294 0 0 1-103.725176 37.707294c-27.527529 0-55.175529-6.987294-79.992471-21.082353l-10.420706-6.565647-7.28847-4.939294a166.550588 166.550588 0 0 0-93.605647-28.672c-29.334588 0-58.127059 7.710118-83.245177 22.226824l-10.601412 6.625882-11.38447 7.770353A161.912471 161.912471 0 0 1 343.04 1024a161.852235 161.852235 0 0 1-97.581176-32.527059l-10.420706-8.553412-21.564236-19.395764a186.548706 186.548706 0 0 1-31.924706-242.507294c126.614588-191.969882 244.675765-291.659294 354.18353-298.947765L548.743529 421.647059z m-1.204705 60.235294c-87.220706 0.722824-194.740706 88.847059-315.693177 272.263529a126.132706 126.132706 0 0 0 14.336 157.214118l7.529412 7.408941 21.564235 19.275294A101.195294 101.195294 0 0 0 343.04 963.764706c17.046588 0 33.731765-4.216471 48.670118-12.288l8.673882-5.300706 11.444706-7.830588a226.665412 226.665412 0 0 1 127.759059-39.273412c40.237176 0 79.811765 10.601412 114.567529 30.960941l12.830118 8.07153 7.348706 4.999529c16.685176 11.324235 36.382118 17.227294 56.621176 17.227294 20.359529 0 40.176941-6.023529 56.801882-17.408l8.07153-6.083765 30.659765-25.901176a129.264941 129.264941 0 0 0 25.539764-170.706824c-111.013647-169.020235-211.004235-252.506353-294.369882-258.048L547.599059 481.882353zM345.871059 0C419.056941 0 476.461176 70.234353 502.663529 160.707765c28.069647 96.858353-5.842824 183.536941-119.506823 198.77647-9.818353 1.264941-19.275294 1.927529-28.310588 1.92753C259.855059 361.411765 210.823529 290.454588 210.823529 199.800471c0-99.267765 38.912-187.934118 119.446589-198.776471l7.830588-0.783059 7.830588-0.240941z m0 60.235294a57.404235 57.404235 0 0 0-7.589647 0.542118c-38.550588 5.12-67.222588 57.223529-67.222588 139.023059C271.058824 265.336471 300.754824 301.176471 354.906353 301.176471c6.384941 0 13.131294-0.481882 20.299294-1.445647 67.704471-9.035294 90.232471-50.959059 69.632-122.277648-20.178824-69.330824-57.103059-112.037647-92.340706-116.796235L345.871059 60.235294zM738.364235 0c-73.185882 0-130.529882 70.234353-156.79247 160.707765-28.069647 96.858353 5.842824 183.536941 119.506823 198.77647 9.818353 1.264941 19.275294 1.927529 28.310588 1.92753C824.380235 361.411765 873.411765 290.454588 873.411765 199.800471c0-99.267765-38.912-187.934118-119.446589-198.776471l-7.830588-0.783059-7.830588-0.240941z m0 60.235294c2.409412 0 4.999529 0.180706 7.589647 0.542118 38.550588 5.12 67.222588 57.223529 67.222589 139.023059C813.176471 265.336471 783.480471 301.176471 729.328941 301.176471c-6.384941 0-13.131294-0.481882-20.299294-1.445647-67.704471-9.035294-90.232471-50.959059-69.632-122.277648 20.178824-69.330824 57.103059-112.037647 92.340706-116.796235l6.625882-0.421647zM982.196706 301.176471c-31.081412 0-64.451765 14.697412-93.244235 47.465411l-13.673412 15.962353c-48.790588 58.428235-80.474353 117.157647-31.804235 177.513412 24.094118 29.936941 89.509647 60.235294 117.458823 60.235294 33.551059 0 66.017882-19.636706 88.485647-54.573176 41.261176-64.150588 48.368941-161.792 8.734118-210.040471A97.701647 97.701647 0 0 0 982.196706 301.176471z m0 60.235294c11.203765 0 21.504 4.939294 29.455059 14.637176 20.058353 24.395294 16.504471 93.364706-12.890353 139.14353-11.806118 18.311529-25.780706 26.925176-37.76753 26.925176-11.565176 0-59.151059-23.491765-70.595764-37.767529-20.961882-26.021647-11.866353-52.525176 43.791058-116.013177 16.444235-18.672941 33.249882-26.925176 48.00753-26.925176zM102.219294 301.176471c31.081412 0 64.451765 14.697412 93.244235 47.465411l13.673412 15.962353C257.927529 423.032471 289.611294 481.761882 240.941176 542.117647c-24.094118 29.936941-89.509647 60.235294-117.519058 60.235294-33.490824 0-65.957647-19.636706-88.425412-54.573176C-6.264471 483.689412-13.372235 385.987765 26.262588 337.739294 45.537882 314.307765 72.824471 301.176471 102.219294 301.176471z m0 60.235294a37.526588 37.526588 0 0 0-29.455059 14.637176c-20.118588 24.395294-16.504471 93.364706 12.890353 139.14353 11.806118 18.311529 25.780706 26.925176 37.76753 26.925176 11.565176 0 59.151059-23.491765 70.595764-37.767529 20.961882-26.021647 11.866353-52.525176-43.851294-116.013177-16.384-18.672941-33.129412-26.925176-47.947294-26.925176z"  /><path fill="#2c2c2c" d="M694.874353 683.670588a30.117647 30.117647 0 0 1 42.405647 3.794824l77.462588 92.28047a30.117647 30.117647 0 1 1-46.140235 38.671059l-77.462588-92.28047a30.117647 30.117647 0 0 1 3.734588-42.405647zM593.739294 556.212706a30.117647 30.117647 0 0 1 42.465882 3.734588l38.671059 46.140235a30.117647 30.117647 0 1 1-46.140235 38.671059l-38.671059-46.140235a30.117647 30.117647 0 0 1 3.674353-42.405647z"  /></svg>