<?xml version="1.0" standalone="no"?><!DOCTYPE svg PUBLIC "-//W3C//DTD SVG 1.1//EN" "http://www.w3.org/Graphics/SVG/1.1/DTD/svg11.dtd"><svg class="icon" width="200px" height="200.00px" viewBox="0 0 1024 1024" version="1.1" xmlns="http://www.w3.org/2000/svg"><path fill="#2c2c2c" d="M199.111111 0a28.444444 28.444444 0 0 1 28.444445 28.444444v398.222223a28.444444 28.444444 0 0 1-56.888889 0v-398.222223a28.444444 28.444444 0 0 1 28.444444-28.444444zM312.888889 0a28.444444 28.444444 0 0 1 28.444444 28.444444v398.222223a28.444444 28.444444 0 0 1-56.888889 0v-398.222223a28.444444 28.444444 0 0 1 28.444445-28.444444zM199.111111 568.888889a28.444444 28.444444 0 0 1 28.444445 28.444444v398.222223a28.444444 28.444444 0 1 1-56.888889 0v-398.222223a28.444444 28.444444 0 0 1 28.444444-28.444444zM312.888889 568.888889a28.444444 28.444444 0 0 1 28.444444 28.444444v398.222223a28.444444 28.444444 0 1 1-56.888889 0v-398.222223a28.444444 28.444444 0 0 1 28.444445-28.444444zM711.111111 568.888889a28.444444 28.444444 0 0 1 28.444445 28.444444v398.222223a28.444444 28.444444 0 1 1-56.888889 0v-398.222223a28.444444 28.444444 0 0 1 28.444444-28.444444zM824.888889 568.888889a28.444444 28.444444 0 0 1 28.444444 28.444444v398.222223a28.444444 28.444444 0 1 1-56.888889 0v-398.222223a28.444444 28.444444 0 0 1 28.444445-28.444444z"  /><path fill="#2c2c2c" d="M455.111111 28.444444a28.444444 28.444444 0 0 1 27.989333 23.324445L483.555556 56.888889v341.333333a199.111111 199.111111 0 0 1-188.188445 198.826667L284.444444 597.333333H227.555556A199.111111 199.111111 0 0 1 28.728889 409.144889L28.444444 398.222222V56.888889a28.444444 28.444444 0 0 1 56.433778-5.12L85.333333 56.888889v341.333333a142.222222 142.222222 0 0 0 132.892445 141.937778L227.555556 540.444444h56.888888a142.222222 142.222222 0 0 0 141.937778-132.892444L426.666667 398.222222V56.888889A28.444444 28.444444 0 0 1 455.111111 28.444444zM816.355556 28.444444h-96.711112a85.333333 85.333333 0 0 0-77.937777 50.631112L552.618667 279.324444A142.222222 142.222222 0 0 0 540.444444 336.952889V440.888889a156.444444 156.444444 0 0 0 156.444445 156.444444h142.222222a156.444444 156.444444 0 0 0 156.444445-156.444444V337.009778a142.222222 142.222222 0 0 0-12.231112-57.742222L894.293333 79.132444A85.333333 85.333333 0 0 0 816.355556 28.444444z m-96.711112 56.888889h96.711112a28.444444 28.444444 0 0 1 25.998222 16.896l88.974222 200.135111c4.835556 10.922667 7.338667 22.755556 7.338667 34.702223V440.888889a99.555556 99.555556 0 0 1-99.555556 99.555555h-142.222222a99.555556 99.555556 0 0 1-99.555556-99.555555V337.009778c0-11.946667 2.503111-23.722667 7.395556-34.645334l88.917333-200.135111a28.444444 28.444444 0 0 1 25.998222-16.896z"  /></svg>