<?xml version="1.0" standalone="no"?><!DOCTYPE svg PUBLIC "-//W3C//DTD SVG 1.1//EN" "http://www.w3.org/Graphics/SVG/1.1/DTD/svg11.dtd"><svg class="icon" width="200px" height="188.24px" viewBox="0 0 1088 1024" version="1.1" xmlns="http://www.w3.org/2000/svg"><path fill="#2c2c2c" d="M1024 0a64 64 0 0 1 64 64v640a64 64 0 0 1-64 64H64a64 64 0 0 1-64-64V64a64 64 0 0 1 64-64h960z m0 64H64v640h960V64z"  /><path fill="#2c2c2c" d="M928 576a32 32 0 1 1 0 64h-512a32 32 0 0 1 0-64h512zM800 960a32 32 0 1 1 0 64h-512a32 32 0 1 1 0-64h512z"  /><path fill="#2c2c2c" d="M928 256a32 32 0 0 1 32 32v320a32 32 0 1 1-64 0v-320a32 32 0 0 1 32-32zM544 704a32 32 0 0 1 32 32v256a32 32 0 1 1-64 0v-256a32 32 0 0 1 32-32z"  /></svg>