<?xml version="1.0" standalone="no"?><!DOCTYPE svg PUBLIC "-//W3C//DTD SVG 1.1//EN" "http://www.w3.org/Graphics/SVG/1.1/DTD/svg11.dtd"><svg class="icon" width="200px" height="188.93px" viewBox="0 0 1084 1024" version="1.1" xmlns="http://www.w3.org/2000/svg"><path fill="#2c2c2c" d="M1000.990118 131.132235a30.117647 30.117647 0 0 1 49.152 34.454589l-3.132236 4.457411-331.294117 391.529412a30.117647 30.117647 0 0 1-49.152-34.454588l3.132235-4.457412 331.294118-391.529412zM1031.228235 341.835294a30.117647 30.117647 0 0 1 48.911059 34.755765l-3.132235 4.397176-361.411765 421.647059a30.117647 30.117647 0 0 1-48.911059-34.755765l3.132236-4.397176 361.411764-421.647059zM702.343529 98.364235a30.117647 30.117647 0 0 1 44.574118 40.237177l-3.614118 3.975529-391.529411 361.411765A30.117647 30.117647 0 0 1 307.2 463.811765l3.614118-3.97553 391.529411-361.411764z"  /><path fill="#2c2c2c" d="M35.538824 392.011294l662.588235 120.470588-10.842353 59.27153-662.588235-120.470588zM35.538824 632.952471l662.588235 120.470588-10.842353 59.271529-662.588235-120.470588zM270.095059 210.823529l5.421176 0.361412 602.352941 90.352941a30.117647 30.117647 0 0 1-3.493647 59.873883l-5.421176-0.361412-602.352941-90.352941a30.117647 30.117647 0 0 1 3.493647-59.873883z"  /><path fill="#2c2c2c" d="M722.823529 542.117647v451.764706h-60.235294V542.117647zM903.529412 301.176471v512h-60.235294V301.176471z"  /><path fill="#2c2c2c" d="M449.897412 33.972706l582.234353 79.390118a60.235294 60.235294 0 0 1 52.103529 59.632941V580.065882a60.235294 60.235294 0 0 1-14.45647 39.152942l-324.848942 379.00047a60.235294 60.235294 0 0 1-55.597176 20.178824L50.356706 911.962353A60.235294 60.235294 0 0 1 0 852.510118V447.909647a60.235294 60.235294 0 0 1 19.275294-44.152471L400.745412 49.513412A60.235294 60.235294 0 0 1 449.957647 33.972706zM1024 173.056L441.765647 93.665882 60.235294 447.909647v404.600471l638.976 106.496L1024 580.065882V172.995765z"  /><path fill="#2c2c2c" d="M361.411765 481.882353v451.764706H301.176471V481.882353z"  /></svg>