<?xml version="1.0" standalone="no"?><!DOCTYPE svg PUBLIC "-//W3C//DTD SVG 1.1//EN" "http://www.w3.org/Graphics/SVG/1.1/DTD/svg11.dtd"><svg class="icon" width="200px" height="200.00px" viewBox="0 0 1024 1024" version="1.1" xmlns="http://www.w3.org/2000/svg"><path fill="#2c2c2c" d="M383.089778 113.777778A113.777778 113.777778 0 0 1 496.071111 213.447111l93.297778 746.609778A56.888889 56.888889 0 0 1 532.878222 1024H92.899556a56.888889 56.888889 0 0 1-56.433778-63.943111L129.706667 213.447111A113.777778 113.777778 0 0 1 242.688 113.777778h140.401778z m0 56.888889H242.688a56.888889 56.888889 0 0 0-55.296 43.406222l-1.137778 6.428444L92.842667 967.111111h439.978666L439.580444 220.501333a56.888889 56.888889 0 0 0-49.948444-49.493333L383.089778 170.666667z"  /><path fill="#2c2c2c" d="M85.333333 853.333333m28.444445 0l341.333333 0q28.444444 0 28.444445 28.444445l0 0q0 28.444444-28.444445 28.444444l-341.333333 0q-28.444444 0-28.444445-28.444444l0 0q0-28.444444 28.444445-28.444445Z"  /><path fill="#2c2c2c" d="M199.098962 348.222964m20.113259-20.11326l80.453039-80.453038q20.11326-20.11326 40.226519 0l0 0q20.11326 20.11326 0 40.226519l-80.453039 80.453038q-20.11326 20.11326-40.226519 0l0 0q-20.11326-20.11326 0-40.226519Z"  /><path fill="#2c2c2c" d="M199.124369 502.252668m20.113259-20.11326l120.679558-120.679557q20.11326-20.11326 40.226519 0l0 0q20.11326 20.11326 0 40.226519l-120.679557 120.679557q-20.11326 20.11326-40.22652 0l0 0q-20.11326-20.11326 0-40.226519Z"  /><path fill="#2c2c2c" d="M369.777778 0a56.888889 56.888889 0 0 1 56.888889 56.888889v56.888889a56.888889 56.888889 0 0 1-56.888889 56.888889H256a56.888889 56.888889 0 0 1-56.888889-56.888889V56.888889a56.888889 56.888889 0 0 1 56.888889-56.888889h113.777778z m0 56.888889H256v56.888889h113.777778V56.888889zM910.222222 0A85.333333 85.333333 0 0 1 995.555556 85.333333v853.333334a85.333333 85.333333 0 0 1-170.666667 0v-853.333334A85.333333 85.333333 0 0 1 910.222222 0z m0 56.888889a28.444444 28.444444 0 0 0-27.989333 23.324444L881.777778 85.333333v853.333334a28.444444 28.444444 0 0 0 56.433778 5.12L938.666667 938.666667v-853.333334a28.444444 28.444444 0 0 0-28.444445-28.444444z"  /><path fill="#2c2c2c" d="M824.888889 56.888889a56.888889 56.888889 0 0 1 56.888889 56.888889v341.333333a56.888889 56.888889 0 0 1-56.888889 56.888889h-170.666667a56.888889 56.888889 0 0 1-56.888889-56.888889V113.777778a56.888889 56.888889 0 0 1 56.888889-56.888889h170.666667z m0 56.888889h-170.666667v341.333333h170.666667V113.777778z"  /><path fill="#2c2c2c" d="M739.555556 170.666667a28.444444 28.444444 0 1 1 0 56.888889h-113.777778a28.444444 28.444444 0 1 1 0-56.888889h113.777778zM739.555556 284.444444a28.444444 28.444444 0 1 1 0 56.888889h-113.777778a28.444444 28.444444 0 1 1 0-56.888889h113.777778z"  /></svg>