<?xml version="1.0" standalone="no"?><!DOCTYPE svg PUBLIC "-//W3C//DTD SVG 1.1//EN" "http://www.w3.org/Graphics/SVG/1.1/DTD/svg11.dtd"><svg class="icon" width="200px" height="200.00px" viewBox="0 0 1024 1024" version="1.1" xmlns="http://www.w3.org/2000/svg"><path fill="#2c2c2c" d="M910.222222 796.444444a56.888889 56.888889 0 0 1 56.888889 56.888889v113.777778a56.888889 56.888889 0 0 1-56.888889 56.888889H113.777778a56.888889 56.888889 0 0 1-56.888889-56.888889v-113.777778a56.888889 56.888889 0 0 1 56.888889-56.888889h796.444444z m0 56.888889H113.777778v113.777778h796.444444v-113.777778z"  /><path fill="#2c2c2c" d="M398.222222 0a341.333333 341.333333 0 0 1 341.333334 341.333333v455.111111a56.888889 56.888889 0 0 1-56.888889 56.888889H113.777778a56.888889 56.888889 0 0 1-56.888889-56.888889V341.333333a341.333333 341.333333 0 0 1 341.333333-341.333333z m0 56.888889a284.444444 284.444444 0 0 0-284.16 272.099555L113.777778 341.333333v455.111111h568.888889V341.333333a284.444444 284.444444 0 0 0-284.444445-284.444444z"  /><path fill="#2c2c2c" d="M824.888889 398.222222A142.222222 142.222222 0 0 1 967.111111 540.444444V796.444444a56.888889 56.888889 0 0 1-56.888889 56.888889h-227.555555V540.444444A142.222222 142.222222 0 0 1 824.888889 398.222222z m0 56.888889a85.333333 85.333333 0 0 0-84.935111 77.141333L739.555556 540.444444V796.444444h170.666666V540.444444A85.333333 85.333333 0 0 0 824.888889 455.111111zM455.111111 142.222222a28.444444 28.444444 0 0 1 0 56.888889A199.111111 199.111111 0 0 0 256 398.222222a28.444444 28.444444 0 0 1-56.888889 0A256 256 0 0 1 455.111111 142.222222z"  /></svg>