<?xml version="1.0" standalone="no"?><!DOCTYPE svg PUBLIC "-//W3C//DTD SVG 1.1//EN" "http://www.w3.org/Graphics/SVG/1.1/DTD/svg11.dtd"><svg class="icon" width="200px" height="200.00px" viewBox="0 0 1024 1024" version="1.1" xmlns="http://www.w3.org/2000/svg"><path fill="#2c2c2c" d="M967.111111 170.666667a56.888889 56.888889 0 0 1 56.888889 56.888889v625.777777a56.888889 56.888889 0 0 1-56.888889 56.888889H56.888889a56.888889 56.888889 0 0 1-56.888889-56.888889V227.555556a56.888889 56.888889 0 0 1 56.888889-56.888889h910.222222z m0 56.888889H56.888889v625.777777h910.222222V227.555556z"  /><path fill="#2c2c2c" d="M1024 227.555556L925.923556 31.459556A56.888889 56.888889 0 0 0 875.064889 0H148.935111a56.888889 56.888889 0 0 0-50.858667 31.459556L0 227.555556h1024z m-92.103111-56.888889H92.046222l56.888889-113.777778h726.129778l56.832 113.777778z"  /><path fill="#2c2c2c" d="M483.555556 170.666667a28.444444 28.444444 0 0 1 28.444444 28.444444v682.666667a28.444444 28.444444 0 1 1-56.888889 0v-682.666667a28.444444 28.444444 0 0 1 28.444445-28.444444zM597.333333 455.111111a28.444444 28.444444 0 0 1 28.444445 28.444445v113.777777a28.444444 28.444444 0 1 1-56.888889 0v-113.777777a28.444444 28.444444 0 0 1 28.444444-28.444445zM28.444444 853.333333a28.444444 28.444444 0 0 1 28.444445 28.444445v113.777778a28.444444 28.444444 0 1 1-56.888889 0v-113.777778a28.444444 28.444444 0 0 1 28.444444-28.444445zM142.222222 853.333333a28.444444 28.444444 0 0 1 28.444445 28.444445v56.888889a28.444444 28.444444 0 1 1-56.888889 0v-56.888889a28.444444 28.444444 0 0 1 28.444444-28.444445zM881.777778 853.333333a28.444444 28.444444 0 0 1 28.444444 28.444445v56.888889a28.444444 28.444444 0 1 1-56.888889 0v-56.888889a28.444444 28.444444 0 0 1 28.444445-28.444445zM995.555556 853.333333a28.444444 28.444444 0 0 1 28.444444 28.444445v113.777778a28.444444 28.444444 0 1 1-56.888889 0v-113.777778a28.444444 28.444444 0 0 1 28.444445-28.444445z"  /><path fill="#2c2c2c" d="M483.555556 512a28.444444 28.444444 0 0 1 0 56.888889h-455.111112a28.444444 28.444444 0 0 1 0-56.888889h455.111112z"  /></svg>