<?xml version="1.0" standalone="no"?><!DOCTYPE svg PUBLIC "-//W3C//DTD SVG 1.1//EN" "http://www.w3.org/Graphics/SVG/1.1/DTD/svg11.dtd"><svg class="icon" width="200px" height="200.00px" viewBox="0 0 1024 1024" version="1.1" xmlns="http://www.w3.org/2000/svg"><path fill="#2c2c2c" d="M572.534898 284.444444c4.551111 0 8.988444 0.568889 13.368889 1.877334l6.826666 2.56 2.389334 1.251555 54.044444 31.687111c17.521778 12.913778 24.917333 35.84 19.000889 56.832l-3.356444 9.841778a26.680889 26.680889 0 0 0-1.251556 6.656 27.648 27.648 0 0 0 26.737778 28.387556h2.104889c20.935111 0 38.001778 16.725333 42.496 41.699555 1.877333 10.24 3.242667 20.536889 3.982222 30.947556l0.682667 15.644444a286.208 286.208 0 0 1-4.664889 46.648889c-4.494222 24.917333-21.447111 41.642667-42.211556 41.642667h-2.389333a27.648 27.648 0 0 0-26.737778 28.387555l0.398222 3.413334 1.422222 5.12 0.682667 1.877333a53.020444 53.020444 0 0 1-17.237333 63.203556l-2.332445 1.536-52.110222 30.435555-1.137778 0.568889a50.631111 50.631111 0 0 1-52.337777-7.168l-5.233778-4.949333a70.542222 70.542222 0 0 0-16.668445-13.198222 12.629333 12.629333 0 0 0-6.087111-1.592889 11.207111 11.207111 0 0 0-5.973333 1.706666c-4.152889 2.389333-7.964444 5.233778-11.605333 8.419556l-5.12 5.006222a50.801778 50.801778 0 0 1-51.086223 14.791111l-6.826666-2.503111-2.389334-1.251555-55.068444-32.085334a52.906667 52.906667 0 0 1-19.000889-56.832l2.787556-7.964444 0.568888-1.877334a26.737778 26.737778 0 0 0 1.194667-6.656 27.648 27.648 0 0 0-26.737778-28.387555h-2.104889c-20.935111 0-37.944889-16.725333-42.439111-41.699556A284.501333 284.501333 0 0 1 284.449564 511.829333c0.227556-15.644444 1.820444-31.232 4.664889-46.648889 4.494222-24.860444 21.560889-41.642667 42.496-41.642666h2.104889a27.648 27.648 0 0 0 26.737778-28.330667 43.008 43.008 0 0 0-2.503111-10.467555 53.361778 53.361778 0 0 1 11.377778-58.254223l5.802666-4.892444 2.275556-1.536 52.280889-30.606222a50.062222 50.062222 0 0 1 52.906666 7.68l5.233778 5.12c5.12 5.688889 11.093333 10.581333 17.635556 14.449777 3.413333 1.877333 7.395556 1.934222 10.808889 0.113778 4.494222-2.673778 8.647111-5.802667 12.515555-9.329778l5.518222-5.632A50.346667 50.346667 0 0 1 572.534898 284.444444z m0.796444 58.823112l-3.527111 3.697777a137.443556 137.443556 0 0 1-26.567111 19.911111c-20.48 11.036444-45.112889 10.808889-66.56-1.137777a130.844444 130.844444 0 0 1-24.177778-18.261334l-3.470222-3.527111-37.432889 21.959111 1.308445 3.754667c1.536 4.892444 2.673778 10.296889 3.584 17.408l0.853333 7.68A84.764444 84.764444 0 0 1 349.871787 478.72l-5.518223 0.796444-1.308444 8.362667c-0.512 3.982222-0.910222 7.964444-1.251556 11.889778L341.338453 510.862222c0.170667 8.362667 0.796444 16.668444 1.877334 25.031111l1.194666 8.078223 6.030223 1.024c36.181333 7.509333 63.374222 38.741333 66.56 78.108444l0.284444 8.533333a85.902222 85.902222 0 0 1-2.104889 14.791111l-3.470222 11.150223 40.163555 23.267555 3.356445-3.299555c4.608-4.380444 9.500444-8.305778 14.336-11.662223l7.224889-4.664888c10.979556-6.826667 23.608889-10.467556 36.408889-10.353778 11.662222 0 23.153778 3.015111 34.076444 9.045333 8.362667 4.778667 16.156444 10.524444 23.210667 17.066667l3.356444 3.242666 38.570667-22.528-1.763556-5.290666a87.381333 87.381333 0 0 1-3.925333-23.495111 84.764444 84.764444 0 0 1 67.413333-83.968l5.461334-0.853334 1.308444-8.248889 1.251556-12.174222 0.568889-11.377778-0.568889-11.946666-1.251556-12.515556-1.308444-8.192-5.916445-0.967111c-36.238222-7.509333-63.374222-38.741333-66.56-78.051555l-0.284444-8.533334a87.04 87.04 0 0 1 1.820444-13.539555l3.527111-12.629334-38.798222-22.641777z"  /><path fill="#2c2c2c" d="M512.00512 455.111111a56.888889 56.888889 0 1 1 0 113.777778 56.888889 56.888889 0 0 1 0-113.777778zM113.782898 0a113.777778 113.777778 0 1 1 0 227.555556 113.777778 113.777778 0 0 1 0-227.555556z m0 56.888889a56.888889 56.888889 0 1 0 0 113.777778 56.888889 56.888889 0 0 0 0-113.777778zM910.227342 796.444444a113.777778 113.777778 0 1 1 0 227.555556 113.777778 113.777778 0 0 1 0-227.555556z m0 56.888889a56.888889 56.888889 0 1 0 0 113.777778 56.888889 56.888889 0 0 0 0-113.777778z"  /><path fill="#2c2c2c" d="M312.894009 483.555556v56.888888H227.560676a170.666667 170.666667 0 0 0-10.012445 341.048889L227.560676 881.777778h597.333333v56.888889H227.560676a227.555556 227.555556 0 0 1-11.377778-454.826667L227.560676 483.555556h85.333333zM682.671787 540.444444v-56.888888h85.333333a170.666667 170.666667 0 0 0 10.012444-341.048889L768.00512 142.222222H170.671787v-56.888889h597.333333a227.555556 227.555556 0 0 1 11.377778 454.826667l-11.377778 0.284444H682.671787z"  /></svg>