<?xml version="1.0" standalone="no"?><!DOCTYPE svg PUBLIC "-//W3C//DTD SVG 1.1//EN" "http://www.w3.org/Graphics/SVG/1.1/DTD/svg11.dtd"><svg class="icon" width="200px" height="176.55px" viewBox="0 0 1160 1024" version="1.1" xmlns="http://www.w3.org/2000/svg"><path fill="#2c2c2c" d="M1092.266667 341.333333a68.266667 68.266667 0 0 1 68.266666 68.266667v546.133333a68.266667 68.266667 0 0 1-68.266666 68.266667h-136.533334v-102.4a34.133333 34.133333 0 0 0-27.989333-33.5872L921.6 887.466667h-682.666667a34.133333 34.133333 0 0 0-33.5872 27.989333L204.8 921.6V1024H68.266667a68.266667 68.266667 0 0 1-68.266667-68.266667V409.6a68.266667 68.266667 0 0 1 68.266667-68.266667h1024z m0 68.266667H68.266667v546.133333h68.4032l0.136533-40.277333 1.365333-12.151467a102.4 102.4 0 0 1 90.9312-83.626666L238.933333 819.2l688.810667 0.273067 12.151467 1.365333a102.4 102.4 0 0 1 83.626666 90.9312L1024 921.6v34.133333h68.266667V409.6z"  /><path fill="#2c2c2c" d="M1126.4 477.866667a34.133333 34.133333 0 1 1 0 68.266666H34.133333a34.133333 34.133333 0 0 1 0-68.266666h1092.266667zM955.733333 0a68.266667 68.266667 0 0 1 68.266667 68.266667v273.066666a68.266667 68.266667 0 0 1-68.266667 68.266667H204.8a68.266667 68.266667 0 0 1-68.266667-68.266667V68.266667a68.266667 68.266667 0 0 1 68.266667-68.266667h750.933333z m0 68.266667H204.8v273.066666h750.933333V68.266667z"  /><path fill="#2c2c2c" d="M477.866667 204.8a68.266667 68.266667 0 0 1 68.266666 68.266667v68.266666a68.266667 68.266667 0 0 1-68.266666 68.266667H341.333333a68.266667 68.266667 0 0 1-68.266666-68.266667V273.066667a68.266667 68.266667 0 0 1 68.266666-68.266667h136.533334z m0 68.266667H341.333333v68.266666h136.533334V273.066667zM819.2 204.8a68.266667 68.266667 0 0 1 68.266667 68.266667v68.266666a68.266667 68.266667 0 0 1-68.266667 68.266667h-136.533333a68.266667 68.266667 0 0 1-68.266667-68.266667V273.066667a68.266667 68.266667 0 0 1 68.266667-68.266667h136.533333z m0 68.266667h-136.533333v68.266666h136.533333V273.066667z"  /></svg>