<?xml version="1.0" standalone="no"?><!DOCTYPE svg PUBLIC "-//W3C//DTD SVG 1.1//EN" "http://www.w3.org/Graphics/SVG/1.1/DTD/svg11.dtd"><svg class="icon" width="200px" height="200.00px" viewBox="0 0 1024 1024" version="1.1" xmlns="http://www.w3.org/2000/svg"><path fill="#2c2c2c" d="M508.359111 62.122667A56.888889 56.888889 0 0 1 512 82.090667V967.111111a56.888889 56.888889 0 0 1-56.888889 56.888889H113.777778a56.888889 56.888889 0 0 1-56.888889-56.888889V210.090667a56.888889 56.888889 0 0 1 36.920889-53.248l341.333333-128a56.888889 56.888889 0 0 1 73.216 33.28zM455.111111 967.111111V82.090667l-341.333333 128V967.111111h341.333333zM910.222222 227.555556a56.888889 56.888889 0 0 1 56.888889 56.888888v682.666667a56.888889 56.888889 0 0 1-56.888889 56.888889h-284.444444a56.888889 56.888889 0 0 1-56.888889-56.888889V284.444444a56.888889 56.888889 0 0 1 56.888889-56.888888h284.444444z m0 56.888888h-284.444444v682.666667h284.444444V284.444444z"  /><path fill="#2c2c2c" d="M995.555556 967.111111a28.444444 28.444444 0 1 1 0 56.888889H28.444444a28.444444 28.444444 0 1 1 0-56.888889h967.111112zM938.666667 796.444444a28.444444 28.444444 0 1 1 0 56.888889h-341.333334a28.444444 28.444444 0 1 1 0-56.888889h341.333334zM369.777778 398.222222a28.444444 28.444444 0 0 1 0 56.888889h-170.666667a28.444444 28.444444 0 0 1 0-56.888889h170.666667zM369.777778 568.888889a28.444444 28.444444 0 1 1 0 56.888889h-170.666667a28.444444 28.444444 0 1 1 0-56.888889h170.666667zM369.777778 739.555556a28.444444 28.444444 0 1 1 0 56.888888h-170.666667a28.444444 28.444444 0 1 1 0-56.888888h170.666667z"  /><path fill="#2c2c2c" d="M711.111111 398.222222a28.444444 28.444444 0 0 1 28.444445 28.444445v398.222222a28.444444 28.444444 0 1 1-56.888889 0v-398.222222a28.444444 28.444444 0 0 1 28.444444-28.444445zM824.888889 398.222222a28.444444 28.444444 0 0 1 28.444444 28.444445v398.222222a28.444444 28.444444 0 1 1-56.888889 0v-398.222222a28.444444 28.444444 0 0 1 28.444445-28.444445zM768 0a28.444444 28.444444 0 0 1 28.444444 28.444444v227.555556a28.444444 28.444444 0 1 1-56.888888 0v-227.555556a28.444444 28.444444 0 0 1 28.444444-28.444444z"  /></svg>