<?xml version="1.0" standalone="no"?><!DOCTYPE svg PUBLIC "-//W3C//DTD SVG 1.1//EN" "http://www.w3.org/Graphics/SVG/1.1/DTD/svg11.dtd"><svg class="icon" width="200px" height="200.00px" viewBox="0 0 1024 1024" version="1.1" xmlns="http://www.w3.org/2000/svg"><path fill="#2c2c2c" d="M597.333333 398.222222a312.888889 312.888889 0 0 1 312.888889 312.888889V967.111111a56.888889 56.888889 0 0 1-56.888889 56.888889H170.666667a56.888889 56.888889 0 0 1-56.888889-56.888889v-256A312.888889 312.888889 0 0 1 426.666667 398.222222h170.666666z m0 56.888889h-170.666666a256 256 0 0 0-255.715556 243.939556L170.666667 711.111111V967.111111h682.666666v-256a256 256 0 0 0-243.939555-255.715555L597.333333 455.111111z"  /><path fill="#2c2c2c" d="M682.666667 284.444444a56.888889 56.888889 0 0 1 56.888889 56.888889v56.888889a56.888889 56.888889 0 0 1-56.888889 56.888889H341.333333a56.888889 56.888889 0 0 1-56.888889-56.888889V341.333333a56.888889 56.888889 0 0 1 56.888889-56.888889h341.333334z m0 56.888889H341.333333v56.888889h341.333334V341.333333z"  /><path fill="#2c2c2c" d="M527.928889 0a56.888889 56.888889 0 0 1 53.930667 38.912l75.832888 227.555556A56.888889 56.888889 0 0 1 603.761778 341.333333H420.238222a56.888889 56.888889 0 0 1-53.930666-74.865777l75.832888-227.555556A56.888889 56.888889 0 0 1 496.128 0h31.744z m0 56.888889h-31.857778L420.295111 284.444444h183.523556L527.872 56.888889zM512 568.888889a170.666667 170.666667 0 1 1 0 341.333333 170.666667 170.666667 0 0 1 0-341.333333z m0 56.888889a113.777778 113.777778 0 1 0 0 227.555555 113.777778 113.777778 0 0 0 0-227.555555z"  /></svg>