<?xml version="1.0" standalone="no"?><!DOCTYPE svg PUBLIC "-//W3C//DTD SVG 1.1//EN" "http://www.w3.org/Graphics/SVG/1.1/DTD/svg11.dtd"><svg class="icon" width="200px" height="200.00px" viewBox="0 0 1024 1024" version="1.1" xmlns="http://www.w3.org/2000/svg"><path fill="#2c2c2c" d="M737.393778 70.314667l212.309333 208.611555a113.777778 113.777778 0 0 1 34.019556 80.156445l2.56 297.585777a113.777778 113.777778 0 0 1-32.597334 80.782223l-208.611555 212.195555a113.777778 113.777778 0 0 1-80.156445 34.076445l-297.585777 2.56a113.777778 113.777778 0 0 1-80.782223-32.597334l-212.195555-208.611555a113.777778 113.777778 0 0 1-34.076445-80.156445L37.717333 367.331556a113.777778 113.777778 0 0 1 32.597334-80.782223l208.611555-212.195555A113.777778 113.777778 0 0 1 359.082667 40.220444l297.585777-2.56a113.777778 113.777778 0 0 1 80.782223 32.597334z m-39.822222 40.561777a56.888889 56.888889 0 0 0-32.938667-15.872l-7.452445-0.398222-297.585777 2.56a56.888889 56.888889 0 0 0-34.531556 12.060445l-5.575111 4.949333L110.876444 326.542222a56.888889 56.888889 0 0 0-15.872 32.881778l-0.398222 7.452444 2.56 297.585778a56.888889 56.888889 0 0 0 12.060445 34.531556l4.949333 5.575111 212.309333 208.611555a56.888889 56.888889 0 0 0 32.881778 15.872l7.452445 0.398223 297.585777-2.56a56.888889 56.888889 0 0 0 34.531556-12.060445l5.575111-4.949333 208.611556-212.309333a56.888889 56.888889 0 0 0 15.872-32.881778l0.398222-7.452445-2.56-297.585777a56.888889 56.888889 0 0 0-12.060445-34.531556l-4.949333-5.575111-212.309333-208.611556z"  /><path fill="#2c2c2c" d="M512 341.333333a170.666667 170.666667 0 1 1 0 341.333334 170.666667 170.666667 0 0 1 0-341.333334z m0 56.888889a113.777778 113.777778 0 1 0 0 227.555556 113.777778 113.777778 0 0 0 0-227.555556z"  /><path fill="#2c2c2c" d="M512 227.555556a284.444444 284.444444 0 1 1 0 568.888888A284.444444 284.444444 0 0 1 512 227.555556z m0 56.888888a227.555556 227.555556 0 1 0 0 455.111112 227.555556 227.555556 0 0 0 0-455.111112z"  /></svg>