<?xml version="1.0" standalone="no"?><!DOCTYPE svg PUBLIC "-//W3C//DTD SVG 1.1//EN" "http://www.w3.org/Graphics/SVG/1.1/DTD/svg11.dtd"><svg class="icon" width="200px" height="200.00px" viewBox="0 0 1024 1024" version="1.1" xmlns="http://www.w3.org/2000/svg"><path fill="#2c2c2c" d="M284.444444 0a56.888889 56.888889 0 0 1 56.888889 56.888889v113.777778a113.777778 113.777778 0 0 1 113.777778 113.777777v625.777778a113.777778 113.777778 0 0 1-113.777778 113.777778H113.777778a113.777778 113.777778 0 0 1-113.777778-113.777778V284.444444a113.777778 113.777778 0 0 1 105.244444-113.493333L113.777778 170.666667V56.888889a56.888889 56.888889 0 0 1 56.888889-56.888889h113.777777z m0 56.888889H170.666667v168.618667l-61.212445 2.218666a56.888889 56.888889 0 0 0-52.167111 49.948445L56.888889 284.444444v625.777778a56.888889 56.888889 0 0 0 50.232889 56.490667L113.777778 967.111111h227.555555a56.888889 56.888889 0 0 0 56.490667-50.232889L398.222222 910.222222V284.444444a56.888889 56.888889 0 0 0-50.232889-56.490666L341.333333 227.555556H284.444444V56.888889z"  /><path fill="#2c2c2c" d="M227.555556 341.333333a56.888889 56.888889 0 0 1 56.888888 56.888889v341.333334a56.888889 56.888889 0 0 1-56.888888 56.888888H56.888889a56.888889 56.888889 0 0 1-56.888889-56.888888V398.222222a56.888889 56.888889 0 0 1 56.888889-56.888889h170.666667z m0 56.888889H56.888889v341.333334h170.666667V398.222222zM426.666667 853.333333a28.444444 28.444444 0 1 1 0 56.888889h-398.222223a28.444444 28.444444 0 1 1 0-56.888889h398.222223z"  /><path fill="#2c2c2c" d="M142.222222 455.111111a28.444444 28.444444 0 0 1 0 56.888889h-113.777778a28.444444 28.444444 0 0 1 0-56.888889h113.777778zM142.222222 568.888889a28.444444 28.444444 0 1 1 0 56.888889h-113.777778a28.444444 28.444444 0 1 1 0-56.888889h113.777778zM312.888889 113.777778a28.444444 28.444444 0 0 1 0 56.888889h-170.666667a28.444444 28.444444 0 0 1 0-56.888889h170.666667zM967.111111 341.333333a56.888889 56.888889 0 0 1 56.888889 56.888889v170.666667a227.555556 227.555556 0 0 1-216.177778 227.271111L796.444444 796.444444h-56.888888a227.555556 227.555556 0 0 1-227.555556-227.555555V398.222222a56.888889 56.888889 0 0 1 56.888889-56.888889h398.222222z m0 56.888889h-398.222222v170.666667a170.666667 170.666667 0 0 0 160.654222 170.382222L739.555556 739.555556h55.466666l10.012445-0.227556a170.666667 170.666667 0 0 0 161.792-160.426667L967.111111 568.888889V398.222222zM881.777778 967.111111a28.444444 28.444444 0 1 1 0 56.888889h-227.555556a28.444444 28.444444 0 1 1 0-56.888889h227.555556z"  /><path fill="#2c2c2c" d="M768 739.555556a28.444444 28.444444 0 0 1 28.444444 28.444444v227.555556a28.444444 28.444444 0 1 1-56.888888 0v-227.555556a28.444444 28.444444 0 0 1 28.444444-28.444444zM600.917333 485.603556a199.111111 199.111111 0 0 1 151.153778 1.308444l11.889778 5.461333 49.720889 24.860445a142.222222 142.222222 0 0 0 79.815111 14.108444l11.662222-1.820444 84.764445-16.952889a28.444444 28.444444 0 0 1 16.156444 54.328889l-4.949333 1.422222-84.764445 16.952889a199.111111 199.111111 0 0 1-116.053333-11.605333l-12.060445-5.518223-49.777777-24.860444a142.222222 142.222222 0 0 0-105.984-8.533333l-10.410667 3.697777-71.111111 28.444445a28.444444 28.444444 0 0 1-25.656889-50.517334l4.551111-2.332444 71.111111-28.444444z"  /></svg>