<?xml version="1.0" standalone="no"?><!DOCTYPE svg PUBLIC "-//W3C//DTD SVG 1.1//EN" "http://www.w3.org/Graphics/SVG/1.1/DTD/svg11.dtd"><svg class="icon" width="200px" height="200.00px" viewBox="0 0 1024 1024" version="1.1" xmlns="http://www.w3.org/2000/svg"><path fill="#2c2c2c" d="M28.444444 512c0-37.944889 56.888889-37.944889 56.888889 0a426.666667 426.666667 0 0 0 821.589334 161.792 28.444444 28.444444 0 1 1 52.622222 21.617778A483.669333 483.669333 0 0 1 93.468444 754.346667l-8.135111-14.563556V853.333333a28.444444 28.444444 0 0 1-23.324444 27.989334L56.888889 881.777778a28.444444 28.444444 0 0 1-27.989333-23.324445L28.444444 853.333333V512zM512 28.444444a483.384889 483.384889 0 0 1 418.531556 241.208889l8.135111 14.620445V170.666667a28.444444 28.444444 0 0 1 23.324444-27.989334L967.111111 142.222222a28.444444 28.444444 0 0 1 27.989333 23.324445L995.555556 170.666667v341.333333c0 37.944889-56.888889 37.944889-56.888889 0A426.666667 426.666667 0 0 0 115.996444 352.881778a28.444444 28.444444 0 0 1-52.792888-21.219556A483.669333 483.669333 0 0 1 512 28.444444z"  /><path fill="#2c2c2c" d="M512 284.444444c74.808889 0 138.353778 48.128 161.393778 115.086223a142.222222 142.222222 0 0 1-9.841778 282.851555L654.222222 682.666667H341.333333a113.777778 113.777778 0 0 1-8.533333-227.271111L341.333333 455.111111l0.284445-10.012444A170.666667 170.666667 0 0 1 512 284.444444z m0 56.888889a113.720889 113.720889 0 0 0-112.64 96.711111l-0.853333 8.704-1.820445 63.260445-59.676444 2.161778a56.888889 56.888889 0 0 0-2.275556 113.208889L341.333333 625.777778h311.068445l7.509333-0.170667a85.333333 85.333333 0 0 0 13.653333-168.277333l-7.736888-1.422222-34.759112-4.664889-11.434666-33.223111A113.834667 113.834667 0 0 0 512 341.333333z"  /></svg>