<?xml version="1.0" standalone="no"?><!DOCTYPE svg PUBLIC "-//W3C//DTD SVG 1.1//EN" "http://www.w3.org/Graphics/SVG/1.1/DTD/svg11.dtd"><svg class="icon" width="200px" height="200.00px" viewBox="0 0 1024 1024" version="1.1" xmlns="http://www.w3.org/2000/svg"><path fill="#2c2c2c" d="M881.777778 398.222222a56.888889 56.888889 0 0 1 56.888889 56.888889v512a56.888889 56.888889 0 0 1-56.888889 56.888889H142.222222a56.888889 56.888889 0 0 1-56.888889-56.888889V455.111111a56.888889 56.888889 0 0 1 56.888889-56.888889h739.555556z m0 56.888889H142.222222v512h739.555556V455.111111z"  /><path fill="#2c2c2c" d="M938.666667 455.111111a56.888889 56.888889 0 0 0 56.888889-56.888889V284.444444a56.888889 56.888889 0 0 0-56.888889-56.888888H85.333333a56.888889 56.888889 0 0 0-56.888889 56.888888v113.777778a56.888889 56.888889 0 0 0 56.888889 56.888889h853.333334z m0-56.888889H85.333333V284.444444h853.333334v113.777778z"  /><path fill="#2c2c2c" d="M512 1024a28.444444 28.444444 0 0 0 28.444444-28.444444v-568.888889a28.444444 28.444444 0 0 0-56.888888 0v568.888889a28.444444 28.444444 0 0 0 28.444444 28.444444z"  /><path fill="#2c2c2c" d="M910.222222 739.555556a28.444444 28.444444 0 1 0 0-56.888889h-796.444444a28.444444 28.444444 0 0 0 0 56.888889h796.444444zM390.087111 51.029333c103.310222 37.603556 169.699556 115.996444 148.195556 175.047111-21.504 58.993778-122.709333 76.401778-226.019556 38.798223-103.310222-37.603556-169.699556-115.996444-148.195555-175.047111C185.571556 30.776889 286.776889 13.425778 390.087111 51.029333z m-19.456 53.475556c-77.710222-28.330667-145.294222-16.725333-153.088 4.778667-7.850667 21.504 36.408889 73.841778 114.176 102.115555 77.710222 28.273778 145.294222 16.668444 153.088-4.778667 7.850667-21.504-36.408889-73.841778-114.176-102.115555z"  /><path fill="#2c2c2c" d="M636.529778 51.029333c-103.310222 37.603556-169.699556 115.996444-148.195556 175.047111 21.504 58.993778 122.709333 76.401778 226.019556 38.798223 103.310222-37.603556 169.699556-115.996444 148.195555-175.047111C841.045333 30.776889 739.84 13.425778 636.529778 51.029333z m19.456 53.475556c77.710222-28.330667 145.294222-16.725333 153.088 4.778667 7.850667 21.504-36.408889 73.841778-114.176 102.115555-77.710222 28.273778-145.294222 16.668444-153.088-4.778667-7.850667-21.504 36.408889-73.841778 114.176-102.115555z"  /></svg>