<?xml version="1.0" standalone="no"?><!DOCTYPE svg PUBLIC "-//W3C//DTD SVG 1.1//EN" "http://www.w3.org/Graphics/SVG/1.1/DTD/svg11.dtd"><svg class="icon" width="200px" height="200.00px" viewBox="0 0 1024 1024" version="1.1" xmlns="http://www.w3.org/2000/svg"><path fill="#2c2c2c" d="M512.100693 0a455.111111 455.111111 0 0 1 455.111111 455.111111 454.144 454.144 0 0 1-235.52 398.222222l-440.490666-0.227555A455.111111 455.111111 0 0 1 512.100693 0z m0 56.888889a398.222222 398.222222 0 0 0-219.420444 730.624l13.880889 8.704 133.802666 0.170667L716.331804 796.444444l0.682667-0.341333a397.084444 397.084444 0 0 0 192.967111-325.859555L910.322916 455.111111a398.222222 398.222222 0 0 0-398.222223-398.222222z"  /><path fill="#2c2c2c" d="M512.100693 113.777778a341.333333 341.333333 0 1 1 0 682.666666A341.333333 341.333333 0 0 1 512.100693 113.777778z m0 56.888889a284.444444 284.444444 0 1 0 0 568.888889A284.444444 284.444444 0 0 0 512.100693 170.666667z"  /><path fill="#2c2c2c" d="M693.121138 368.355556a28.444444 28.444444 0 0 1-40.220445 40.220444L532.23936 287.914667a28.444444 28.444444 0 1 1 40.220444-40.220445l120.661334 120.604445zM693.121138 482.133333a28.444444 28.444444 0 0 1-40.220445 40.220445L532.23936 401.692444a28.444444 28.444444 0 1 1 40.220444-40.220444l120.661334 120.604444zM910.322916 796.444444a56.888889 56.888889 0 0 1 56.888888 56.888889v56.888889a113.777778 113.777778 0 0 1-113.777777 113.777778H170.76736a113.777778 113.777778 0 0 1-113.777778-113.777778v-56.888889a56.888889 56.888889 0 0 1 56.888889-56.888889h796.444445z m0 56.888889H113.878471v56.888889a56.888889 56.888889 0 0 0 50.232889 56.490667L170.76736 967.111111h682.666667a56.888889 56.888889 0 0 0 56.490666-50.232889L910.322916 910.222222v-56.888889z"  /><path fill="#2c2c2c" d="M654.322916 853.333333a28.444444 28.444444 0 1 1 0 56.888889h-284.444445a28.444444 28.444444 0 1 1 0-56.888889h284.444445z"  /></svg>