<?xml version="1.0" standalone="no"?><!DOCTYPE svg PUBLIC "-//W3C//DTD SVG 1.1//EN" "http://www.w3.org/Graphics/SVG/1.1/DTD/svg11.dtd"><svg class="icon" width="200px" height="200.00px" viewBox="0 0 1024 1024" version="1.1" xmlns="http://www.w3.org/2000/svg"><path fill="#2c2c2c" d="M941.909333 455.111111a56.888889 56.888889 0 0 1 53.248 76.856889l-21.333333 56.888889a56.888889 56.888889 0 0 1-53.248 36.920889H103.424a56.888889 56.888889 0 0 1-53.248-36.920889l-21.333333-56.888889A56.888889 56.888889 0 0 1 82.090667 455.111111h859.818666z m-21.333333 113.777778l21.333333-56.888889H82.090667l21.333333 56.888889h817.152z"  /><path fill="#2c2c2c" d="M846.791111 568.888889a56.888889 56.888889 0 0 1 56.888889 56.888889l-0.113778 3.072-37.546666 344.462222a56.888889 56.888889 0 0 1-56.604445 50.688H214.584889a56.888889 56.888889 0 0 1-56.547556-50.688l-37.376-341.333333a56.888889 56.888889 0 0 1 50.403556-62.748445L174.08 568.888889 846.791111 568.888889z m0 56.888889H177.208889l37.376 341.333333h594.830222l37.376-341.333333zM837.973333 0c61.326222 273.066667-61.212444 443.733333-367.502222 512-61.326222-227.555556 61.212444-398.222222 367.502222-512z m-43.804444 83.057778l-0.455111-3.925334-3.925334 1.706667c-203.207111 90.112-291.271111 206.677333-275.911111 355.783111l0.625778 5.404445 7.907556-2.275556c202.808889-61.098667 289.792-176.412444 271.758222-356.693333z"  /><path fill="#2c2c2c" d="M238.478222 113.777778c-43.747556 212.366222 43.804444 345.144889 262.599111 398.222222 43.747556-176.981333-43.804444-309.703111-262.599111-398.222222z m46.307556 83.797333l6.314666 3.413333c111.502222 60.188444 164.067556 134.599111 163.896889 227.328l-0.227555 10.467556-7.224889-2.616889C333.653333 392.305778 281.201778 317.383111 284.501333 203.662222l0.284445-6.144z"  /></svg>