<?xml version="1.0" standalone="no"?><!DOCTYPE svg PUBLIC "-//W3C//DTD SVG 1.1//EN" "http://www.w3.org/Graphics/SVG/1.1/DTD/svg11.dtd"><svg class="icon" width="200px" height="200.00px" viewBox="0 0 1024 1024" version="1.1" xmlns="http://www.w3.org/2000/svg"><path fill="#2c2c2c" d="M796.444444 0a113.777778 113.777778 0 0 1 113.777778 113.777778v796.444444a113.777778 113.777778 0 0 1-113.777778 113.777778H227.555556a113.777778 113.777778 0 0 1-113.777778-113.777778V113.777778a113.777778 113.777778 0 0 1 113.777778-113.777778h568.888888z m0 56.888889H227.555556a56.888889 56.888889 0 0 0-56.490667 50.232889L170.666667 113.777778v796.444444a56.888889 56.888889 0 0 0 50.232889 56.490667L227.555556 967.111111h568.888888a56.888889 56.888889 0 0 0 56.490667-50.232889L853.333333 910.222222V113.777778a56.888889 56.888889 0 0 0-50.232889-56.490667L796.444444 56.888889z"  /><path fill="#2c2c2c" d="M739.555556 113.777778a56.888889 56.888889 0 0 1 56.888888 56.888889v512a56.888889 56.888889 0 0 1-56.888888 56.888889H284.444444a56.888889 56.888889 0 0 1-56.888888-56.888889V170.666667a56.888889 56.888889 0 0 1 56.888888-56.888889h455.111112z m0 56.888889H284.444444v512h455.111112V170.666667zM512 796.444444a56.888889 56.888889 0 1 1 0 113.777778 56.888889 56.888889 0 0 1 0-113.777778z"  /></svg>