<?xml version="1.0" standalone="no"?><!DOCTYPE svg PUBLIC "-//W3C//DTD SVG 1.1//EN" "http://www.w3.org/Graphics/SVG/1.1/DTD/svg11.dtd"><svg class="icon" width="200px" height="200.00px" viewBox="0 0 1024 1024" version="1.1" xmlns="http://www.w3.org/2000/svg"><path fill="#2c2c2c" d="M345.201209 541.866667l-2.332445 2.56 3.413334-4.096 4.494222-4.437334 7.111111-5.347555 3.811556-2.218667a59.847111 59.847111 0 0 1 16.497777-5.688889l8.704-0.910222h1.706667a58.823111 58.823111 0 0 1 31.630222 9.329778l12.344889 8.988444-1.536-2.787555c-2.446222-4.551111-4.835556-9.159111-7.111111-13.653334l-6.599111-13.653333-6.314667-14.392889a348.615111 348.615111 0 0 1-15.815111-46.307555L390.826098 428.942222l-2.389334-16.156444-0.853333-10.922667-0.341333-10.865778c0-3.072 0.113778-5.518222 0.341333-11.264l0.341333-4.892444a52.224 52.224 0 0 1 2.104889-10.808889l2.048-5.745778 2.161778-4.664889a61.553778 61.553778 0 0 1 12.174222-15.36c10.24-9.159111 23.608889-14.279111 37.603556-14.279111l6.485333 0.341334 4.209778 0.568888 5.233778 1.251556c2.048 0.625778 3.697778 1.251556 8.704 3.242667l4.323555 2.275555a48.355556 48.355556 0 0 1 8.021334 5.688889l4.266666 3.925333 2.673778 2.844445 11.946667 14.449778c11.434667 14.392889 22.186667 29.411556 37.432889 51.996444l33.223111 48.753778 21.219555 28.899555 14.165334 18.147556 2.958222-37.831111a55.352889 55.352889 0 0 1 7.850667-24.974222l2.275555-3.584 4.551111-5.461334 4.949334-4.778666 6.314666-4.721778 5.347556-3.072 4.096-1.820445 7.68-2.503111a55.011556 55.011556 0 0 1 13.767111-1.649777 54.385778 54.385778 0 0 1 31.459555 9.671111l4.096 2.958222 1.706667 1.422222c6.257778 5.461333 11.264 12.231111 14.620445 19.854222l7.68 18.375111 1.365333 3.640889c2.446222 6.542222 4.835556 13.255111 7.054222 20.252445l6.997333 23.552 8.419556 35.043555 6.542222 38.115556 3.015111 23.893333 1.877334 22.755556 0.910222 19.114666c2.104889 26.339556 19.342222 62.293333 50.631111 102.741334 19.342222 24.917333 43.064889 50.176 65.422222 70.542222l13.084445 11.605333-36.750223 43.406223a632.206222 632.206222 0 0 1-86.755555-90.794667c-37.432889-48.355556-59.221333-93.752889-62.407111-135.224889l-1.706667-28.615111-2.104889-20.195556-4.664889-30.663111-7.509333-35.441778-5.404444-20.081777-5.233778-16.782223-7.509334-20.48-4.949333-11.662222-5.233778 61.667556-2.446222 19.342222-3.584 21.617778-12.515555 55.409778-39.765334-41.585778-15.587555-17.635556c-7.452444-8.533333-14.563556-17.009778-21.390223-25.429333l-18.602666-23.722667-18.716445-25.372444-29.468444-42.894222-19.114667-28.046223c-11.036444-15.928889-19.342222-27.136-28.216889-37.944889l-6.485333-7.452444-0.341333 10.069333 0.341333 10.069334 1.649778 13.710222 1.365333 7.850667c2.446222 12.231111 6.087111 24.860444 10.865778 37.831111l5.12 13.084444 5.688889 12.743111c3.640889 7.907556 7.68 15.928889 12.060444 24.064l9.216 16.497778c5.461333 9.272889 11.036444 18.261333 16.725334 26.908444l13.653333 20.081778 18.318222 25.031111 10.638222 13.937778 1.877334 2.730667 3.015111 5.347555 2.844444 5.916445 32.142222 70.428444-70.087111-32.881778a386.673778 386.673778 0 0 1-36.977777-20.252444l-13.368889-8.419556-18.090667-12.060444-21.276444-14.904889-40.561778-29.866667 4.152889 10.24c7.111111 16.099556 16.497778 31.402667 27.875555 45.966223l13.141334 15.644444c7.907556 8.647111 16.327111 16.839111 25.088 24.405333l22.471111 17.806223 4.608 3.185777c7.793778 5.347556 14.449778 9.500444 23.324444 14.904889 100.864 78.961778 151.324444 158.151111 178.631111 244.906667l4.380445 14.506667-54.727111 15.530666c-23.210667-81.635556-67.242667-154.908444-159.857778-227.84l-11.093334-6.656-19.569777-13.141333-9.443556-7.224889a359.992889 359.992889 0 0 1-34.986667-30.72l-13.482666-14.222222-2.844445-3.299556a275.000889 275.000889 0 0 1-51.825777-86.357333 53.248 53.248 0 0 1-2.730667-10.695111l-0.455111-4.380445-0.113778-6.599111 0.113778-1.251555c0.227556-2.844444 0.625778-5.688889 1.137778-7.964445l0.910222-3.072a43.576889 43.576889 0 0 1 1.706666-5.12l2.275556-4.949333 3.242667-5.575111c0.568889-0.796444 1.592889-1.991111 4.039111-4.949333z"  /><path fill="#2c2c2c" d="M461.083876 0c107.463111 0 202.865778 48.810667 221.184 153.486222a212.935111 212.935111 0 0 1 72.248888-12.572444c120.661333 0 212.593778 130.844444 212.593778 254.293333a225.507556 225.507556 0 0 1-103.367111 190.464c60.700444 92.899556 66.218667 218.851556 18.033778 312.604445l-6.599111 12.060444c-21.048889 41.756444-60.245333 74.524444-113.948445 95.345778a326.769778 326.769778 0 0 1-54.727111 15.758222l-14.506666 2.56-9.500445-0.455111c-85.333333-5.518222-173.738667-60.871111-235.576889-137.841778l-23.324444-30.492444c-8.305778-10.353778-14.848-16.384-38.912-38.912a213.617778 213.617778 0 0 1-112.64 22.755555c-108.942222-7.736889-196.835556-98.986667-202.808889-210.659555A227.157333 227.157333 0 0 1 112.070542 482.417778 225.792 225.792 0 0 1 56.88832 333.937778c0-122.595556 96.426667-222.094222 215.779556-223.573334A217.315556 217.315556 0 0 1 461.083876 0z m0 56.888889c-53.532444 0-103.480889 27.306667-133.347556 72.419555l-5.688889 9.272889-16.156444 28.273778-32.540445 0.398222C185.286542 168.391111 113.777209 242.346667 113.777209 333.937778c0 37.432889 12.060444 72.931556 33.678222 101.774222l7.566222 9.386667 29.582223 34.076444-26.453334 36.579556a170.382222 170.382222 0 0 0-32.085333 109.624889c4.437333 83.228444 69.973333 151.210667 150.186667 157.013333a156.444444 156.444444 0 0 0 71.452444-11.605333l11.150222-5.12 35.555556-18.147556 56.718222 53.361778c2.787556 2.787556 4.835556 4.949333 7.338667 7.623111l4.949333 5.518222c4.551111 5.290667 8.817778 10.865778 19.626667 25.429333 51.370667 69.063111 124.586667 116.906667 191.146666 126.065778l13.880889 1.365334 10.581334-1.877334a267.946667 267.946667 0 0 0 27.818666-7.281778l14.222222-5.12c37.091556-14.336 63.658667-34.872889 80.213334-61.724444l5.12-9.159111c42.496-73.102222 41.472-175.786667-2.616889-252.984889l-7.281778-11.946667-31.459555-48.128 48.412444-30.947555A168.675556 168.675556 0 0 0 910.221653 395.264c0-101.944889-75.548444-197.461333-155.704889-197.461333-14.677333 0-29.013333 1.991111-42.780444 5.916444l-10.24 3.299556-63.658667 22.869333-11.605333-66.56C614.399431 96.142222 552.902542 56.888889 461.083876 56.888889z"  /><path fill="#2c2c2c" d="M395.377209 117.589333c62.862222-36.295111 157.980444-10.808889 194.275555 52.053334a28.444444 28.444444 0 1 1-49.265777 28.444444c-20.593778-35.669333-80.896-51.768889-116.565334-31.232a28.444444 28.444444 0 1 1-28.444444-49.265778z"  /></svg>