<?xml version="1.0" standalone="no"?><!DOCTYPE svg PUBLIC "-//W3C//DTD SVG 1.1//EN" "http://www.w3.org/Graphics/SVG/1.1/DTD/svg11.dtd"><svg class="icon" width="200px" height="200.00px" viewBox="0 0 1024 1024" version="1.1" xmlns="http://www.w3.org/2000/svg"><path fill="#2c2c2c" d="M992.880071 113.777778l1.365333 20.821333c7.395556 109.397333-16.725333 220.615111-65.991111 305.493333-27.704889 47.502222-62.577778 86.186667-103.765333 114.801778a322.503111 322.503111 0 0 1-154.624 56.035556l-17.749333 1.422222-42.496 2.673778c-28.501333 2.218667-55.011556 6.485333-76.8 20.195555-30.606222 19.285333-55.751111 57.457778-62.520889 95.288889-2.844444 15.587556-3.470222 37.091556 6.997333 56.888889l4.437333 7.281778 104.618667-10.069333c22.926222-2.161778 44.714667 7.68 58.026667 26.453333 11.889778 16.725333 15.075556 37.319111 8.874666 56.376889l-2.730666 7.111111-51.2 112.071111c-9.614222 20.992-28.956444 34.759111-51.939556 37.034667L541.068516 1024c-18.033778 0-34.872889-7.452444-46.876445-20.764444l-4.835555-6.030223-53.361778-74.808889c-29.525333 0.910222-64.739556-6.883556-107.52-23.779555-75.491556-29.752889-135.793778-86.983111-165.262222-156.899556-29.184-69.461333-27.932444-144.839111 3.640888-217.827555 27.192889-62.748444 76.515556-121.912889 138.808889-166.513778a1218.56 1218.56 0 0 1 226.986667-126.293333 1591.352889 1591.352889 0 0 1 214.072889-73.841778 1677.198222 1677.198222 0 0 1 167.708444-36.238222l33.052445-4.835556 45.397333-2.389333zM938.66496 177.664l-0.113778-2.844444-1.991111 0.341333a1571.84 1571.84 0 0 0-175.047111 36.977778c-72.817778 19.683556-142.222222 43.576889-206.392889 71.224889a1161.841778 1161.841778 0 0 0-216.348444 120.263111c-54.158222 38.741333-96.768 89.884444-119.694223 142.904889-25.543111 58.936889-26.510222 118.158222-3.413333 173.112888 23.324444 55.523556 72.135111 101.831111 133.688889 126.065778 31.687111 12.515556 57.059556 18.773333 76.8 19.740445l8.135111 0.113777 30.378667-0.967111 71.111111 99.669334c1.365333 1.991111 3.015111 2.844444 5.290667 2.844444l0.739555-0.056889a6.712889 6.712889 0 0 0 4.437333-1.934222l1.365334-2.048 51.2-112.298667c1.080889-2.275556 0.853333-4.437333-0.796445-6.712889a6.314667 6.314667 0 0 0-3.754666-2.730666l-2.503111-0.113778-137.671112 13.255111-19.000888-27.306667c-22.869333-32.768-27.420444-69.859556-20.764445-106.723555 9.557333-53.248 43.804444-105.415111 88.177778-133.347556 32.256-20.252444 58.993778-25.941333 115.143111-29.639111l34.019556-2.104889 12.629333-1.024a265.671111 265.671111 0 0 0 127.715555-46.08c34.133333-23.722667 63.374222-56.149333 87.04-96.711111 37.660444-64.853333 58.88-148.593778 59.619556-233.813333z"  /><path fill="#2c2c2c" d="M967.109404 28.444444a28.444444 28.444444 0 0 1 27.989334 23.324445L995.553849 56.888889v85.333333a28.444444 28.444444 0 0 1-56.433778 5.12L938.66496 142.222222V85.560889h-1.763556c-199.964444 3.072-368.469333 36.750222-505.628444 100.693333l-20.309333 9.841778C264.36096 269.368889 164.634738 360.106667 110.76096 467.854222a28.444444 28.444444 0 1 1-50.858667-25.486222C119.749404 322.616889 228.634738 223.630222 385.477404 145.237333 541.466738 67.242667 735.40096 28.444444 967.109404 28.444444z"  /><path fill="#2c2c2c" d="M562.003627 238.364444a28.444444 28.444444 0 0 1 52.053333 22.926223 199.168 199.168 0 0 0 139.946667 274.659555 28.444444 28.444444 0 0 1-12.003556 55.580445A256.056889 256.056889 0 0 1 562.003627 238.364444zM369.776071 540.444444a28.444444 28.444444 0 0 1 27.989333 23.324445L398.220516 568.888889c0 7.168 3.470222 20.650667 14.108444 34.360889 7.964444 10.296889 19.171556 19.114667 34.474667 26.055111a28.444444 28.444444 0 0 1-23.324445 51.825778 144.896 144.896 0 0 1-56.149333-43.064889C347.873849 612.977778 341.331627 587.662222 341.331627 568.888889a28.444444 28.444444 0 0 1 28.444444-28.444445z"  /><path fill="#2c2c2c" d="M298.66496 633.799111a28.444444 28.444444 0 0 1 35.896889 6.257778l2.958222 4.152889c3.584 6.257778 13.312 16.156444 29.354667 22.755555 12.117333 4.892444 26.225778 6.940444 42.894222 5.290667a28.444444 28.444444 0 1 1 5.688889 56.604444 144.896 144.896 0 0 1-70.087111-9.272888c-29.411556-12.003556-47.786667-30.72-57.116445-46.933334a28.444444 28.444444 0 0 1 10.410667-38.855111z"  /><path fill="#2c2c2c" d="M796.442738 312.888889m-56.888889 0a56.888889 56.888889 0 1 0 113.777778 0 56.888889 56.888889 0 1 0-113.777778 0Z"  /></svg>