<?xml version="1.0" standalone="no"?><!DOCTYPE svg PUBLIC "-//W3C//DTD SVG 1.1//EN" "http://www.w3.org/Graphics/SVG/1.1/DTD/svg11.dtd"><svg class="icon" width="200px" height="188.93px" viewBox="0 0 1084 1024" version="1.1" xmlns="http://www.w3.org/2000/svg"><path fill="#2c2c2c" d="M301.074814 361.63541c56.90314 0 87.251481 6.021496 126.391206 28.662322l9.935469 6.021497-31.7935 51.062288C371.88761 426.42671 352.257532 421.850373 301.074814 421.850373c-132.472918 0-240.859851 108.386933-240.859851 240.859851 0 132.713778 107.965428 240.859851 240.859851 240.859851 39.380586 0 77.316012-9.453749 111.397681-27.277379l12.524712-7.105365 31.070921 51.604223A299.32858 299.32858 0 0 1 301.074814 963.785037c-166.193297 0-301.074814-135.122376-301.074814-301.074813 0-165.711577 135.363236-301.074814 301.074814-301.074814z"  /><path fill="#2c2c2c" d="M692.472071 241.205485c215.629781 0 391.397258 175.767476 391.397258 391.397257S908.101853 1024 692.472071 1024 301.074814 848.232524 301.074814 632.602742 476.84229 241.205485 692.472071 241.205485z m0 60.214962A331.84466 331.84466 0 0 0 361.289776 632.602742c0 182.391122 148.791173 331.182295 331.182295 331.182295s331.182295-148.791173 331.182295-331.182295S874.863193 301.420447 692.472071 301.420447z"  /><path fill="#2c2c2c" d="M451.61222 602.495261a30.107481 30.107481 0 0 1 30.107482 30.107481 210.752369 210.752369 0 0 0 210.752369 210.75237 30.107481 30.107481 0 1 1 0 60.214963A270.967332 270.967332 0 0 1 421.504739 632.602742a30.107481 30.107481 0 0 1 30.107481-30.107481zM950.192112 21.420871c48.17197 149.814827-46.787026 247.302852-100.619203 271.268407-11.440843 6.021496-25.350499 8.73117-38.658006 8.731169-10.116114 0-20.894592-1.625804-30.408556-4.877412-20.232227-6.563431-35.466613-19.630078-43.053699-36.550482-23.483835-53.350457-19.027928-105.67726 12.042993-152.5245C793.211704 42.616538 876.729857 6.12627 912.256685 0.706924c17.101049-2.227954 33.539734 6.503216 37.935427 20.653732z m-50.700999 44.920362l-5.118272 1.987094c-33.118229 13.668797-74.064404 41.789184-94.657921 72.378385-19.870938 29.866622-22.279536 60.576252-7.346226 94.597706 0.421505 0.963439 2.227954 2.468813 7.767731 4.275263a35.767688 35.767688 0 0 0 10.778478 1.625804 29.685977 29.685977 0 0 0 14.150516-3.492468c48.593475-21.677387 87.070836-85.505247 75.870853-163.604054l-1.445159-7.76773zM332.747884 111.261595a30.107481 30.107481 0 0 1 58.408514 13.729012l-1.324729 5.298916-90.322444 270.967333a30.107481 30.107481 0 0 1-58.408514-13.729012l1.324729-5.298917 90.322444-270.967332z"  /><path fill="#2c2c2c" d="M212.799678 49.661688a30.107481 30.107481 0 0 1 33.720379-18.666638l5.238702 1.505374 541.934665 210.752369a30.107481 30.107481 0 0 1-16.61933 57.62572l-5.178487-1.505374-541.934664-210.75237a30.107481 30.107481 0 0 1-17.161265-38.959081z"  /></svg>