<?xml version="1.0" standalone="no"?><!DOCTYPE svg PUBLIC "-//W3C//DTD SVG 1.1//EN" "http://www.w3.org/Graphics/SVG/1.1/DTD/svg11.dtd"><svg class="icon" width="200px" height="200.00px" viewBox="0 0 1024 1024" version="1.1" xmlns="http://www.w3.org/2000/svg"><path fill="#2c2c2c" d="M915.911111 341.333333c28.444444 0 56.888889 22.755556 56.888889 51.2l45.511111 568.888889c0 34.133333-22.755556 56.888889-51.2 62.577778H631.466667c-34.133333 0-56.888889-22.755556-56.888889-56.888889v-5.688889l45.511111-568.888889c0-28.444444 28.444444-51.2 56.888889-51.2h238.933333z m45.511111 625.777778l-45.511111-568.888889h-238.933333l-45.511111 568.888889h329.955555zM358.4 227.555556c22.755556 0 45.511111 11.377778 51.2 34.133333L512 512v455.111111c0 34.133333-22.755556 56.888889-56.888889 56.888889H56.888889c-34.133333 0-56.888889-22.755556-56.888889-56.888889V512l96.711111-250.311111c11.377778-22.755556 34.133333-34.133333 56.888889-34.133333h204.8z m0 56.888888H153.6L56.888889 523.377778V967.111111h398.222222V523.377778L358.4 284.444444z"  /><path fill="#2c2c2c" d="M398.222222 455.111111c62.577778 0 108.088889 45.511111 113.777778 108.088889V796.444444c0 34.133333-22.755556 56.888889-56.888889 56.888889H341.333333c-34.133333 0-56.888889-22.755556-56.888889-56.888889V563.2C290.133333 500.622222 335.644444 455.111111 398.222222 455.111111z m0 56.888889c-28.444444 0-51.2 17.066667-56.888889 45.511111V796.444444h113.777778V563.2c0-28.444444-28.444444-51.2-56.888889-51.2zM341.333333 0c34.133333 0 56.888889 22.755556 56.888889 56.888889v56.888889c0 34.133333-22.755556 56.888889-56.888889 56.888889H170.666667c-34.133333 0-56.888889-22.755556-56.888889-56.888889V56.888889c0-34.133333 22.755556-56.888889 56.888889-56.888889h170.666666z m0 56.888889H170.666667v56.888889h170.666666V56.888889zM881.777778 113.777778c45.511111 0 85.333333 39.822222 85.333333 85.333333V227.555556c0 34.133333-22.755556 56.888889-56.888889 56.888888h-227.555555c-34.133333 0-56.888889-22.755556-56.888889-56.888888v-28.444445c0-45.511111 39.822222-85.333333 85.333333-85.333333h170.666667z m0 56.888889h-170.666667c-11.377778 0-22.755556 11.377778-28.444444 22.755555V227.555556h227.555555v-28.444445c0-11.377778-11.377778-22.755556-28.444444-28.444444zM955.733333 659.911111c11.377778-5.688889 28.444444 0 39.822223 11.377778 5.688889 11.377778 0 28.444444-5.688889 34.133333h-5.688889l-68.266667 34.133334c-34.133333 17.066667-79.644444 17.066667-119.466667 5.688888l-5.688888-5.688888-11.377778-5.688889c-22.755556-11.377778-45.511111-11.377778-68.266667-5.688889l-5.688889 5.688889-62.577778 34.133333c-11.377778 5.688889-28.444444 0-39.822222-11.377778-5.688889-11.377778 0-28.444444 5.688889-34.133333h5.688889l62.577778-34.133333c34.133333-17.066667 79.644444-17.066667 119.466666-5.688889l11.377778 5.688889 11.377778 5.688888c22.755556 11.377778 45.511111 11.377778 68.266667 5.688889l5.688889-5.688889 62.577777-34.133333z"  /><path fill="#2c2c2c" d="M790.755556 790.755556m-34.133334 0a34.133333 34.133333 0 1 0 68.266667 0 34.133333 34.133333 0 1 0-68.266667 0Z"  /><path fill="#2c2c2c" d="M796.444444 898.844444m-34.133333 0a34.133333 34.133333 0 1 0 68.266667 0 34.133333 34.133333 0 1 0-68.266667 0Z"  /><path fill="#2c2c2c" d="M893.155556 841.955556m-34.133334 0a34.133333 34.133333 0 1 0 68.266667 0 34.133333 34.133333 0 1 0-68.266667 0Z"  /></svg>