<?xml version="1.0" standalone="no"?><!DOCTYPE svg PUBLIC "-//W3C//DTD SVG 1.1//EN" "http://www.w3.org/Graphics/SVG/1.1/DTD/svg11.dtd"><svg class="icon" width="200px" height="200.00px" viewBox="0 0 1024 1024" version="1.1" xmlns="http://www.w3.org/2000/svg"><path fill="#2c2c2c" d="M271.058824 542.117647l240.941176 240.941177 240.941176-240.941177h180.705883a60.235294 60.235294 0 0 1 60.235294 60.235294v361.411765a60.235294 60.235294 0 0 1-60.235294 60.235294H90.352941a60.235294 60.235294 0 0 1-60.235294-60.235294v-361.411765a60.235294 60.235294 0 0 1 60.235294-60.235294h180.705883z m283.527529 283.527529a60.235294 60.235294 0 0 1-79.510588 4.99953l-5.662118-4.99953L246.061176 602.352941H90.352941v361.411765h843.294118v-361.411765h-155.768471l-223.292235 223.292235zM271.058824 481.882353l240.941176-240.941177 240.941176 240.941177h180.705883a60.235294 60.235294 0 0 0 60.235294-60.235294V60.235294a60.235294 60.235294 0 0 0-60.235294-60.235294H90.352941a60.235294 60.235294 0 0 0-60.235294 60.235294v361.411765a60.235294 60.235294 0 0 0 60.235294 60.235294h180.705883z m283.527529-283.527529a60.235294 60.235294 0 0 0-79.510588-4.99953l-5.662118 4.99953L246.061176 421.647059H90.352941V60.235294h843.294118v361.411765h-155.768471L554.586353 198.354824z"  /></svg>