<?xml version="1.0" standalone="no"?><!DOCTYPE svg PUBLIC "-//W3C//DTD SVG 1.1//EN" "http://www.w3.org/Graphics/SVG/1.1/DTD/svg11.dtd"><svg class="icon" width="200px" height="200.00px" viewBox="0 0 1024 1024" version="1.1" xmlns="http://www.w3.org/2000/svg"><path fill="#2c2c2c" d="M853.333333 0a113.777778 113.777778 0 0 1 113.777778 113.777778v625.777778a56.888889 56.888889 0 0 1-56.888889 56.888888H56.888889V113.777778a113.777778 113.777778 0 0 1 113.777778-113.777778h682.666666z m0 56.888889H170.666667a56.888889 56.888889 0 0 0-56.490667 50.232889L113.777778 113.777778v625.777778h796.444444V113.777778a56.888889 56.888889 0 0 0-50.232889-56.490667L853.333333 56.888889z"  /><path fill="#2c2c2c" d="M853.333333 739.555556c38.286222 0 72.135111 18.887111 92.728889 47.900444A141.255111 141.255111 0 0 0 910.222222 881.777778c0 36.181333 13.539556 69.233778 35.84 94.321778-20.593778 29.013333-54.442667 47.900444-92.728889 47.900444H170.666667a113.777778 113.777778 0 0 1-113.777778-113.777778v-170.666666h796.444444zM113.777778 910.222222a56.888889 56.888889 0 0 0 50.232889 56.490667L170.666667 967.111111h682.666666c4.664889 0 9.216-0.568889 13.653334-1.649778l4.152889-1.308444a198.769778 198.769778 0 0 1-17.408-70.087111L853.333333 881.777778c0-24.007111 4.266667-47.388444 12.401778-69.176889l5.404445-13.255111-4.152889-1.251556a56.888889 56.888889 0 0 0-6.712889-1.251555L853.333333 796.444444H113.777778v113.777778zM711.111111 227.555556a28.444444 28.444444 0 1 1 0 56.888888h-398.222222a28.444444 28.444444 0 0 1 0-56.888888h398.222222zM711.111111 398.222222a28.444444 28.444444 0 1 1 0 56.888889h-398.222222a28.444444 28.444444 0 0 1 0-56.888889h398.222222z"  /><path fill="#2c2c2c" d="M938.666667 967.111111a28.444444 28.444444 0 1 1 0 56.888889h-170.666667a28.444444 28.444444 0 1 1 0-56.888889h170.666667z"  /></svg>