<?xml version="1.0" standalone="no"?><!DOCTYPE svg PUBLIC "-//W3C//DTD SVG 1.1//EN" "http://www.w3.org/Graphics/SVG/1.1/DTD/svg11.dtd"><svg class="icon" width="200px" height="200.00px" viewBox="0 0 1024 1024" version="1.1" xmlns="http://www.w3.org/2000/svg"><path fill="#2c2c2c" d="M511.943117 0a511.943117 511.943117 0 1 1 0 1023.886235A511.943117 511.943117 0 0 1 511.943117 0z m0 56.882569a455.060549 455.060549 0 1 0 0 910.121097A455.060549 455.060549 0 0 0 511.943117 56.882569z"  /><path fill="#2c2c2c" d="M511.943117 56.882569a170.647706 170.647706 0 1 1 0 341.295411 170.647706 170.647706 0 0 1 0-341.295411z m0 56.882568a113.765137 113.765137 0 1 0 0 227.530275 113.765137 113.765137 0 0 0 0-227.530275zM511.943117 625.708255a170.647706 170.647706 0 1 1 0 341.295411 170.647706 170.647706 0 0 1 0-341.295411z m0 56.882568a113.765137 113.765137 0 1 0 0 227.530275 113.765137 113.765137 0 0 0 0-227.530275zM796.35596 341.295412a170.647706 170.647706 0 1 1 0 341.295411 170.647706 170.647706 0 0 1 0-341.295411z m0 56.882568a113.765137 113.765137 0 1 0 0 227.530275 113.765137 113.765137 0 0 0 0-227.530275zM227.530274 341.295412a170.647706 170.647706 0 1 1 0 341.295411 170.647706 170.647706 0 0 1 0-341.295411z m0 56.882568a113.765137 113.765137 0 1 0 0 227.530275 113.765137 113.765137 0 0 0 0-227.530275z"  /><path fill="#2c2c2c" d="M511.943117 398.17798a113.765137 113.765137 0 1 1 0 227.530275 113.765137 113.765137 0 0 1 0-227.530275z m0 56.882569a56.882569 56.882569 0 1 0 0 113.765137 56.882569 56.882569 0 0 0 0-113.765137zM715.810243 922.80591a28.441284 28.441284 0 0 1 34.925897-10.352627l4.550606 2.44595 70.932563 47.326297a28.441284 28.441284 0 0 0 10.238862 4.209311l5.574492 0.568825H995.444951a28.441284 28.441284 0 0 1 5.119431 56.427508L995.444951 1023.886235h-153.412288a85.323853 85.323853 0 0 1-40.159093-10.011332l-7.167204-4.323075-70.989446-47.326298a28.441284 28.441284 0 0 1-7.906677-39.41962z"  /></svg>