<?xml version="1.0" standalone="no"?><!DOCTYPE svg PUBLIC "-//W3C//DTD SVG 1.1//EN" "http://www.w3.org/Graphics/SVG/1.1/DTD/svg11.dtd"><svg class="icon" width="200px" height="200.00px" viewBox="0 0 1024 1024" version="1.1" xmlns="http://www.w3.org/2000/svg"><path fill="#2c2c2c" d="M861.411556 284.444444a56.888889 56.888889 0 0 1 56.206222 48.241778l96.312889 625.777778A56.888889 56.888889 0 0 1 957.667556 1024H66.332444a56.888889 56.888889 0 0 1-56.263111-65.536l96.312889-625.777778A56.888889 56.888889 0 0 1 162.588444 284.444444h698.823112z m0 56.888889H162.588444L66.332444 967.111111h891.335112L861.411556 341.333333z"  /><path fill="#2c2c2c" d="M512 0c174.08 0 318.008889 147.626667 341.333333 341.333333l-107.804444-0.796444C560.696889 339.968 205.824 340.195556 170.666667 341.333333c23.324444-193.706667 167.253333-341.333333 341.333333-341.333333z m0 56.888889C390.030222 56.888889 282.737778 147.399111 241.777778 279.096889l-1.365334 4.721778 142.961778-0.398223c112.753778-0.170667 246.784-0.113778 343.608889 0.170667l56.547556 0.227556-1.365334-4.721778c-39.537778-127.317333-141.084444-216.177778-257.991111-221.866667L512 56.888889z"  /><path fill="#2c2c2c" d="M587.150222 669.866667l133.12-46.535111A113.777778 113.777778 0 0 0 796.444444 515.925333V297.984H227.555556v217.941333a113.777778 113.777778 0 0 0 76.231111 107.406223l133.063111 46.535111a227.555556 227.555556 0 0 0 150.300444 0z m-18.773333-53.646223a170.666667 170.666667 0 0 1-100.465778 3.754667l-12.288-3.754667-133.12-46.648888a56.888889 56.888889 0 0 1-37.603555-46.478223L284.444444 515.925333V354.872889h455.111112v161.052444a56.888889 56.888889 0 0 1-31.459556 50.915556l-6.656 2.787555-133.063111 46.592z"  /><path fill="#2c2c2c" d="M597.333333 455.111111a28.444444 28.444444 0 1 1 0 56.888889h-170.666666a28.444444 28.444444 0 0 1 0-56.888889h170.666666z"  /></svg>