<?xml version="1.0" standalone="no"?><!DOCTYPE svg PUBLIC "-//W3C//DTD SVG 1.1//EN" "http://www.w3.org/Graphics/SVG/1.1/DTD/svg11.dtd"><svg class="icon" width="200px" height="166.78px" viewBox="0 0 1228 1024" version="1.1" xmlns="http://www.w3.org/2000/svg"><path fill="#2c2c2c" d="M1228.8 477.866667v102.126933c0 47.854933-7.850667 93.3888-23.3472 135.168a318.327467 318.327467 0 0 1-67.447467 109.226667 294.912 294.912 0 0 1-101.717333 69.8368 314.709333 314.709333 0 0 1-103.901867 23.210666l-18.432 0.477867-25.3952-0.136533c-148.821333 0.273067-297.233067 17.2032-442.914133 50.653866l-43.690667 10.513067-21.9136 4.778667c-14.472533 2.6624-29.149867 4.5056-43.8272 5.461333l-22.1184 0.682667c-85.674667 0-164.6592-32.5632-221.866666-91.886934A316.757333 316.757333 0 0 1 23.893333 788.8896c-13.653333-36.0448-21.435733-75.093333-23.415466-116.189867L0 651.946667V524.561067h68.266667V651.946667c0 40.686933 6.5536 78.6432 19.524266 112.913066 12.219733 32.631467 30.5152 61.8496 53.521067 85.742934 44.2368 45.738667 105.403733 70.997333 172.714667 70.997333 17.954133 0 35.84-1.706667 53.521066-5.051733l17.8176-3.8912 45.056-10.786134a2062.882133 2062.882133 0 0 1 411.8528-51.746133l46.216534-0.6144 25.531733 0.136533c34.269867 0 66.56-6.212267 96.392533-18.568533 28.945067-11.810133 55.569067-30.037333 78.165334-53.725867 22.801067-23.9616 40.823467-53.248 52.8384-85.947733a311.978667 311.978667 0 0 0 18.568533-91.682133l0.546133-19.797334V477.866667h68.266667z"  /><path fill="#2c2c2c" d="M614.4 0c95.778133 0 191.556267 6.144 286.72 18.2272 87.927467 10.990933 170.666667 62.122667 232.925867 144.384 28.808533 37.956267 51.882667 80.6912 68.130133 126.498133 16.5888 45.806933 25.6 94.481067 26.624 143.701334 0.136533 12.4928-0.2048 25.053867-1.2288 37.546666-6.485333 80.6912-38.775467 148.957867-93.3888 197.563734-26.146133 23.210667-57.002667 41.5744-91.886933 54.613333-27.989333 10.4448-58.504533 17.408-90.999467 20.821333l-19.729067 1.570134-127.863466 6.3488c-211.7632 11.4688-284.535467 22.664533-422.843734 57.1392A355.259733 355.259733 0 0 1 295.1168 819.2c-80.554667 0-154.555733-29.9008-208.145067-84.104533a290.269867 290.269867 0 0 1-64.170666-99.874134c-12.970667-33.450667-20.48-69.8368-22.3232-108.270933L0 507.562667V433.698133c0-48.196267 8.533333-96.938667 25.258667-144.520533a460.8 460.8 0 0 1 68.539733-126.839467A402.500267 402.500267 0 0 1 197.0176 66.491733 314.9824 314.9824 0 0 1 327.68 18.2272a2277.853867 2277.853867 0 0 1 238.7968-17.749333L614.4 0z m0 68.1984l-55.773867 0.8192c-74.274133 1.8432-148.48 7.509333-222.4128 16.930133a246.647467 246.647467 0 0 0-102.4 38.024534c-32.494933 20.821333-61.44 47.786667-85.8112 79.872a392.3968 392.3968 0 0 0-58.299733 107.997866 371.575467 371.575467 0 0 0-20.821333 101.649067L68.266667 433.698133v73.864534c0 37.341867 6.144 71.953067 18.295466 103.082666 11.195733 29.149867 27.989333 55.159467 49.015467 76.458667 40.482133 41.028267 96.938667 63.829333 159.3344 63.829333a287.402667 287.402667 0 0 0 69.4272-8.8064l29.627733-7.236266c148.753067-35.771733 234.018133-44.373333 533.640534-58.094934a311.159467 311.159467 0 0 0 90.794666-18.2272 222.276267 222.276267 0 0 0 70.4512-41.642666c41.096533-36.590933 65.536-88.405333 70.656-151.9616 0.8192-10.308267 1.160533-20.6848 0.955734-30.788267a381.678933 381.678933 0 0 0-22.528-122.197333 400.5888 400.5888 0 0 0-58.299734-108.1344c-51.6096-68.061867-118.101333-109.226667-187.1872-117.896534a2209.723733 2209.723733 0 0 0-222.344533-16.930133L614.4 68.1984z"  /><path fill="#2c2c2c" d="M629.623467 204.8c66.9696 0 121.2416 53.6576 121.309866 119.808v186.641067c0 61.303467-47.035733 112.64-108.817066 118.784a2494.190933 2494.190933 0 0 0-287.402667 46.557866c-17.954133 3.959467-36.2496 6.007467-54.613333 6.075734-47.240533 0-89.224533-14.677333-118.306134-41.3696C151.7568 613.717333 136.533333 575.965867 136.533333 528.930133v-65.1264c0-55.773867 22.528-114.8928 61.986134-161.9968C238.455467 253.952 341.333333 204.8 409.6 204.8l38.912 75.5712c15.633067 30.72 25.3952 51.131733 29.354667 60.962133l65.809066-134.7584 50.107734-1.160533L629.623467 204.8z m-0.682667 68.266667l-42.1888 0.8192-47.5136 97.416533c-24.644267 50.517333-95.095467 50.517333-120.968533 3.413333l-9.762134-21.2992c-4.7104-9.898667-11.605333-23.893333-20.753066-41.915733l-16.5888-32.3584-5.12 1.4336c-40.004267 11.810133-85.538133 35.703467-108.817067 58.299733l-6.3488 6.690134c-26.077867 31.266133-42.1888 69.2224-45.4656 104.925866L204.8 463.803733v65.194667c0 28.535467 7.7824 47.9232 23.1424 61.986133 15.7696 14.5408 41.233067 23.415467 71.8848 23.415467 13.5168 0 26.897067-1.570133 40.004267-4.437333a2563.549867 2563.549867 0 0 1 295.594666-47.9232 51.882667 51.882667 0 0 0 46.762667-43.8272L682.666667 511.317333V324.676267c0-25.941333-19.797333-47.650133-45.8752-51.131734L628.872533 273.066667zM936.004267 204.8c28.535467 0.068267 55.978667 10.4448 76.936533 28.945067C1062.638933 277.2992 1092.266667 341.060267 1092.266667 404.2752c0 59.392-27.989333 92.842667-51.6096 110.455467-23.552 17.749333-54.749867 28.4672-89.019734 30.856533L934.365867 546.133333c-63.6928-0.682667-114.961067-50.312533-115.165867-111.479466V316.689067c-0.2048-30.72 12.970667-60.074667 36.181333-81.1008A121.514667 121.514667 0 0 1 936.072533 204.8z m0.068266 68.1984l-7.5776 0.682667a52.565333 52.565333 0 0 0-27.374933 12.629333 40.413867 40.413867 0 0 0-13.1072 23.552l-0.546133 6.826667v117.76c0.068267 21.0944 17.066667 39.458133 39.594666 42.871466l6.894934 0.546134h2.8672c25.873067 0 48.3328-6.826667 62.941866-17.749334 15.223467-11.400533 24.234667-27.716267 24.234667-55.842133 0-43.281067-20.957867-88.405333-56.32-119.3984a47.7184 47.7184 0 0 0-24.7808-11.264l-6.826667-0.6144z"  /></svg>