<?xml version="1.0" standalone="no"?><!DOCTYPE svg PUBLIC "-//W3C//DTD SVG 1.1//EN" "http://www.w3.org/Graphics/SVG/1.1/DTD/svg11.dtd"><svg class="icon" width="200px" height="188.24px" viewBox="0 0 1088 1024" version="1.1" xmlns="http://www.w3.org/2000/svg"><path fill="#2c2c2c" d="M960 128a128 128 0 0 1 128 128v576a128 128 0 0 1-128 128H128a128 128 0 0 1-128-128V256a128 128 0 0 1 128-128h832z m0 64H128a64 64 0 0 0-63.552 56.512L64 256v576a64 64 0 0 0 56.512 63.552L128 896h832a64 64 0 0 0 63.552-56.512L1024 832V256a64 64 0 0 0-56.512-63.552L960 192z"  /><path fill="#2c2c2c" d="M768 0a128 128 0 0 1 128 128v64H192V128a128 128 0 0 1 128-128h448z m0 64H320a64 64 0 0 0-63.552 56.512L256 128h576a64 64 0 0 0-56.512-63.552L768 64zM1056 256a32 32 0 1 1 0 64H32a32 32 0 0 1 0-64h1024zM672 576a32 32 0 1 1 0 64h-256a32 32 0 0 1 0-64h256zM224 896a32 32 0 0 1 32 32v64a32 32 0 1 1-64 0v-64a32 32 0 0 1 32-32zM864 896a32 32 0 0 1 32 32v64a32 32 0 1 1-64 0v-64a32 32 0 0 1 32-32z"  /><path fill="#2c2c2c" d="M576 736a32 32 0 1 1-64 0v-256a32 32 0 0 1 64 0v256z"  /></svg>