<?xml version="1.0" standalone="no"?><!DOCTYPE svg PUBLIC "-//W3C//DTD SVG 1.1//EN" "http://www.w3.org/Graphics/SVG/1.1/DTD/svg11.dtd"><svg class="icon" width="200px" height="200.00px" viewBox="0 0 1024 1024" version="1.1" xmlns="http://www.w3.org/2000/svg"><path fill="#2c2c2c" d="M934.741333 170.666667a56.888889 56.888889 0 0 1 56.888889 56.888889l-0.113778 3.811555-49.322666 739.555556a56.888889 56.888889 0 0 1-56.775111 53.077333H309.248a56.888889 56.888889 0 0 1-56.775111-53.077333l-49.322667-739.555556a56.888889 56.888889 0 0 1 52.963556-60.586667l1.934222-0.056888L934.684444 170.666667z m-49.322666 796.444444l49.322666-739.555555H259.982222l49.322667 739.555555h576.170667z"  /><path fill="#2c2c2c" d="M256 0a227.555556 227.555556 0 0 1 227.271111 216.177778L483.555556 227.555556h-56.888889a170.666667 170.666667 0 1 0-180.679111 170.382222L256 398.222222v56.888889a227.555556 227.555556 0 1 1 0-455.111111zM426.666667 426.666667c50.346667 0 89.144889 13.425778 168.106666 52.337777l42.097778 20.764445c62.805333 30.321778 94.663111 40.675556 131.128889 40.675555 68.835556 0 118.556444-16.554667 150.528-48.583111a28.444444 28.444444 0 0 1 40.277333 40.277334c-43.861333 43.804444-107.975111 65.194667-190.805333 65.194666-50.346667 0-89.144889-13.425778-168.106667-52.337777l-42.097777-20.764445C494.933333 493.909333 463.075556 483.555556 426.666667 483.555556c-68.835556 0-118.556444 16.554667-150.528 48.583111a28.444444 28.444444 0 1 1-40.277334-40.277334C279.722667 448.056889 343.836444 426.666667 426.666667 426.666667z"  /><path fill="#2c2c2c" d="M967.111111 56.888889a28.444444 28.444444 0 0 1 5.12 56.433778L967.111111 113.777778h-203.946667l-81.009777 431.900444a28.444444 28.444444 0 0 1-28.046223 23.210667l-5.12-0.512A28.444444 28.444444 0 0 1 625.777778 540.330667l0.512-5.12 85.333333-455.111111a28.444444 28.444444 0 0 1 22.926222-22.755556L739.555556 56.888889h227.555555zM393.557333 683.064889a28.444444 28.444444 0 0 1 31.402667 18.375111l1.308444 5.006222 20.48 123.107556a28.444444 28.444444 0 0 0 22.983112 23.324444l5.12 0.455111H512a28.444444 28.444444 0 0 1 5.12 56.433778L512 910.222222h-37.148444a85.333333 85.333333 0 0 1-82.545778-63.715555l-1.592889-7.566223-20.536889-123.164444a28.444444 28.444444 0 0 1 23.324444-32.711111z"  /></svg>