<?xml version="1.0" standalone="no"?><!DOCTYPE svg PUBLIC "-//W3C//DTD SVG 1.1//EN" "http://www.w3.org/Graphics/SVG/1.1/DTD/svg11.dtd"><svg class="icon" width="200px" height="200.00px" viewBox="0 0 1024 1024" version="1.1" xmlns="http://www.w3.org/2000/svg"><path fill="#2c2c2c" d="M511.993173 0a28.444444 28.444444 0 0 1 28.444445 28.444444v967.111112a28.444444 28.444444 0 1 1-56.888889 0V28.444444a28.444444 28.444444 0 0 1 28.444444-28.444444z"  /><path fill="#2c2c2c" d="M649.322951 33.336889a28.444444 28.444444 0 0 1 0 40.220444L528.661618 194.218667a28.444444 28.444444 0 0 1-40.220445-40.220445L609.102507 33.336889a28.444444 28.444444 0 0 1 40.220444 0z"  /><path fill="#2c2c2c" d="M374.663396 33.336889a28.444444 28.444444 0 0 0 0 40.220444l120.661333 120.661334a28.444444 28.444444 0 0 0 40.220444-40.220445L414.88384 33.336889a28.444444 28.444444 0 0 0-40.220444 0zM649.322951 977.464889a28.444444 28.444444 0 0 0 0-40.220445l-120.661333-120.661333a28.444444 28.444444 0 0 0-40.220445 40.220445l120.661334 120.661333a28.444444 28.444444 0 0 0 40.220444 0z"  /><path fill="#2c2c2c" d="M374.663396 977.464889a28.444444 28.444444 0 0 1 0-40.220445l120.661333-120.661333a28.444444 28.444444 0 0 1 40.220444 40.220445l-120.661333 120.661333a28.444444 28.444444 0 0 1-40.220444 0z"  /><path fill="#2c2c2c" d="M955.385173 256a28.444444 28.444444 0 0 1-10.410666 38.855111l-837.518223 483.555556a28.444444 28.444444 0 1 1-28.444444-49.265778l837.518222-483.555556a28.444444 28.444444 0 0 1 38.855111 10.410667z"  /><path fill="#2c2c2c" d="M995.207396 391.623111a28.444444 28.444444 0 0 1-34.816 20.081778l-164.864-44.145778a28.444444 28.444444 0 0 1 14.734222-54.954667l164.807111 44.145778a28.444444 28.444444 0 0 1 20.138667 34.872889z"  /><path fill="#2c2c2c" d="M857.877618 153.713778a28.444444 28.444444 0 0 0-34.872889 20.138666l-44.145778 164.807112a28.444444 28.444444 0 0 0 54.954667 14.791111l44.145778-164.920889a28.444444 28.444444 0 0 0-20.081778-34.816zM177.543396 863.687111a28.444444 28.444444 0 0 0 34.872888-20.138667l44.145778-164.864a28.444444 28.444444 0 0 0-54.954666-14.677333l-44.145778 164.807111a28.444444 28.444444 0 0 0 20.081778 34.872889z"  /><path fill="#2c2c2c" d="M40.213618 625.777778a28.444444 28.444444 0 0 1 34.816-20.081778l164.864 44.145778a28.444444 28.444444 0 0 1-14.734222 54.954666l-164.807112-44.145777A28.444444 28.444444 0 0 1 40.213618 625.777778z"  /><path fill="#2c2c2c" d="M68.601173 256a28.444444 28.444444 0 0 0 10.410667 38.855111l837.518222 483.555556a28.444444 28.444444 0 1 0 28.444445-49.265778L107.513173 245.589333a28.444444 28.444444 0 0 0-38.855111 10.410667z"  /><path fill="#2c2c2c" d="M28.778951 391.623111a28.444444 28.444444 0 0 0 34.816 20.081778l164.864-44.145778a28.444444 28.444444 0 0 0-14.734222-54.954667L48.917618 356.693333a28.444444 28.444444 0 0 0-20.138667 34.872889z"  /><path fill="#2c2c2c" d="M166.108729 153.713778a28.444444 28.444444 0 0 1 34.872889 20.138666l44.145778 164.807112a28.444444 28.444444 0 0 1-54.954667 14.791111l-44.145778-164.920889a28.444444 28.444444 0 0 1 20.081778-34.816zM846.442951 863.687111a28.444444 28.444444 0 0 1-34.872889-20.138667l-44.145778-164.864a28.444444 28.444444 0 0 1 54.954667-14.677333l44.145778 164.807111a28.444444 28.444444 0 0 1-20.081778 34.872889z"  /><path fill="#2c2c2c" d="M983.772729 625.777778a28.444444 28.444444 0 0 0-34.816-20.081778l-164.864 44.145778a28.444444 28.444444 0 0 0 14.734222 54.954666l164.807111-44.145777a28.444444 28.444444 0 0 0 20.138667-34.872889z"  /><path fill="#2c2c2c" d="M511.993173 398.222222c47.104 0 85.333333 50.915556 85.333334 113.777778s-38.229333 113.777778-85.333334 113.777778S426.65984 574.862222 426.65984 512s38.229333-113.777778 85.333333-113.777778z m0 56.888889c-11.548444 0-28.444444 22.471111-28.444444 56.888889s16.896 56.888889 28.444444 56.888889 28.444444-22.471111 28.444445-56.888889-16.896-56.888889-28.444445-56.888889z"  /></svg>