<?xml version="1.0" standalone="no"?><!DOCTYPE svg PUBLIC "-//W3C//DTD SVG 1.1//EN" "http://www.w3.org/Graphics/SVG/1.1/DTD/svg11.dtd"><svg class="icon" width="200px" height="200.00px" viewBox="0 0 1024 1024" version="1.1" xmlns="http://www.w3.org/2000/svg"><path fill="#2c2c2c" d="M256 512a256 256 0 1 1 0 512 256 256 0 0 1 0-512z m0 56.888889a199.111111 199.111111 0 1 0 0 398.222222 199.111111 199.111111 0 0 0 0-398.222222z"  /><path fill="#2c2c2c" d="M256 512a142.222222 142.222222 0 1 1 0 284.444444 142.222222 142.222222 0 0 1 0-284.444444z m0 56.888889a85.333333 85.333333 0 1 0 0 170.666667 85.333333 85.333333 0 0 0 0-170.666667z"  /><path fill="#2c2c2c" d="M256 398.222222a85.333333 85.333333 0 1 1 0 170.666667 85.333333 85.333333 0 0 1 0-170.666667z m0 56.888889a28.444444 28.444444 0 1 0 0 56.888889 28.444444 28.444444 0 0 0 0-56.888889z"  /><path fill="#2c2c2c" d="M256 85.333333a113.777778 113.777778 0 0 1 32.881778 222.72L284.444444 309.191111V398.222222a28.444444 28.444444 0 0 1-23.324444 27.989334L256 426.666667a28.444444 28.444444 0 0 1-27.989333-23.324445L227.555556 398.222222V284.444444a28.444444 28.444444 0 0 1 28.444444-28.444444 56.888889 56.888889 0 1 0-56.888889-56.888889 28.444444 28.444444 0 0 1-56.888889 0 113.777778 113.777778 0 0 1 113.777778-113.777778zM768 455.111111a256 256 0 1 1 0 512 256 256 0 0 1 0-512z m0 56.888889a199.111111 199.111111 0 1 0 0 398.222222 199.111111 199.111111 0 0 0 0-398.222222z"  /><path fill="#2c2c2c" d="M768 455.111111a142.222222 142.222222 0 1 1 0 284.444445 142.222222 142.222222 0 0 1 0-284.444445z m0 56.888889a85.333333 85.333333 0 1 0 0 170.666667 85.333333 85.333333 0 0 0 0-170.666667z"  /><path fill="#2c2c2c" d="M768 341.333333a85.333333 85.333333 0 1 1 0 170.666667 85.333333 85.333333 0 0 1 0-170.666667z m0 56.888889a28.444444 28.444444 0 1 0 0 56.888889 28.444444 28.444444 0 0 0 0-56.888889z"  /><path fill="#2c2c2c" d="M768 28.444444a113.777778 113.777778 0 0 1 32.881778 222.72l-4.437334 1.137778V341.333333a28.444444 28.444444 0 0 1-23.324444 27.989334l-5.12 0.455111a28.444444 28.444444 0 0 1-27.989333-23.324445L739.555556 341.333333V227.555556a28.444444 28.444444 0 0 1 28.444444-28.444445 56.888889 56.888889 0 1 0-56.888889-56.888889 28.444444 28.444444 0 1 1-56.888889 0 113.777778 113.777778 0 0 1 113.777778-113.777778z"  /></svg>